%TF.GenerationSoftware,KiCad,Pcbnew,(5.1.9)-1*%
%TF.CreationDate,2021-04-10T11:43:18-04:00*%
%TF.ProjectId,PowerStripper,506f7765-7253-4747-9269-707065722e6b,v01*%
%TF.SameCoordinates,Original*%
%TF.FileFunction,Copper,L2,Bot*%
%TF.FilePolarity,Positive*%
%FSLAX46Y46*%
G04 Gerber Fmt 4.6, Leading zero omitted, Abs format (unit mm)*
G04 Created by KiCad (PCBNEW (5.1.9)-1) date 2021-04-10 11:43:18*
%MOMM*%
%LPD*%
G01*
G04 APERTURE LIST*
%TA.AperFunction,ComponentPad*%
%ADD10C,2.000000*%
%TD*%
%TA.AperFunction,ComponentPad*%
%ADD11R,2.000000X2.000000*%
%TD*%
%TA.AperFunction,ComponentPad*%
%ADD12O,1.650000X1.100000*%
%TD*%
%TA.AperFunction,ComponentPad*%
%ADD13O,2.700000X1.700000*%
%TD*%
%TA.AperFunction,ComponentPad*%
%ADD14C,3.300000*%
%TD*%
%TA.AperFunction,ComponentPad*%
%ADD15C,1.900000*%
%TD*%
%TA.AperFunction,ComponentPad*%
%ADD16C,1.600000*%
%TD*%
%TA.AperFunction,ComponentPad*%
%ADD17O,1.600000X1.600000*%
%TD*%
%TA.AperFunction,ComponentPad*%
%ADD18R,1.900000X1.900000*%
%TD*%
%TA.AperFunction,Conductor*%
%ADD19C,0.250000*%
%TD*%
%TA.AperFunction,Conductor*%
%ADD20C,0.254000*%
%TD*%
%TA.AperFunction,Conductor*%
%ADD21C,0.100000*%
%TD*%
G04 APERTURE END LIST*
D10*
%TO.P,D1,2*%
%TO.N,GND*%
X130810000Y-100330000D03*
D11*
%TO.P,D1,1*%
%TO.N,Net-(D1-Pad1)*%
X128270000Y-100330000D03*
%TD*%
D12*
%TO.P,J1,3*%
%TO.N,D+*%
X133075000Y-109220000D03*
%TO.P,J1,1*%
%TO.N,Net-(J1-Pad1)*%
X133075000Y-110820000D03*
%TO.P,J1,5*%
%TO.N,GND*%
X133075000Y-107620000D03*
%TO.P,J1,2*%
%TO.N,D-*%
X134825000Y-110020000D03*
%TO.P,J1,4*%
%TO.N,Net-(J1-Pad4)*%
X134825000Y-108420000D03*
D13*
%TO.P,J1,SH*%
%TO.N,GND*%
X138400000Y-112870000D03*
X138400000Y-105570000D03*
%TD*%
D14*
%TO.P,J2,SH*%
%TO.N,GND*%
X119380000Y-102650000D03*
X119380000Y-115790000D03*
D15*
%TO.P,J2,1*%
%TO.N,Net-(J2-Pad1)*%
X122090000Y-105720000D03*
%TO.P,J2,2*%
%TO.N,D-*%
X122090000Y-108220000D03*
%TO.P,J2,3*%
%TO.N,D+*%
X122090000Y-110220000D03*
%TO.P,J2,4*%
%TO.N,GND*%
X122090000Y-112720000D03*
%TD*%
D16*
%TO.P,R1,1*%
%TO.N,Net-(D1-Pad1)*%
X128270000Y-105410000D03*
D17*
%TO.P,R1,2*%
%TO.N,Net-(J2-Pad1)*%
X128270000Y-113030000D03*
%TD*%
D18*
%TO.P,S1,1*%
%TO.N,Net-(J2-Pad1)*%
X135890000Y-118110000D03*
D15*
%TO.P,S1,2*%
%TO.N,Net-(J1-Pad1)*%
X133390000Y-118110000D03*
%TO.P,S1,3*%
%TO.N,Net-(S1-Pad3)*%
X130890000Y-118110000D03*
%TD*%
D19*
%TO.N,Net-(J1-Pad1)*%
X133350000Y-118070000D02*
X133390000Y-118110000D01*
X133350000Y-110820000D02*
X133350000Y-118070000D01*
%TO.N,Net-(J2-Pad1)*%
X128270000Y-111900000D02*
X128270000Y-113030000D01*
X122090000Y-105720000D02*
X128270000Y-111900000D01*
%TD*%
D20*
%TO.N,GND*%
X141580001Y-121260000D02*
X109880000Y-121260000D01*
X109880000Y-117388435D01*
X117961170Y-117388435D01*
X118135223Y-117719354D01*
X118535540Y-117925125D01*
X118968308Y-118048846D01*
X119416898Y-118085759D01*
X119864070Y-118034449D01*
X120115041Y-117953891D01*
X129305000Y-117953891D01*
X129305000Y-118266109D01*
X129365911Y-118572327D01*
X129485391Y-118860779D01*
X129658850Y-119120379D01*
X129879621Y-119341150D01*
X130139221Y-119514609D01*
X130427673Y-119634089D01*
X130733891Y-119695000D01*
X131046109Y-119695000D01*
X131352327Y-119634089D01*
X131640779Y-119514609D01*
X131900379Y-119341150D01*
X132121150Y-119120379D01*
X132140000Y-119092168D01*
X132158850Y-119120379D01*
X132379621Y-119341150D01*
X132639221Y-119514609D01*
X132927673Y-119634089D01*
X133233891Y-119695000D01*
X133546109Y-119695000D01*
X133852327Y-119634089D01*
X134140779Y-119514609D01*
X134378186Y-119355979D01*
X134409463Y-119414494D01*
X134488815Y-119511185D01*
X134585506Y-119590537D01*
X134695820Y-119649502D01*
X134815518Y-119685812D01*
X134940000Y-119698072D01*
X136840000Y-119698072D01*
X136964482Y-119685812D01*
X137084180Y-119649502D01*
X137194494Y-119590537D01*
X137291185Y-119511185D01*
X137370537Y-119414494D01*
X137429502Y-119304180D01*
X137465812Y-119184482D01*
X137478072Y-119060000D01*
X137478072Y-117160000D01*
X137465812Y-117035518D01*
X137429502Y-116915820D01*
X137370537Y-116805506D01*
X137291185Y-116708815D01*
X137194494Y-116629463D01*
X137084180Y-116570498D01*
X136964482Y-116534188D01*
X136840000Y-116521928D01*
X134940000Y-116521928D01*
X134815518Y-116534188D01*
X134695820Y-116570498D01*
X134585506Y-116629463D01*
X134488815Y-116708815D01*
X134409463Y-116805506D01*
X134378186Y-116864021D01*
X134140779Y-116705391D01*
X134110000Y-116692642D01*
X134110000Y-113226890D01*
X136458524Y-113226890D01*
X136479437Y-113320953D01*
X136594709Y-113589426D01*
X136760143Y-113830252D01*
X136969381Y-114034176D01*
X137214382Y-114193361D01*
X137485731Y-114301690D01*
X137773000Y-114355000D01*
X138273000Y-114355000D01*
X138273000Y-112997000D01*
X138527000Y-112997000D01*
X138527000Y-114355000D01*
X139027000Y-114355000D01*
X139314269Y-114301690D01*
X139585618Y-114193361D01*
X139830619Y-114034176D01*
X140039857Y-113830252D01*
X140205291Y-113589426D01*
X140320563Y-113320953D01*
X140341476Y-113226890D01*
X140220155Y-112997000D01*
X138527000Y-112997000D01*
X138273000Y-112997000D01*
X136579845Y-112997000D01*
X136458524Y-113226890D01*
X134110000Y-113226890D01*
X134110000Y-112513110D01*
X136458524Y-112513110D01*
X136579845Y-112743000D01*
X138273000Y-112743000D01*
X138273000Y-111385000D01*
X138527000Y-111385000D01*
X138527000Y-112743000D01*
X140220155Y-112743000D01*
X140341476Y-112513110D01*
X140320563Y-112419047D01*
X140205291Y-112150574D01*
X140039857Y-111909748D01*
X139830619Y-111705824D01*
X139585618Y-111546639D01*
X139314269Y-111438310D01*
X139027000Y-111385000D01*
X138527000Y-111385000D01*
X138273000Y-111385000D01*
X137773000Y-111385000D01*
X137485731Y-111438310D01*
X137214382Y-111546639D01*
X136969381Y-111705824D01*
X136760143Y-111909748D01*
X136594709Y-112150574D01*
X136479437Y-112419047D01*
X136458524Y-112513110D01*
X134110000Y-112513110D01*
X134110000Y-111729250D01*
X134191975Y-111661975D01*
X134340058Y-111481536D01*
X134450094Y-111275674D01*
X134472120Y-111203062D01*
X134491793Y-111205000D01*
X135158207Y-111205000D01*
X135332300Y-111187853D01*
X135555674Y-111120094D01*
X135761536Y-111010058D01*
X135941975Y-110861975D01*
X136090058Y-110681536D01*
X136200094Y-110475674D01*
X136267853Y-110252300D01*
X136290733Y-110020000D01*
X136267853Y-109787700D01*
X136200094Y-109564326D01*
X136090058Y-109358464D01*
X135976423Y-109220000D01*
X136090058Y-109081536D01*
X136200094Y-108875674D01*
X136267853Y-108652300D01*
X136290733Y-108420000D01*
X136267853Y-108187700D01*
X136200094Y-107964326D01*
X136090058Y-107758464D01*
X135941975Y-107578025D01*
X135761536Y-107429942D01*
X135555674Y-107319906D01*
X135332300Y-107252147D01*
X135158207Y-107235000D01*
X134491793Y-107235000D01*
X134474348Y-107236718D01*
X134405850Y-107067246D01*
X134277725Y-106871881D01*
X134113948Y-106705266D01*
X133920813Y-106573804D01*
X133705742Y-106482546D01*
X133477000Y-106435000D01*
X133202000Y-106435000D01*
X133202000Y-107493000D01*
X133222000Y-107493000D01*
X133222000Y-107747000D01*
X133202000Y-107747000D01*
X133202000Y-107767000D01*
X132948000Y-107767000D01*
X132948000Y-107747000D01*
X131781639Y-107747000D01*
X131656197Y-107929744D01*
X131656601Y-107956147D01*
X131744150Y-108172754D01*
X131872275Y-108368119D01*
X131923438Y-108420169D01*
X131809942Y-108558464D01*
X131699906Y-108764326D01*
X131632147Y-108987700D01*
X131609267Y-109220000D01*
X131632147Y-109452300D01*
X131699906Y-109675674D01*
X131809942Y-109881536D01*
X131923577Y-110020000D01*
X131809942Y-110158464D01*
X131699906Y-110364326D01*
X131632147Y-110587700D01*
X131609267Y-110820000D01*
X131632147Y-111052300D01*
X131699906Y-111275674D01*
X131809942Y-111481536D01*
X131958025Y-111661975D01*
X132138464Y-111810058D01*
X132344326Y-111920094D01*
X132567700Y-111987853D01*
X132590000Y-111990049D01*
X132590001Y-116738279D01*
X132379621Y-116878850D01*
X132158850Y-117099621D01*
X132140000Y-117127832D01*
X132121150Y-117099621D01*
X131900379Y-116878850D01*
X131640779Y-116705391D01*
X131352327Y-116585911D01*
X131046109Y-116525000D01*
X130733891Y-116525000D01*
X130427673Y-116585911D01*
X130139221Y-116705391D01*
X129879621Y-116878850D01*
X129658850Y-117099621D01*
X129485391Y-117359221D01*
X129365911Y-117647673D01*
X129305000Y-117953891D01*
X120115041Y-117953891D01*
X120292639Y-117896885D01*
X120624777Y-117719354D01*
X120798830Y-117388435D01*
X119380000Y-115969605D01*
X117961170Y-117388435D01*
X109880000Y-117388435D01*
X109880000Y-115826898D01*
X117084241Y-115826898D01*
X117135551Y-116274070D01*
X117273115Y-116702639D01*
X117450646Y-117034777D01*
X117781565Y-117208830D01*
X119200395Y-115790000D01*
X119559605Y-115790000D01*
X120978435Y-117208830D01*
X121309354Y-117034777D01*
X121515125Y-116634460D01*
X121638846Y-116201692D01*
X121675759Y-115753102D01*
X121624449Y-115305930D01*
X121486885Y-114877361D01*
X121309354Y-114545223D01*
X120978435Y-114371170D01*
X119559605Y-115790000D01*
X119200395Y-115790000D01*
X117781565Y-114371170D01*
X117450646Y-114545223D01*
X117244875Y-114945540D01*
X117121154Y-115378308D01*
X117084241Y-115826898D01*
X109880000Y-115826898D01*
X109880000Y-114191565D01*
X117961170Y-114191565D01*
X119380000Y-115610395D01*
X120798830Y-114191565D01*
X120624777Y-113860646D01*
X120545220Y-113819752D01*
X121169853Y-113819752D01*
X121259579Y-114079042D01*
X121540671Y-114214935D01*
X121842873Y-114293379D01*
X122154573Y-114311359D01*
X122463791Y-114268184D01*
X122758644Y-114165513D01*
X122920421Y-114079042D01*
X123010147Y-113819752D01*
X122090000Y-112899605D01*
X121169853Y-113819752D01*
X120545220Y-113819752D01*
X120224460Y-113654875D01*
X119791692Y-113531154D01*
X119343102Y-113494241D01*
X118895930Y-113545551D01*
X118467361Y-113683115D01*
X118135223Y-113860646D01*
X117961170Y-114191565D01*
X109880000Y-114191565D01*
X109880000Y-112784573D01*
X120498641Y-112784573D01*
X120541816Y-113093791D01*
X120644487Y-113388644D01*
X120730958Y-113550421D01*
X120990248Y-113640147D01*
X121910395Y-112720000D01*
X122269605Y-112720000D01*
X123189752Y-113640147D01*
X123449042Y-113550421D01*
X123584935Y-113269329D01*
X123663379Y-112967127D01*
X123681359Y-112655427D01*
X123638184Y-112346209D01*
X123535513Y-112051356D01*
X123449042Y-111889579D01*
X123189752Y-111799853D01*
X122269605Y-112720000D01*
X121910395Y-112720000D01*
X120990248Y-111799853D01*
X120730958Y-111889579D01*
X120595065Y-112170671D01*
X120516621Y-112472873D01*
X120498641Y-112784573D01*
X109880000Y-112784573D01*
X109880000Y-105563891D01*
X120505000Y-105563891D01*
X120505000Y-105876109D01*
X120565911Y-106182327D01*
X120685391Y-106470779D01*
X120858850Y-106730379D01*
X121079621Y-106951150D01*
X121107832Y-106970000D01*
X121079621Y-106988850D01*
X120858850Y-107209621D01*
X120685391Y-107469221D01*
X120565911Y-107757673D01*
X120505000Y-108063891D01*
X120505000Y-108376109D01*
X120565911Y-108682327D01*
X120685391Y-108970779D01*
X120851915Y-109220000D01*
X120685391Y-109469221D01*
X120565911Y-109757673D01*
X120505000Y-110063891D01*
X120505000Y-110376109D01*
X120565911Y-110682327D01*
X120685391Y-110970779D01*
X120858850Y-111230379D01*
X121079621Y-111451150D01*
X121200434Y-111531875D01*
X121169853Y-111620248D01*
X122090000Y-112540395D01*
X123010147Y-111620248D01*
X122979566Y-111531875D01*
X123100379Y-111451150D01*
X123321150Y-111230379D01*
X123494609Y-110970779D01*
X123614089Y-110682327D01*
X123675000Y-110376109D01*
X123675000Y-110063891D01*
X123614089Y-109757673D01*
X123494609Y-109469221D01*
X123328085Y-109220000D01*
X123494609Y-108970779D01*
X123614089Y-108682327D01*
X123674387Y-108379189D01*
X127282901Y-111987703D01*
X127155363Y-112115241D01*
X126998320Y-112350273D01*
X126890147Y-112611426D01*
X126835000Y-112888665D01*
X126835000Y-113171335D01*
X126890147Y-113448574D01*
X126998320Y-113709727D01*
X127155363Y-113944759D01*
X127355241Y-114144637D01*
X127590273Y-114301680D01*
X127851426Y-114409853D01*
X128128665Y-114465000D01*
X128411335Y-114465000D01*
X128688574Y-114409853D01*
X128949727Y-114301680D01*
X129184759Y-114144637D01*
X129384637Y-113944759D01*
X129541680Y-113709727D01*
X129649853Y-113448574D01*
X129705000Y-113171335D01*
X129705000Y-112888665D01*
X129649853Y-112611426D01*
X129541680Y-112350273D01*
X129384637Y-112115241D01*
X129184759Y-111915363D01*
X129024654Y-111808384D01*
X129019003Y-111751014D01*
X128975546Y-111607753D01*
X128904974Y-111475724D01*
X128810001Y-111359999D01*
X128781004Y-111336202D01*
X124755058Y-107310256D01*
X131656197Y-107310256D01*
X131781639Y-107493000D01*
X132948000Y-107493000D01*
X132948000Y-106435000D01*
X132673000Y-106435000D01*
X132444258Y-106482546D01*
X132229187Y-106573804D01*
X132036052Y-106705266D01*
X131872275Y-106871881D01*
X131744150Y-107067246D01*
X131656601Y-107283853D01*
X131656197Y-107310256D01*
X124755058Y-107310256D01*
X123616252Y-106171451D01*
X123675000Y-105876109D01*
X123675000Y-105563891D01*
X123616276Y-105268665D01*
X126835000Y-105268665D01*
X126835000Y-105551335D01*
X126890147Y-105828574D01*
X126998320Y-106089727D01*
X127155363Y-106324759D01*
X127355241Y-106524637D01*
X127590273Y-106681680D01*
X127851426Y-106789853D01*
X128128665Y-106845000D01*
X128411335Y-106845000D01*
X128688574Y-106789853D01*
X128949727Y-106681680D01*
X129184759Y-106524637D01*
X129384637Y-106324759D01*
X129541680Y-106089727D01*
X129609129Y-105926890D01*
X136458524Y-105926890D01*
X136479437Y-106020953D01*
X136594709Y-106289426D01*
X136760143Y-106530252D01*
X136969381Y-106734176D01*
X137214382Y-106893361D01*
X137485731Y-107001690D01*
X137773000Y-107055000D01*
X138273000Y-107055000D01*
X138273000Y-105697000D01*
X138527000Y-105697000D01*
X138527000Y-107055000D01*
X139027000Y-107055000D01*
X139314269Y-107001690D01*
X139585618Y-106893361D01*
X139830619Y-106734176D01*
X140039857Y-106530252D01*
X140205291Y-106289426D01*
X140320563Y-106020953D01*
X140341476Y-105926890D01*
X140220155Y-105697000D01*
X138527000Y-105697000D01*
X138273000Y-105697000D01*
X136579845Y-105697000D01*
X136458524Y-105926890D01*
X129609129Y-105926890D01*
X129649853Y-105828574D01*
X129705000Y-105551335D01*
X129705000Y-105268665D01*
X129693950Y-105213110D01*
X136458524Y-105213110D01*
X136579845Y-105443000D01*
X138273000Y-105443000D01*
X138273000Y-104085000D01*
X138527000Y-104085000D01*
X138527000Y-105443000D01*
X140220155Y-105443000D01*
X140341476Y-105213110D01*
X140320563Y-105119047D01*
X140205291Y-104850574D01*
X140039857Y-104609748D01*
X139830619Y-104405824D01*
X139585618Y-104246639D01*
X139314269Y-104138310D01*
X139027000Y-104085000D01*
X138527000Y-104085000D01*
X138273000Y-104085000D01*
X137773000Y-104085000D01*
X137485731Y-104138310D01*
X137214382Y-104246639D01*
X136969381Y-104405824D01*
X136760143Y-104609748D01*
X136594709Y-104850574D01*
X136479437Y-105119047D01*
X136458524Y-105213110D01*
X129693950Y-105213110D01*
X129649853Y-104991426D01*
X129541680Y-104730273D01*
X129384637Y-104495241D01*
X129184759Y-104295363D01*
X128949727Y-104138320D01*
X128688574Y-104030147D01*
X128411335Y-103975000D01*
X128128665Y-103975000D01*
X127851426Y-104030147D01*
X127590273Y-104138320D01*
X127355241Y-104295363D01*
X127155363Y-104495241D01*
X126998320Y-104730273D01*
X126890147Y-104991426D01*
X126835000Y-105268665D01*
X123616276Y-105268665D01*
X123614089Y-105257673D01*
X123494609Y-104969221D01*
X123321150Y-104709621D01*
X123100379Y-104488850D01*
X122840779Y-104315391D01*
X122552327Y-104195911D01*
X122246109Y-104135000D01*
X121933891Y-104135000D01*
X121627673Y-104195911D01*
X121339221Y-104315391D01*
X121079621Y-104488850D01*
X120858850Y-104709621D01*
X120685391Y-104969221D01*
X120565911Y-105257673D01*
X120505000Y-105563891D01*
X109880000Y-105563891D01*
X109880000Y-104248435D01*
X117961170Y-104248435D01*
X118135223Y-104579354D01*
X118535540Y-104785125D01*
X118968308Y-104908846D01*
X119416898Y-104945759D01*
X119864070Y-104894449D01*
X120292639Y-104756885D01*
X120624777Y-104579354D01*
X120798830Y-104248435D01*
X119380000Y-102829605D01*
X117961170Y-104248435D01*
X109880000Y-104248435D01*
X109880000Y-102686898D01*
X117084241Y-102686898D01*
X117135551Y-103134070D01*
X117273115Y-103562639D01*
X117450646Y-103894777D01*
X117781565Y-104068830D01*
X119200395Y-102650000D01*
X119559605Y-102650000D01*
X120978435Y-104068830D01*
X121309354Y-103894777D01*
X121515125Y-103494460D01*
X121638846Y-103061692D01*
X121675759Y-102613102D01*
X121624449Y-102165930D01*
X121486885Y-101737361D01*
X121309354Y-101405223D01*
X120978435Y-101231170D01*
X119559605Y-102650000D01*
X119200395Y-102650000D01*
X117781565Y-101231170D01*
X117450646Y-101405223D01*
X117244875Y-101805540D01*
X117121154Y-102238308D01*
X117084241Y-102686898D01*
X109880000Y-102686898D01*
X109880000Y-101051565D01*
X117961170Y-101051565D01*
X119380000Y-102470395D01*
X120798830Y-101051565D01*
X120624777Y-100720646D01*
X120224460Y-100514875D01*
X119791692Y-100391154D01*
X119343102Y-100354241D01*
X118895930Y-100405551D01*
X118467361Y-100543115D01*
X118135223Y-100720646D01*
X117961170Y-101051565D01*
X109880000Y-101051565D01*
X109880000Y-99330000D01*
X126631928Y-99330000D01*
X126631928Y-101330000D01*
X126644188Y-101454482D01*
X126680498Y-101574180D01*
X126739463Y-101684494D01*
X126818815Y-101781185D01*
X126915506Y-101860537D01*
X127025820Y-101919502D01*
X127145518Y-101955812D01*
X127270000Y-101968072D01*
X129270000Y-101968072D01*
X129394482Y-101955812D01*
X129514180Y-101919502D01*
X129624494Y-101860537D01*
X129721185Y-101781185D01*
X129800537Y-101684494D01*
X129859502Y-101574180D01*
X129875037Y-101522967D01*
X129949956Y-101729814D01*
X130239571Y-101870704D01*
X130551108Y-101952384D01*
X130872595Y-101971718D01*
X131191675Y-101927961D01*
X131496088Y-101822795D01*
X131670044Y-101729814D01*
X131765808Y-101465413D01*
X130810000Y-100509605D01*
X130795858Y-100523748D01*
X130616253Y-100344143D01*
X130630395Y-100330000D01*
X130989605Y-100330000D01*
X131945413Y-101285808D01*
X132209814Y-101190044D01*
X132350704Y-100900429D01*
X132432384Y-100588892D01*
X132451718Y-100267405D01*
X132407961Y-99948325D01*
X132302795Y-99643912D01*
X132209814Y-99469956D01*
X131945413Y-99374192D01*
X130989605Y-100330000D01*
X130630395Y-100330000D01*
X130616253Y-100315858D01*
X130795858Y-100136253D01*
X130810000Y-100150395D01*
X131765808Y-99194587D01*
X131670044Y-98930186D01*
X131380429Y-98789296D01*
X131068892Y-98707616D01*
X130747405Y-98688282D01*
X130428325Y-98732039D01*
X130123912Y-98837205D01*
X129949956Y-98930186D01*
X129875037Y-99137033D01*
X129859502Y-99085820D01*
X129800537Y-98975506D01*
X129721185Y-98878815D01*
X129624494Y-98799463D01*
X129514180Y-98740498D01*
X129394482Y-98704188D01*
X129270000Y-98691928D01*
X127270000Y-98691928D01*
X127145518Y-98704188D01*
X127025820Y-98740498D01*
X126915506Y-98799463D01*
X126818815Y-98878815D01*
X126739463Y-98975506D01*
X126680498Y-99085820D01*
X126644188Y-99205518D01*
X126631928Y-99330000D01*
X109880000Y-99330000D01*
X109880000Y-97180000D01*
X141580000Y-97180000D01*
X141580001Y-121260000D01*
%TA.AperFunction,Conductor*%
D21*
G36*
X141580001Y-121260000D02*
G01*
X109880000Y-121260000D01*
X109880000Y-117388435D01*
X117961170Y-117388435D01*
X118135223Y-117719354D01*
X118535540Y-117925125D01*
X118968308Y-118048846D01*
X119416898Y-118085759D01*
X119864070Y-118034449D01*
X120115041Y-117953891D01*
X129305000Y-117953891D01*
X129305000Y-118266109D01*
X129365911Y-118572327D01*
X129485391Y-118860779D01*
X129658850Y-119120379D01*
X129879621Y-119341150D01*
X130139221Y-119514609D01*
X130427673Y-119634089D01*
X130733891Y-119695000D01*
X131046109Y-119695000D01*
X131352327Y-119634089D01*
X131640779Y-119514609D01*
X131900379Y-119341150D01*
X132121150Y-119120379D01*
X132140000Y-119092168D01*
X132158850Y-119120379D01*
X132379621Y-119341150D01*
X132639221Y-119514609D01*
X132927673Y-119634089D01*
X133233891Y-119695000D01*
X133546109Y-119695000D01*
X133852327Y-119634089D01*
X134140779Y-119514609D01*
X134378186Y-119355979D01*
X134409463Y-119414494D01*
X134488815Y-119511185D01*
X134585506Y-119590537D01*
X134695820Y-119649502D01*
X134815518Y-119685812D01*
X134940000Y-119698072D01*
X136840000Y-119698072D01*
X136964482Y-119685812D01*
X137084180Y-119649502D01*
X137194494Y-119590537D01*
X137291185Y-119511185D01*
X137370537Y-119414494D01*
X137429502Y-119304180D01*
X137465812Y-119184482D01*
X137478072Y-119060000D01*
X137478072Y-117160000D01*
X137465812Y-117035518D01*
X137429502Y-116915820D01*
X137370537Y-116805506D01*
X137291185Y-116708815D01*
X137194494Y-116629463D01*
X137084180Y-116570498D01*
X136964482Y-116534188D01*
X136840000Y-116521928D01*
X134940000Y-116521928D01*
X134815518Y-116534188D01*
X134695820Y-116570498D01*
X134585506Y-116629463D01*
X134488815Y-116708815D01*
X134409463Y-116805506D01*
X134378186Y-116864021D01*
X134140779Y-116705391D01*
X134110000Y-116692642D01*
X134110000Y-113226890D01*
X136458524Y-113226890D01*
X136479437Y-113320953D01*
X136594709Y-113589426D01*
X136760143Y-113830252D01*
X136969381Y-114034176D01*
X137214382Y-114193361D01*
X137485731Y-114301690D01*
X137773000Y-114355000D01*
X138273000Y-114355000D01*
X138273000Y-112997000D01*
X138527000Y-112997000D01*
X138527000Y-114355000D01*
X139027000Y-114355000D01*
X139314269Y-114301690D01*
X139585618Y-114193361D01*
X139830619Y-114034176D01*
X140039857Y-113830252D01*
X140205291Y-113589426D01*
X140320563Y-113320953D01*
X140341476Y-113226890D01*
X140220155Y-112997000D01*
X138527000Y-112997000D01*
X138273000Y-112997000D01*
X136579845Y-112997000D01*
X136458524Y-113226890D01*
X134110000Y-113226890D01*
X134110000Y-112513110D01*
X136458524Y-112513110D01*
X136579845Y-112743000D01*
X138273000Y-112743000D01*
X138273000Y-111385000D01*
X138527000Y-111385000D01*
X138527000Y-112743000D01*
X140220155Y-112743000D01*
X140341476Y-112513110D01*
X140320563Y-112419047D01*
X140205291Y-112150574D01*
X140039857Y-111909748D01*
X139830619Y-111705824D01*
X139585618Y-111546639D01*
X139314269Y-111438310D01*
X139027000Y-111385000D01*
X138527000Y-111385000D01*
X138273000Y-111385000D01*
X137773000Y-111385000D01*
X137485731Y-111438310D01*
X137214382Y-111546639D01*
X136969381Y-111705824D01*
X136760143Y-111909748D01*
X136594709Y-112150574D01*
X136479437Y-112419047D01*
X136458524Y-112513110D01*
X134110000Y-112513110D01*
X134110000Y-111729250D01*
X134191975Y-111661975D01*
X134340058Y-111481536D01*
X134450094Y-111275674D01*
X134472120Y-111203062D01*
X134491793Y-111205000D01*
X135158207Y-111205000D01*
X135332300Y-111187853D01*
X135555674Y-111120094D01*
X135761536Y-111010058D01*
X135941975Y-110861975D01*
X136090058Y-110681536D01*
X136200094Y-110475674D01*
X136267853Y-110252300D01*
X136290733Y-110020000D01*
X136267853Y-109787700D01*
X136200094Y-109564326D01*
X136090058Y-109358464D01*
X135976423Y-109220000D01*
X136090058Y-109081536D01*
X136200094Y-108875674D01*
X136267853Y-108652300D01*
X136290733Y-108420000D01*
X136267853Y-108187700D01*
X136200094Y-107964326D01*
X136090058Y-107758464D01*
X135941975Y-107578025D01*
X135761536Y-107429942D01*
X135555674Y-107319906D01*
X135332300Y-107252147D01*
X135158207Y-107235000D01*
X134491793Y-107235000D01*
X134474348Y-107236718D01*
X134405850Y-107067246D01*
X134277725Y-106871881D01*
X134113948Y-106705266D01*
X133920813Y-106573804D01*
X133705742Y-106482546D01*
X133477000Y-106435000D01*
X133202000Y-106435000D01*
X133202000Y-107493000D01*
X133222000Y-107493000D01*
X133222000Y-107747000D01*
X133202000Y-107747000D01*
X133202000Y-107767000D01*
X132948000Y-107767000D01*
X132948000Y-107747000D01*
X131781639Y-107747000D01*
X131656197Y-107929744D01*
X131656601Y-107956147D01*
X131744150Y-108172754D01*
X131872275Y-108368119D01*
X131923438Y-108420169D01*
X131809942Y-108558464D01*
X131699906Y-108764326D01*
X131632147Y-108987700D01*
X131609267Y-109220000D01*
X131632147Y-109452300D01*
X131699906Y-109675674D01*
X131809942Y-109881536D01*
X131923577Y-110020000D01*
X131809942Y-110158464D01*
X131699906Y-110364326D01*
X131632147Y-110587700D01*
X131609267Y-110820000D01*
X131632147Y-111052300D01*
X131699906Y-111275674D01*
X131809942Y-111481536D01*
X131958025Y-111661975D01*
X132138464Y-111810058D01*
X132344326Y-111920094D01*
X132567700Y-111987853D01*
X132590000Y-111990049D01*
X132590001Y-116738279D01*
X132379621Y-116878850D01*
X132158850Y-117099621D01*
X132140000Y-117127832D01*
X132121150Y-117099621D01*
X131900379Y-116878850D01*
X131640779Y-116705391D01*
X131352327Y-116585911D01*
X131046109Y-116525000D01*
X130733891Y-116525000D01*
X130427673Y-116585911D01*
X130139221Y-116705391D01*
X129879621Y-116878850D01*
X129658850Y-117099621D01*
X129485391Y-117359221D01*
X129365911Y-117647673D01*
X129305000Y-117953891D01*
X120115041Y-117953891D01*
X120292639Y-117896885D01*
X120624777Y-117719354D01*
X120798830Y-117388435D01*
X119380000Y-115969605D01*
X117961170Y-117388435D01*
X109880000Y-117388435D01*
X109880000Y-115826898D01*
X117084241Y-115826898D01*
X117135551Y-116274070D01*
X117273115Y-116702639D01*
X117450646Y-117034777D01*
X117781565Y-117208830D01*
X119200395Y-115790000D01*
X119559605Y-115790000D01*
X120978435Y-117208830D01*
X121309354Y-117034777D01*
X121515125Y-116634460D01*
X121638846Y-116201692D01*
X121675759Y-115753102D01*
X121624449Y-115305930D01*
X121486885Y-114877361D01*
X121309354Y-114545223D01*
X120978435Y-114371170D01*
X119559605Y-115790000D01*
X119200395Y-115790000D01*
X117781565Y-114371170D01*
X117450646Y-114545223D01*
X117244875Y-114945540D01*
X117121154Y-115378308D01*
X117084241Y-115826898D01*
X109880000Y-115826898D01*
X109880000Y-114191565D01*
X117961170Y-114191565D01*
X119380000Y-115610395D01*
X120798830Y-114191565D01*
X120624777Y-113860646D01*
X120545220Y-113819752D01*
X121169853Y-113819752D01*
X121259579Y-114079042D01*
X121540671Y-114214935D01*
X121842873Y-114293379D01*
X122154573Y-114311359D01*
X122463791Y-114268184D01*
X122758644Y-114165513D01*
X122920421Y-114079042D01*
X123010147Y-113819752D01*
X122090000Y-112899605D01*
X121169853Y-113819752D01*
X120545220Y-113819752D01*
X120224460Y-113654875D01*
X119791692Y-113531154D01*
X119343102Y-113494241D01*
X118895930Y-113545551D01*
X118467361Y-113683115D01*
X118135223Y-113860646D01*
X117961170Y-114191565D01*
X109880000Y-114191565D01*
X109880000Y-112784573D01*
X120498641Y-112784573D01*
X120541816Y-113093791D01*
X120644487Y-113388644D01*
X120730958Y-113550421D01*
X120990248Y-113640147D01*
X121910395Y-112720000D01*
X122269605Y-112720000D01*
X123189752Y-113640147D01*
X123449042Y-113550421D01*
X123584935Y-113269329D01*
X123663379Y-112967127D01*
X123681359Y-112655427D01*
X123638184Y-112346209D01*
X123535513Y-112051356D01*
X123449042Y-111889579D01*
X123189752Y-111799853D01*
X122269605Y-112720000D01*
X121910395Y-112720000D01*
X120990248Y-111799853D01*
X120730958Y-111889579D01*
X120595065Y-112170671D01*
X120516621Y-112472873D01*
X120498641Y-112784573D01*
X109880000Y-112784573D01*
X109880000Y-105563891D01*
X120505000Y-105563891D01*
X120505000Y-105876109D01*
X120565911Y-106182327D01*
X120685391Y-106470779D01*
X120858850Y-106730379D01*
X121079621Y-106951150D01*
X121107832Y-106970000D01*
X121079621Y-106988850D01*
X120858850Y-107209621D01*
X120685391Y-107469221D01*
X120565911Y-107757673D01*
X120505000Y-108063891D01*
X120505000Y-108376109D01*
X120565911Y-108682327D01*
X120685391Y-108970779D01*
X120851915Y-109220000D01*
X120685391Y-109469221D01*
X120565911Y-109757673D01*
X120505000Y-110063891D01*
X120505000Y-110376109D01*
X120565911Y-110682327D01*
X120685391Y-110970779D01*
X120858850Y-111230379D01*
X121079621Y-111451150D01*
X121200434Y-111531875D01*
X121169853Y-111620248D01*
X122090000Y-112540395D01*
X123010147Y-111620248D01*
X122979566Y-111531875D01*
X123100379Y-111451150D01*
X123321150Y-111230379D01*
X123494609Y-110970779D01*
X123614089Y-110682327D01*
X123675000Y-110376109D01*
X123675000Y-110063891D01*
X123614089Y-109757673D01*
X123494609Y-109469221D01*
X123328085Y-109220000D01*
X123494609Y-108970779D01*
X123614089Y-108682327D01*
X123674387Y-108379189D01*
X127282901Y-111987703D01*
X127155363Y-112115241D01*
X126998320Y-112350273D01*
X126890147Y-112611426D01*
X126835000Y-112888665D01*
X126835000Y-113171335D01*
X126890147Y-113448574D01*
X126998320Y-113709727D01*
X127155363Y-113944759D01*
X127355241Y-114144637D01*
X127590273Y-114301680D01*
X127851426Y-114409853D01*
X128128665Y-114465000D01*
X128411335Y-114465000D01*
X128688574Y-114409853D01*
X128949727Y-114301680D01*
X129184759Y-114144637D01*
X129384637Y-113944759D01*
X129541680Y-113709727D01*
X129649853Y-113448574D01*
X129705000Y-113171335D01*
X129705000Y-112888665D01*
X129649853Y-112611426D01*
X129541680Y-112350273D01*
X129384637Y-112115241D01*
X129184759Y-111915363D01*
X129024654Y-111808384D01*
X129019003Y-111751014D01*
X128975546Y-111607753D01*
X128904974Y-111475724D01*
X128810001Y-111359999D01*
X128781004Y-111336202D01*
X124755058Y-107310256D01*
X131656197Y-107310256D01*
X131781639Y-107493000D01*
X132948000Y-107493000D01*
X132948000Y-106435000D01*
X132673000Y-106435000D01*
X132444258Y-106482546D01*
X132229187Y-106573804D01*
X132036052Y-106705266D01*
X131872275Y-106871881D01*
X131744150Y-107067246D01*
X131656601Y-107283853D01*
X131656197Y-107310256D01*
X124755058Y-107310256D01*
X123616252Y-106171451D01*
X123675000Y-105876109D01*
X123675000Y-105563891D01*
X123616276Y-105268665D01*
X126835000Y-105268665D01*
X126835000Y-105551335D01*
X126890147Y-105828574D01*
X126998320Y-106089727D01*
X127155363Y-106324759D01*
X127355241Y-106524637D01*
X127590273Y-106681680D01*
X127851426Y-106789853D01*
X128128665Y-106845000D01*
X128411335Y-106845000D01*
X128688574Y-106789853D01*
X128949727Y-106681680D01*
X129184759Y-106524637D01*
X129384637Y-106324759D01*
X129541680Y-106089727D01*
X129609129Y-105926890D01*
X136458524Y-105926890D01*
X136479437Y-106020953D01*
X136594709Y-106289426D01*
X136760143Y-106530252D01*
X136969381Y-106734176D01*
X137214382Y-106893361D01*
X137485731Y-107001690D01*
X137773000Y-107055000D01*
X138273000Y-107055000D01*
X138273000Y-105697000D01*
X138527000Y-105697000D01*
X138527000Y-107055000D01*
X139027000Y-107055000D01*
X139314269Y-107001690D01*
X139585618Y-106893361D01*
X139830619Y-106734176D01*
X140039857Y-106530252D01*
X140205291Y-106289426D01*
X140320563Y-106020953D01*
X140341476Y-105926890D01*
X140220155Y-105697000D01*
X138527000Y-105697000D01*
X138273000Y-105697000D01*
X136579845Y-105697000D01*
X136458524Y-105926890D01*
X129609129Y-105926890D01*
X129649853Y-105828574D01*
X129705000Y-105551335D01*
X129705000Y-105268665D01*
X129693950Y-105213110D01*
X136458524Y-105213110D01*
X136579845Y-105443000D01*
X138273000Y-105443000D01*
X138273000Y-104085000D01*
X138527000Y-104085000D01*
X138527000Y-105443000D01*
X140220155Y-105443000D01*
X140341476Y-105213110D01*
X140320563Y-105119047D01*
X140205291Y-104850574D01*
X140039857Y-104609748D01*
X139830619Y-104405824D01*
X139585618Y-104246639D01*
X139314269Y-104138310D01*
X139027000Y-104085000D01*
X138527000Y-104085000D01*
X138273000Y-104085000D01*
X137773000Y-104085000D01*
X137485731Y-104138310D01*
X137214382Y-104246639D01*
X136969381Y-104405824D01*
X136760143Y-104609748D01*
X136594709Y-104850574D01*
X136479437Y-105119047D01*
X136458524Y-105213110D01*
X129693950Y-105213110D01*
X129649853Y-104991426D01*
X129541680Y-104730273D01*
X129384637Y-104495241D01*
X129184759Y-104295363D01*
X128949727Y-104138320D01*
X128688574Y-104030147D01*
X128411335Y-103975000D01*
X128128665Y-103975000D01*
X127851426Y-104030147D01*
X127590273Y-104138320D01*
X127355241Y-104295363D01*
X127155363Y-104495241D01*
X126998320Y-104730273D01*
X126890147Y-104991426D01*
X126835000Y-105268665D01*
X123616276Y-105268665D01*
X123614089Y-105257673D01*
X123494609Y-104969221D01*
X123321150Y-104709621D01*
X123100379Y-104488850D01*
X122840779Y-104315391D01*
X122552327Y-104195911D01*
X122246109Y-104135000D01*
X121933891Y-104135000D01*
X121627673Y-104195911D01*
X121339221Y-104315391D01*
X121079621Y-104488850D01*
X120858850Y-104709621D01*
X120685391Y-104969221D01*
X120565911Y-105257673D01*
X120505000Y-105563891D01*
X109880000Y-105563891D01*
X109880000Y-104248435D01*
X117961170Y-104248435D01*
X118135223Y-104579354D01*
X118535540Y-104785125D01*
X118968308Y-104908846D01*
X119416898Y-104945759D01*
X119864070Y-104894449D01*
X120292639Y-104756885D01*
X120624777Y-104579354D01*
X120798830Y-104248435D01*
X119380000Y-102829605D01*
X117961170Y-104248435D01*
X109880000Y-104248435D01*
X109880000Y-102686898D01*
X117084241Y-102686898D01*
X117135551Y-103134070D01*
X117273115Y-103562639D01*
X117450646Y-103894777D01*
X117781565Y-104068830D01*
X119200395Y-102650000D01*
X119559605Y-102650000D01*
X120978435Y-104068830D01*
X121309354Y-103894777D01*
X121515125Y-103494460D01*
X121638846Y-103061692D01*
X121675759Y-102613102D01*
X121624449Y-102165930D01*
X121486885Y-101737361D01*
X121309354Y-101405223D01*
X120978435Y-101231170D01*
X119559605Y-102650000D01*
X119200395Y-102650000D01*
X117781565Y-101231170D01*
X117450646Y-101405223D01*
X117244875Y-101805540D01*
X117121154Y-102238308D01*
X117084241Y-102686898D01*
X109880000Y-102686898D01*
X109880000Y-101051565D01*
X117961170Y-101051565D01*
X119380000Y-102470395D01*
X120798830Y-101051565D01*
X120624777Y-100720646D01*
X120224460Y-100514875D01*
X119791692Y-100391154D01*
X119343102Y-100354241D01*
X118895930Y-100405551D01*
X118467361Y-100543115D01*
X118135223Y-100720646D01*
X117961170Y-101051565D01*
X109880000Y-101051565D01*
X109880000Y-99330000D01*
X126631928Y-99330000D01*
X126631928Y-101330000D01*
X126644188Y-101454482D01*
X126680498Y-101574180D01*
X126739463Y-101684494D01*
X126818815Y-101781185D01*
X126915506Y-101860537D01*
X127025820Y-101919502D01*
X127145518Y-101955812D01*
X127270000Y-101968072D01*
X129270000Y-101968072D01*
X129394482Y-101955812D01*
X129514180Y-101919502D01*
X129624494Y-101860537D01*
X129721185Y-101781185D01*
X129800537Y-101684494D01*
X129859502Y-101574180D01*
X129875037Y-101522967D01*
X129949956Y-101729814D01*
X130239571Y-101870704D01*
X130551108Y-101952384D01*
X130872595Y-101971718D01*
X131191675Y-101927961D01*
X131496088Y-101822795D01*
X131670044Y-101729814D01*
X131765808Y-101465413D01*
X130810000Y-100509605D01*
X130795858Y-100523748D01*
X130616253Y-100344143D01*
X130630395Y-100330000D01*
X130989605Y-100330000D01*
X131945413Y-101285808D01*
X132209814Y-101190044D01*
X132350704Y-100900429D01*
X132432384Y-100588892D01*
X132451718Y-100267405D01*
X132407961Y-99948325D01*
X132302795Y-99643912D01*
X132209814Y-99469956D01*
X131945413Y-99374192D01*
X130989605Y-100330000D01*
X130630395Y-100330000D01*
X130616253Y-100315858D01*
X130795858Y-100136253D01*
X130810000Y-100150395D01*
X131765808Y-99194587D01*
X131670044Y-98930186D01*
X131380429Y-98789296D01*
X131068892Y-98707616D01*
X130747405Y-98688282D01*
X130428325Y-98732039D01*
X130123912Y-98837205D01*
X129949956Y-98930186D01*
X129875037Y-99137033D01*
X129859502Y-99085820D01*
X129800537Y-98975506D01*
X129721185Y-98878815D01*
X129624494Y-98799463D01*
X129514180Y-98740498D01*
X129394482Y-98704188D01*
X129270000Y-98691928D01*
X127270000Y-98691928D01*
X127145518Y-98704188D01*
X127025820Y-98740498D01*
X126915506Y-98799463D01*
X126818815Y-98878815D01*
X126739463Y-98975506D01*
X126680498Y-99085820D01*
X126644188Y-99205518D01*
X126631928Y-99330000D01*
X109880000Y-99330000D01*
X109880000Y-97180000D01*
X141580000Y-97180000D01*
X141580001Y-121260000D01*
G37*
%TD.AperFunction*%
%TD*%
M02*
