%TF.GenerationSoftware,KiCad,Pcbnew,(5.1.9)-1*%
%TF.CreationDate,2021-04-25T09:03:39-04:00*%
%TF.ProjectId,PowerStripper,506f7765-7253-4747-9269-707065722e6b,v01*%
%TF.SameCoordinates,Original*%
%TF.FileFunction,Copper,L2,Inr*%
%TF.FilePolarity,Positive*%
%FSLAX46Y46*%
G04 Gerber Fmt 4.6, Leading zero omitted, Abs format (unit mm)*
G04 Created by KiCad (PCBNEW (5.1.9)-1) date 2021-04-25 09:03:39*
%MOMM*%
%LPD*%
G01*
G04 APERTURE LIST*
%TA.AperFunction,ComponentPad*%
%ADD10O,1.650000X1.100000*%
%TD*%
%TA.AperFunction,ComponentPad*%
%ADD11O,2.700000X1.700000*%
%TD*%
%TA.AperFunction,ComponentPad*%
%ADD12C,3.300000*%
%TD*%
%TA.AperFunction,ComponentPad*%
%ADD13C,1.900000*%
%TD*%
%TA.AperFunction,ComponentPad*%
%ADD14C,1.800000*%
%TD*%
%TA.AperFunction,ComponentPad*%
%ADD15R,2.000000X2.000000*%
%TD*%
%TA.AperFunction,ComponentPad*%
%ADD16C,2.000000*%
%TD*%
%TA.AperFunction,ComponentPad*%
%ADD17O,1.600000X1.600000*%
%TD*%
%TA.AperFunction,ComponentPad*%
%ADD18C,1.600000*%
%TD*%
%TA.AperFunction,ComponentPad*%
%ADD19R,1.900000X1.900000*%
%TD*%
%TA.AperFunction,Conductor*%
%ADD20C,0.254000*%
%TD*%
%TA.AperFunction,Conductor*%
%ADD21C,0.100000*%
%TD*%
G04 APERTURE END LIST*
D10*
%TO.N,D+*%
%TO.C,J1*%
X125378800Y-112217200D03*
%TO.N,Net-(J1-Pad1)*%
X125378800Y-113817200D03*
%TO.N,GND*%
X125378800Y-110617200D03*
%TO.N,D-*%
X127128800Y-113017200D03*
%TO.N,Net-(J1-Pad4)*%
X127128800Y-111417200D03*
D11*
%TO.N,GND*%
X130703800Y-115867200D03*
X130703800Y-108567200D03*
%TD*%
D12*
%TO.N,GND*%
%TO.C,J2*%
X103174800Y-103107200D03*
X103174800Y-116247200D03*
D13*
%TO.N,Net-(J2-Pad1)*%
X105884800Y-106177200D03*
D14*
%TO.N,D-*%
X105884800Y-108677200D03*
%TO.N,D+*%
X105884800Y-110677200D03*
D13*
%TO.N,GND*%
X105884800Y-113177200D03*
%TD*%
D15*
%TO.N,Net-(D1-Pad1)*%
%TO.C,D1*%
X125552200Y-99872800D03*
D16*
%TO.N,GND*%
X128092200Y-99872800D03*
%TD*%
D17*
%TO.N,Net-(J2-Pad1)*%
%TO.C,R1*%
X118719600Y-103911400D03*
D18*
%TO.N,Net-(D1-Pad1)*%
X118719600Y-96291400D03*
%TD*%
D19*
%TO.N,Net-(J2-Pad1)*%
%TO.C,S1*%
X111150400Y-102641400D03*
D13*
%TO.N,Net-(J1-Pad1)*%
X111150400Y-100141400D03*
%TO.N,Net-(S1-Pad3)*%
X111150400Y-97641400D03*
%TD*%
D20*
%TO.N,GND*%
X134087000Y-120091600D02*
X93192200Y-120091600D01*
X93192200Y-117845635D01*
X101755970Y-117845635D01*
X101930023Y-118176554D01*
X102330340Y-118382325D01*
X102763108Y-118506046D01*
X103211698Y-118542959D01*
X103658870Y-118491649D01*
X104087439Y-118354085D01*
X104419577Y-118176554D01*
X104593630Y-117845635D01*
X103174800Y-116426805D01*
X101755970Y-117845635D01*
X93192200Y-117845635D01*
X93192200Y-116284098D01*
X100879041Y-116284098D01*
X100930351Y-116731270D01*
X101067915Y-117159839D01*
X101245446Y-117491977D01*
X101576365Y-117666030D01*
X102995195Y-116247200D01*
X103354405Y-116247200D01*
X104773235Y-117666030D01*
X105104154Y-117491977D01*
X105309925Y-117091660D01*
X105433646Y-116658892D01*
X105469424Y-116224090D01*
X128762324Y-116224090D01*
X128783237Y-116318153D01*
X128898509Y-116586626D01*
X129063943Y-116827452D01*
X129273181Y-117031376D01*
X129518182Y-117190561D01*
X129789531Y-117298890D01*
X130076800Y-117352200D01*
X130576800Y-117352200D01*
X130576800Y-115994200D01*
X130830800Y-115994200D01*
X130830800Y-117352200D01*
X131330800Y-117352200D01*
X131618069Y-117298890D01*
X131889418Y-117190561D01*
X132134419Y-117031376D01*
X132343657Y-116827452D01*
X132509091Y-116586626D01*
X132624363Y-116318153D01*
X132645276Y-116224090D01*
X132523955Y-115994200D01*
X130830800Y-115994200D01*
X130576800Y-115994200D01*
X128883645Y-115994200D01*
X128762324Y-116224090D01*
X105469424Y-116224090D01*
X105470559Y-116210302D01*
X105419249Y-115763130D01*
X105338098Y-115510310D01*
X128762324Y-115510310D01*
X128883645Y-115740200D01*
X130576800Y-115740200D01*
X130576800Y-114382200D01*
X130830800Y-114382200D01*
X130830800Y-115740200D01*
X132523955Y-115740200D01*
X132645276Y-115510310D01*
X132624363Y-115416247D01*
X132509091Y-115147774D01*
X132343657Y-114906948D01*
X132134419Y-114703024D01*
X131889418Y-114543839D01*
X131618069Y-114435510D01*
X131330800Y-114382200D01*
X130830800Y-114382200D01*
X130576800Y-114382200D01*
X130076800Y-114382200D01*
X129789531Y-114435510D01*
X129518182Y-114543839D01*
X129273181Y-114703024D01*
X129063943Y-114906948D01*
X128898509Y-115147774D01*
X128783237Y-115416247D01*
X128762324Y-115510310D01*
X105338098Y-115510310D01*
X105281685Y-115334561D01*
X105104154Y-115002423D01*
X104773235Y-114828370D01*
X103354405Y-116247200D01*
X102995195Y-116247200D01*
X101576365Y-114828370D01*
X101245446Y-115002423D01*
X101039675Y-115402740D01*
X100915954Y-115835508D01*
X100879041Y-116284098D01*
X93192200Y-116284098D01*
X93192200Y-114648765D01*
X101755970Y-114648765D01*
X103174800Y-116067595D01*
X104593630Y-114648765D01*
X104419577Y-114317846D01*
X104340020Y-114276952D01*
X104964653Y-114276952D01*
X105054379Y-114536242D01*
X105335471Y-114672135D01*
X105637673Y-114750579D01*
X105949373Y-114768559D01*
X106258591Y-114725384D01*
X106553444Y-114622713D01*
X106715221Y-114536242D01*
X106804947Y-114276952D01*
X105884800Y-113356805D01*
X104964653Y-114276952D01*
X104340020Y-114276952D01*
X104019260Y-114112075D01*
X103586492Y-113988354D01*
X103137902Y-113951441D01*
X102690730Y-114002751D01*
X102262161Y-114140315D01*
X101930023Y-114317846D01*
X101755970Y-114648765D01*
X93192200Y-114648765D01*
X93192200Y-113241773D01*
X104293441Y-113241773D01*
X104336616Y-113550991D01*
X104439287Y-113845844D01*
X104525758Y-114007621D01*
X104785048Y-114097347D01*
X105705195Y-113177200D01*
X106064405Y-113177200D01*
X106984552Y-114097347D01*
X107243842Y-114007621D01*
X107379735Y-113726529D01*
X107458179Y-113424327D01*
X107476159Y-113112627D01*
X107432984Y-112803409D01*
X107330313Y-112508556D01*
X107243842Y-112346779D01*
X106984552Y-112257053D01*
X106064405Y-113177200D01*
X105705195Y-113177200D01*
X104785048Y-112257053D01*
X104525758Y-112346779D01*
X104389865Y-112627871D01*
X104311421Y-112930073D01*
X104293441Y-113241773D01*
X93192200Y-113241773D01*
X93192200Y-106021091D01*
X104299800Y-106021091D01*
X104299800Y-106333309D01*
X104360711Y-106639527D01*
X104480191Y-106927979D01*
X104653650Y-107187579D01*
X104874421Y-107408350D01*
X104947632Y-107457268D01*
X104906295Y-107484888D01*
X104692488Y-107698695D01*
X104524501Y-107950105D01*
X104408789Y-108229457D01*
X104349800Y-108526016D01*
X104349800Y-108828384D01*
X104408789Y-109124943D01*
X104524501Y-109404295D01*
X104692488Y-109655705D01*
X104713983Y-109677200D01*
X104692488Y-109698695D01*
X104524501Y-109950105D01*
X104408789Y-110229457D01*
X104349800Y-110526016D01*
X104349800Y-110828384D01*
X104408789Y-111124943D01*
X104524501Y-111404295D01*
X104692488Y-111655705D01*
X104906295Y-111869512D01*
X105012136Y-111940233D01*
X104964653Y-112077448D01*
X105884800Y-112997595D01*
X106665195Y-112217200D01*
X123913067Y-112217200D01*
X123935947Y-112449500D01*
X124003706Y-112672874D01*
X124113742Y-112878736D01*
X124227377Y-113017200D01*
X124113742Y-113155664D01*
X124003706Y-113361526D01*
X123935947Y-113584900D01*
X123913067Y-113817200D01*
X123935947Y-114049500D01*
X124003706Y-114272874D01*
X124113742Y-114478736D01*
X124261825Y-114659175D01*
X124442264Y-114807258D01*
X124648126Y-114917294D01*
X124871500Y-114985053D01*
X125045593Y-115002200D01*
X125712007Y-115002200D01*
X125886100Y-114985053D01*
X126109474Y-114917294D01*
X126315336Y-114807258D01*
X126495775Y-114659175D01*
X126643858Y-114478736D01*
X126753894Y-114272874D01*
X126775920Y-114200262D01*
X126795593Y-114202200D01*
X127462007Y-114202200D01*
X127636100Y-114185053D01*
X127859474Y-114117294D01*
X128065336Y-114007258D01*
X128245775Y-113859175D01*
X128393858Y-113678736D01*
X128503894Y-113472874D01*
X128571653Y-113249500D01*
X128594533Y-113017200D01*
X128571653Y-112784900D01*
X128503894Y-112561526D01*
X128393858Y-112355664D01*
X128280223Y-112217200D01*
X128393858Y-112078736D01*
X128503894Y-111872874D01*
X128571653Y-111649500D01*
X128594533Y-111417200D01*
X128571653Y-111184900D01*
X128503894Y-110961526D01*
X128393858Y-110755664D01*
X128245775Y-110575225D01*
X128065336Y-110427142D01*
X127859474Y-110317106D01*
X127636100Y-110249347D01*
X127462007Y-110232200D01*
X126795593Y-110232200D01*
X126778148Y-110233918D01*
X126709650Y-110064446D01*
X126581525Y-109869081D01*
X126417748Y-109702466D01*
X126224613Y-109571004D01*
X126009542Y-109479746D01*
X125780800Y-109432200D01*
X125505800Y-109432200D01*
X125505800Y-110490200D01*
X125525800Y-110490200D01*
X125525800Y-110744200D01*
X125505800Y-110744200D01*
X125505800Y-110764200D01*
X125251800Y-110764200D01*
X125251800Y-110744200D01*
X124085439Y-110744200D01*
X123959997Y-110926944D01*
X123960401Y-110953347D01*
X124047950Y-111169954D01*
X124176075Y-111365319D01*
X124227238Y-111417369D01*
X124113742Y-111555664D01*
X124003706Y-111761526D01*
X123935947Y-111984900D01*
X123913067Y-112217200D01*
X106665195Y-112217200D01*
X106804947Y-112077448D01*
X106757464Y-111940233D01*
X106863305Y-111869512D01*
X107077112Y-111655705D01*
X107245099Y-111404295D01*
X107360811Y-111124943D01*
X107419800Y-110828384D01*
X107419800Y-110526016D01*
X107376326Y-110307456D01*
X123959997Y-110307456D01*
X124085439Y-110490200D01*
X125251800Y-110490200D01*
X125251800Y-109432200D01*
X124976800Y-109432200D01*
X124748058Y-109479746D01*
X124532987Y-109571004D01*
X124339852Y-109702466D01*
X124176075Y-109869081D01*
X124047950Y-110064446D01*
X123960401Y-110281053D01*
X123959997Y-110307456D01*
X107376326Y-110307456D01*
X107360811Y-110229457D01*
X107245099Y-109950105D01*
X107077112Y-109698695D01*
X107055617Y-109677200D01*
X107077112Y-109655705D01*
X107245099Y-109404295D01*
X107360811Y-109124943D01*
X107400762Y-108924090D01*
X128762324Y-108924090D01*
X128783237Y-109018153D01*
X128898509Y-109286626D01*
X129063943Y-109527452D01*
X129273181Y-109731376D01*
X129518182Y-109890561D01*
X129789531Y-109998890D01*
X130076800Y-110052200D01*
X130576800Y-110052200D01*
X130576800Y-108694200D01*
X130830800Y-108694200D01*
X130830800Y-110052200D01*
X131330800Y-110052200D01*
X131618069Y-109998890D01*
X131889418Y-109890561D01*
X132134419Y-109731376D01*
X132343657Y-109527452D01*
X132509091Y-109286626D01*
X132624363Y-109018153D01*
X132645276Y-108924090D01*
X132523955Y-108694200D01*
X130830800Y-108694200D01*
X130576800Y-108694200D01*
X128883645Y-108694200D01*
X128762324Y-108924090D01*
X107400762Y-108924090D01*
X107419800Y-108828384D01*
X107419800Y-108526016D01*
X107360811Y-108229457D01*
X107352881Y-108210310D01*
X128762324Y-108210310D01*
X128883645Y-108440200D01*
X130576800Y-108440200D01*
X130576800Y-107082200D01*
X130830800Y-107082200D01*
X130830800Y-108440200D01*
X132523955Y-108440200D01*
X132645276Y-108210310D01*
X132624363Y-108116247D01*
X132509091Y-107847774D01*
X132343657Y-107606948D01*
X132134419Y-107403024D01*
X131889418Y-107243839D01*
X131618069Y-107135510D01*
X131330800Y-107082200D01*
X130830800Y-107082200D01*
X130576800Y-107082200D01*
X130076800Y-107082200D01*
X129789531Y-107135510D01*
X129518182Y-107243839D01*
X129273181Y-107403024D01*
X129063943Y-107606948D01*
X128898509Y-107847774D01*
X128783237Y-108116247D01*
X128762324Y-108210310D01*
X107352881Y-108210310D01*
X107245099Y-107950105D01*
X107077112Y-107698695D01*
X106863305Y-107484888D01*
X106821968Y-107457268D01*
X106895179Y-107408350D01*
X107115950Y-107187579D01*
X107289409Y-106927979D01*
X107408889Y-106639527D01*
X107469800Y-106333309D01*
X107469800Y-106021091D01*
X107408889Y-105714873D01*
X107289409Y-105426421D01*
X107115950Y-105166821D01*
X106895179Y-104946050D01*
X106635579Y-104772591D01*
X106347127Y-104653111D01*
X106040909Y-104592200D01*
X105728691Y-104592200D01*
X105422473Y-104653111D01*
X105134021Y-104772591D01*
X104874421Y-104946050D01*
X104653650Y-105166821D01*
X104480191Y-105426421D01*
X104360711Y-105714873D01*
X104299800Y-106021091D01*
X93192200Y-106021091D01*
X93192200Y-104705635D01*
X101755970Y-104705635D01*
X101930023Y-105036554D01*
X102330340Y-105242325D01*
X102763108Y-105366046D01*
X103211698Y-105402959D01*
X103658870Y-105351649D01*
X104087439Y-105214085D01*
X104419577Y-105036554D01*
X104593630Y-104705635D01*
X103174800Y-103286805D01*
X101755970Y-104705635D01*
X93192200Y-104705635D01*
X93192200Y-103144098D01*
X100879041Y-103144098D01*
X100930351Y-103591270D01*
X101067915Y-104019839D01*
X101245446Y-104351977D01*
X101576365Y-104526030D01*
X102995195Y-103107200D01*
X103354405Y-103107200D01*
X104773235Y-104526030D01*
X105104154Y-104351977D01*
X105309925Y-103951660D01*
X105433646Y-103518892D01*
X105470559Y-103070302D01*
X105419249Y-102623130D01*
X105281685Y-102194561D01*
X105104154Y-101862423D01*
X104778996Y-101691400D01*
X109562328Y-101691400D01*
X109562328Y-103591400D01*
X109574588Y-103715882D01*
X109610898Y-103835580D01*
X109669863Y-103945894D01*
X109749215Y-104042585D01*
X109845906Y-104121937D01*
X109956220Y-104180902D01*
X110075918Y-104217212D01*
X110200400Y-104229472D01*
X112100400Y-104229472D01*
X112224882Y-104217212D01*
X112344580Y-104180902D01*
X112454894Y-104121937D01*
X112551585Y-104042585D01*
X112630937Y-103945894D01*
X112689902Y-103835580D01*
X112709775Y-103770065D01*
X117284600Y-103770065D01*
X117284600Y-104052735D01*
X117339747Y-104329974D01*
X117447920Y-104591127D01*
X117604963Y-104826159D01*
X117804841Y-105026037D01*
X118039873Y-105183080D01*
X118301026Y-105291253D01*
X118578265Y-105346400D01*
X118860935Y-105346400D01*
X119138174Y-105291253D01*
X119399327Y-105183080D01*
X119634359Y-105026037D01*
X119834237Y-104826159D01*
X119991280Y-104591127D01*
X120099453Y-104329974D01*
X120154600Y-104052735D01*
X120154600Y-103770065D01*
X120099453Y-103492826D01*
X119991280Y-103231673D01*
X119834237Y-102996641D01*
X119634359Y-102796763D01*
X119399327Y-102639720D01*
X119138174Y-102531547D01*
X118860935Y-102476400D01*
X118578265Y-102476400D01*
X118301026Y-102531547D01*
X118039873Y-102639720D01*
X117804841Y-102796763D01*
X117604963Y-102996641D01*
X117447920Y-103231673D01*
X117339747Y-103492826D01*
X117284600Y-103770065D01*
X112709775Y-103770065D01*
X112726212Y-103715882D01*
X112738472Y-103591400D01*
X112738472Y-101691400D01*
X112726212Y-101566918D01*
X112689902Y-101447220D01*
X112630937Y-101336906D01*
X112551585Y-101240215D01*
X112454894Y-101160863D01*
X112396379Y-101129586D01*
X112555009Y-100892179D01*
X112674489Y-100603727D01*
X112735400Y-100297509D01*
X112735400Y-99985291D01*
X112674489Y-99679073D01*
X112555009Y-99390621D01*
X112381550Y-99131021D01*
X112160779Y-98910250D01*
X112132568Y-98891400D01*
X112160404Y-98872800D01*
X123914128Y-98872800D01*
X123914128Y-100872800D01*
X123926388Y-100997282D01*
X123962698Y-101116980D01*
X124021663Y-101227294D01*
X124101015Y-101323985D01*
X124197706Y-101403337D01*
X124308020Y-101462302D01*
X124427718Y-101498612D01*
X124552200Y-101510872D01*
X126552200Y-101510872D01*
X126676682Y-101498612D01*
X126796380Y-101462302D01*
X126906694Y-101403337D01*
X127003385Y-101323985D01*
X127082737Y-101227294D01*
X127141702Y-101116980D01*
X127157237Y-101065767D01*
X127232156Y-101272614D01*
X127521771Y-101413504D01*
X127833308Y-101495184D01*
X128154795Y-101514518D01*
X128473875Y-101470761D01*
X128778288Y-101365595D01*
X128952244Y-101272614D01*
X129048008Y-101008213D01*
X128092200Y-100052405D01*
X128078058Y-100066548D01*
X127898453Y-99886943D01*
X127912595Y-99872800D01*
X128271805Y-99872800D01*
X129227613Y-100828608D01*
X129492014Y-100732844D01*
X129632904Y-100443229D01*
X129714584Y-100131692D01*
X129733918Y-99810205D01*
X129690161Y-99491125D01*
X129584995Y-99186712D01*
X129492014Y-99012756D01*
X129227613Y-98916992D01*
X128271805Y-99872800D01*
X127912595Y-99872800D01*
X127898453Y-99858658D01*
X128078058Y-99679053D01*
X128092200Y-99693195D01*
X129048008Y-98737387D01*
X128952244Y-98472986D01*
X128662629Y-98332096D01*
X128351092Y-98250416D01*
X128029605Y-98231082D01*
X127710525Y-98274839D01*
X127406112Y-98380005D01*
X127232156Y-98472986D01*
X127157237Y-98679833D01*
X127141702Y-98628620D01*
X127082737Y-98518306D01*
X127003385Y-98421615D01*
X126906694Y-98342263D01*
X126796380Y-98283298D01*
X126676682Y-98246988D01*
X126552200Y-98234728D01*
X124552200Y-98234728D01*
X124427718Y-98246988D01*
X124308020Y-98283298D01*
X124197706Y-98342263D01*
X124101015Y-98421615D01*
X124021663Y-98518306D01*
X123962698Y-98628620D01*
X123926388Y-98748318D01*
X123914128Y-98872800D01*
X112160404Y-98872800D01*
X112160779Y-98872550D01*
X112381550Y-98651779D01*
X112555009Y-98392179D01*
X112674489Y-98103727D01*
X112735400Y-97797509D01*
X112735400Y-97485291D01*
X112674489Y-97179073D01*
X112555009Y-96890621D01*
X112381550Y-96631021D01*
X112160779Y-96410250D01*
X111901179Y-96236791D01*
X111691803Y-96150065D01*
X117284600Y-96150065D01*
X117284600Y-96432735D01*
X117339747Y-96709974D01*
X117447920Y-96971127D01*
X117604963Y-97206159D01*
X117804841Y-97406037D01*
X118039873Y-97563080D01*
X118301026Y-97671253D01*
X118578265Y-97726400D01*
X118860935Y-97726400D01*
X119138174Y-97671253D01*
X119399327Y-97563080D01*
X119634359Y-97406037D01*
X119834237Y-97206159D01*
X119991280Y-96971127D01*
X120099453Y-96709974D01*
X120154600Y-96432735D01*
X120154600Y-96150065D01*
X120099453Y-95872826D01*
X119991280Y-95611673D01*
X119834237Y-95376641D01*
X119634359Y-95176763D01*
X119399327Y-95019720D01*
X119138174Y-94911547D01*
X118860935Y-94856400D01*
X118578265Y-94856400D01*
X118301026Y-94911547D01*
X118039873Y-95019720D01*
X117804841Y-95176763D01*
X117604963Y-95376641D01*
X117447920Y-95611673D01*
X117339747Y-95872826D01*
X117284600Y-96150065D01*
X111691803Y-96150065D01*
X111612727Y-96117311D01*
X111306509Y-96056400D01*
X110994291Y-96056400D01*
X110688073Y-96117311D01*
X110399621Y-96236791D01*
X110140021Y-96410250D01*
X109919250Y-96631021D01*
X109745791Y-96890621D01*
X109626311Y-97179073D01*
X109565400Y-97485291D01*
X109565400Y-97797509D01*
X109626311Y-98103727D01*
X109745791Y-98392179D01*
X109919250Y-98651779D01*
X110140021Y-98872550D01*
X110168232Y-98891400D01*
X110140021Y-98910250D01*
X109919250Y-99131021D01*
X109745791Y-99390621D01*
X109626311Y-99679073D01*
X109565400Y-99985291D01*
X109565400Y-100297509D01*
X109626311Y-100603727D01*
X109745791Y-100892179D01*
X109904421Y-101129586D01*
X109845906Y-101160863D01*
X109749215Y-101240215D01*
X109669863Y-101336906D01*
X109610898Y-101447220D01*
X109574588Y-101566918D01*
X109562328Y-101691400D01*
X104778996Y-101691400D01*
X104773235Y-101688370D01*
X103354405Y-103107200D01*
X102995195Y-103107200D01*
X101576365Y-101688370D01*
X101245446Y-101862423D01*
X101039675Y-102262740D01*
X100915954Y-102695508D01*
X100879041Y-103144098D01*
X93192200Y-103144098D01*
X93192200Y-101508765D01*
X101755970Y-101508765D01*
X103174800Y-102927595D01*
X104593630Y-101508765D01*
X104419577Y-101177846D01*
X104019260Y-100972075D01*
X103586492Y-100848354D01*
X103137902Y-100811441D01*
X102690730Y-100862751D01*
X102262161Y-101000315D01*
X101930023Y-101177846D01*
X101755970Y-101508765D01*
X93192200Y-101508765D01*
X93192200Y-94132000D01*
X134087001Y-94132000D01*
X134087000Y-120091600D01*
%TA.AperFunction,Conductor*%
D21*
G36*
X134087000Y-120091600D02*
G01*
X93192200Y-120091600D01*
X93192200Y-117845635D01*
X101755970Y-117845635D01*
X101930023Y-118176554D01*
X102330340Y-118382325D01*
X102763108Y-118506046D01*
X103211698Y-118542959D01*
X103658870Y-118491649D01*
X104087439Y-118354085D01*
X104419577Y-118176554D01*
X104593630Y-117845635D01*
X103174800Y-116426805D01*
X101755970Y-117845635D01*
X93192200Y-117845635D01*
X93192200Y-116284098D01*
X100879041Y-116284098D01*
X100930351Y-116731270D01*
X101067915Y-117159839D01*
X101245446Y-117491977D01*
X101576365Y-117666030D01*
X102995195Y-116247200D01*
X103354405Y-116247200D01*
X104773235Y-117666030D01*
X105104154Y-117491977D01*
X105309925Y-117091660D01*
X105433646Y-116658892D01*
X105469424Y-116224090D01*
X128762324Y-116224090D01*
X128783237Y-116318153D01*
X128898509Y-116586626D01*
X129063943Y-116827452D01*
X129273181Y-117031376D01*
X129518182Y-117190561D01*
X129789531Y-117298890D01*
X130076800Y-117352200D01*
X130576800Y-117352200D01*
X130576800Y-115994200D01*
X130830800Y-115994200D01*
X130830800Y-117352200D01*
X131330800Y-117352200D01*
X131618069Y-117298890D01*
X131889418Y-117190561D01*
X132134419Y-117031376D01*
X132343657Y-116827452D01*
X132509091Y-116586626D01*
X132624363Y-116318153D01*
X132645276Y-116224090D01*
X132523955Y-115994200D01*
X130830800Y-115994200D01*
X130576800Y-115994200D01*
X128883645Y-115994200D01*
X128762324Y-116224090D01*
X105469424Y-116224090D01*
X105470559Y-116210302D01*
X105419249Y-115763130D01*
X105338098Y-115510310D01*
X128762324Y-115510310D01*
X128883645Y-115740200D01*
X130576800Y-115740200D01*
X130576800Y-114382200D01*
X130830800Y-114382200D01*
X130830800Y-115740200D01*
X132523955Y-115740200D01*
X132645276Y-115510310D01*
X132624363Y-115416247D01*
X132509091Y-115147774D01*
X132343657Y-114906948D01*
X132134419Y-114703024D01*
X131889418Y-114543839D01*
X131618069Y-114435510D01*
X131330800Y-114382200D01*
X130830800Y-114382200D01*
X130576800Y-114382200D01*
X130076800Y-114382200D01*
X129789531Y-114435510D01*
X129518182Y-114543839D01*
X129273181Y-114703024D01*
X129063943Y-114906948D01*
X128898509Y-115147774D01*
X128783237Y-115416247D01*
X128762324Y-115510310D01*
X105338098Y-115510310D01*
X105281685Y-115334561D01*
X105104154Y-115002423D01*
X104773235Y-114828370D01*
X103354405Y-116247200D01*
X102995195Y-116247200D01*
X101576365Y-114828370D01*
X101245446Y-115002423D01*
X101039675Y-115402740D01*
X100915954Y-115835508D01*
X100879041Y-116284098D01*
X93192200Y-116284098D01*
X93192200Y-114648765D01*
X101755970Y-114648765D01*
X103174800Y-116067595D01*
X104593630Y-114648765D01*
X104419577Y-114317846D01*
X104340020Y-114276952D01*
X104964653Y-114276952D01*
X105054379Y-114536242D01*
X105335471Y-114672135D01*
X105637673Y-114750579D01*
X105949373Y-114768559D01*
X106258591Y-114725384D01*
X106553444Y-114622713D01*
X106715221Y-114536242D01*
X106804947Y-114276952D01*
X105884800Y-113356805D01*
X104964653Y-114276952D01*
X104340020Y-114276952D01*
X104019260Y-114112075D01*
X103586492Y-113988354D01*
X103137902Y-113951441D01*
X102690730Y-114002751D01*
X102262161Y-114140315D01*
X101930023Y-114317846D01*
X101755970Y-114648765D01*
X93192200Y-114648765D01*
X93192200Y-113241773D01*
X104293441Y-113241773D01*
X104336616Y-113550991D01*
X104439287Y-113845844D01*
X104525758Y-114007621D01*
X104785048Y-114097347D01*
X105705195Y-113177200D01*
X106064405Y-113177200D01*
X106984552Y-114097347D01*
X107243842Y-114007621D01*
X107379735Y-113726529D01*
X107458179Y-113424327D01*
X107476159Y-113112627D01*
X107432984Y-112803409D01*
X107330313Y-112508556D01*
X107243842Y-112346779D01*
X106984552Y-112257053D01*
X106064405Y-113177200D01*
X105705195Y-113177200D01*
X104785048Y-112257053D01*
X104525758Y-112346779D01*
X104389865Y-112627871D01*
X104311421Y-112930073D01*
X104293441Y-113241773D01*
X93192200Y-113241773D01*
X93192200Y-106021091D01*
X104299800Y-106021091D01*
X104299800Y-106333309D01*
X104360711Y-106639527D01*
X104480191Y-106927979D01*
X104653650Y-107187579D01*
X104874421Y-107408350D01*
X104947632Y-107457268D01*
X104906295Y-107484888D01*
X104692488Y-107698695D01*
X104524501Y-107950105D01*
X104408789Y-108229457D01*
X104349800Y-108526016D01*
X104349800Y-108828384D01*
X104408789Y-109124943D01*
X104524501Y-109404295D01*
X104692488Y-109655705D01*
X104713983Y-109677200D01*
X104692488Y-109698695D01*
X104524501Y-109950105D01*
X104408789Y-110229457D01*
X104349800Y-110526016D01*
X104349800Y-110828384D01*
X104408789Y-111124943D01*
X104524501Y-111404295D01*
X104692488Y-111655705D01*
X104906295Y-111869512D01*
X105012136Y-111940233D01*
X104964653Y-112077448D01*
X105884800Y-112997595D01*
X106665195Y-112217200D01*
X123913067Y-112217200D01*
X123935947Y-112449500D01*
X124003706Y-112672874D01*
X124113742Y-112878736D01*
X124227377Y-113017200D01*
X124113742Y-113155664D01*
X124003706Y-113361526D01*
X123935947Y-113584900D01*
X123913067Y-113817200D01*
X123935947Y-114049500D01*
X124003706Y-114272874D01*
X124113742Y-114478736D01*
X124261825Y-114659175D01*
X124442264Y-114807258D01*
X124648126Y-114917294D01*
X124871500Y-114985053D01*
X125045593Y-115002200D01*
X125712007Y-115002200D01*
X125886100Y-114985053D01*
X126109474Y-114917294D01*
X126315336Y-114807258D01*
X126495775Y-114659175D01*
X126643858Y-114478736D01*
X126753894Y-114272874D01*
X126775920Y-114200262D01*
X126795593Y-114202200D01*
X127462007Y-114202200D01*
X127636100Y-114185053D01*
X127859474Y-114117294D01*
X128065336Y-114007258D01*
X128245775Y-113859175D01*
X128393858Y-113678736D01*
X128503894Y-113472874D01*
X128571653Y-113249500D01*
X128594533Y-113017200D01*
X128571653Y-112784900D01*
X128503894Y-112561526D01*
X128393858Y-112355664D01*
X128280223Y-112217200D01*
X128393858Y-112078736D01*
X128503894Y-111872874D01*
X128571653Y-111649500D01*
X128594533Y-111417200D01*
X128571653Y-111184900D01*
X128503894Y-110961526D01*
X128393858Y-110755664D01*
X128245775Y-110575225D01*
X128065336Y-110427142D01*
X127859474Y-110317106D01*
X127636100Y-110249347D01*
X127462007Y-110232200D01*
X126795593Y-110232200D01*
X126778148Y-110233918D01*
X126709650Y-110064446D01*
X126581525Y-109869081D01*
X126417748Y-109702466D01*
X126224613Y-109571004D01*
X126009542Y-109479746D01*
X125780800Y-109432200D01*
X125505800Y-109432200D01*
X125505800Y-110490200D01*
X125525800Y-110490200D01*
X125525800Y-110744200D01*
X125505800Y-110744200D01*
X125505800Y-110764200D01*
X125251800Y-110764200D01*
X125251800Y-110744200D01*
X124085439Y-110744200D01*
X123959997Y-110926944D01*
X123960401Y-110953347D01*
X124047950Y-111169954D01*
X124176075Y-111365319D01*
X124227238Y-111417369D01*
X124113742Y-111555664D01*
X124003706Y-111761526D01*
X123935947Y-111984900D01*
X123913067Y-112217200D01*
X106665195Y-112217200D01*
X106804947Y-112077448D01*
X106757464Y-111940233D01*
X106863305Y-111869512D01*
X107077112Y-111655705D01*
X107245099Y-111404295D01*
X107360811Y-111124943D01*
X107419800Y-110828384D01*
X107419800Y-110526016D01*
X107376326Y-110307456D01*
X123959997Y-110307456D01*
X124085439Y-110490200D01*
X125251800Y-110490200D01*
X125251800Y-109432200D01*
X124976800Y-109432200D01*
X124748058Y-109479746D01*
X124532987Y-109571004D01*
X124339852Y-109702466D01*
X124176075Y-109869081D01*
X124047950Y-110064446D01*
X123960401Y-110281053D01*
X123959997Y-110307456D01*
X107376326Y-110307456D01*
X107360811Y-110229457D01*
X107245099Y-109950105D01*
X107077112Y-109698695D01*
X107055617Y-109677200D01*
X107077112Y-109655705D01*
X107245099Y-109404295D01*
X107360811Y-109124943D01*
X107400762Y-108924090D01*
X128762324Y-108924090D01*
X128783237Y-109018153D01*
X128898509Y-109286626D01*
X129063943Y-109527452D01*
X129273181Y-109731376D01*
X129518182Y-109890561D01*
X129789531Y-109998890D01*
X130076800Y-110052200D01*
X130576800Y-110052200D01*
X130576800Y-108694200D01*
X130830800Y-108694200D01*
X130830800Y-110052200D01*
X131330800Y-110052200D01*
X131618069Y-109998890D01*
X131889418Y-109890561D01*
X132134419Y-109731376D01*
X132343657Y-109527452D01*
X132509091Y-109286626D01*
X132624363Y-109018153D01*
X132645276Y-108924090D01*
X132523955Y-108694200D01*
X130830800Y-108694200D01*
X130576800Y-108694200D01*
X128883645Y-108694200D01*
X128762324Y-108924090D01*
X107400762Y-108924090D01*
X107419800Y-108828384D01*
X107419800Y-108526016D01*
X107360811Y-108229457D01*
X107352881Y-108210310D01*
X128762324Y-108210310D01*
X128883645Y-108440200D01*
X130576800Y-108440200D01*
X130576800Y-107082200D01*
X130830800Y-107082200D01*
X130830800Y-108440200D01*
X132523955Y-108440200D01*
X132645276Y-108210310D01*
X132624363Y-108116247D01*
X132509091Y-107847774D01*
X132343657Y-107606948D01*
X132134419Y-107403024D01*
X131889418Y-107243839D01*
X131618069Y-107135510D01*
X131330800Y-107082200D01*
X130830800Y-107082200D01*
X130576800Y-107082200D01*
X130076800Y-107082200D01*
X129789531Y-107135510D01*
X129518182Y-107243839D01*
X129273181Y-107403024D01*
X129063943Y-107606948D01*
X128898509Y-107847774D01*
X128783237Y-108116247D01*
X128762324Y-108210310D01*
X107352881Y-108210310D01*
X107245099Y-107950105D01*
X107077112Y-107698695D01*
X106863305Y-107484888D01*
X106821968Y-107457268D01*
X106895179Y-107408350D01*
X107115950Y-107187579D01*
X107289409Y-106927979D01*
X107408889Y-106639527D01*
X107469800Y-106333309D01*
X107469800Y-106021091D01*
X107408889Y-105714873D01*
X107289409Y-105426421D01*
X107115950Y-105166821D01*
X106895179Y-104946050D01*
X106635579Y-104772591D01*
X106347127Y-104653111D01*
X106040909Y-104592200D01*
X105728691Y-104592200D01*
X105422473Y-104653111D01*
X105134021Y-104772591D01*
X104874421Y-104946050D01*
X104653650Y-105166821D01*
X104480191Y-105426421D01*
X104360711Y-105714873D01*
X104299800Y-106021091D01*
X93192200Y-106021091D01*
X93192200Y-104705635D01*
X101755970Y-104705635D01*
X101930023Y-105036554D01*
X102330340Y-105242325D01*
X102763108Y-105366046D01*
X103211698Y-105402959D01*
X103658870Y-105351649D01*
X104087439Y-105214085D01*
X104419577Y-105036554D01*
X104593630Y-104705635D01*
X103174800Y-103286805D01*
X101755970Y-104705635D01*
X93192200Y-104705635D01*
X93192200Y-103144098D01*
X100879041Y-103144098D01*
X100930351Y-103591270D01*
X101067915Y-104019839D01*
X101245446Y-104351977D01*
X101576365Y-104526030D01*
X102995195Y-103107200D01*
X103354405Y-103107200D01*
X104773235Y-104526030D01*
X105104154Y-104351977D01*
X105309925Y-103951660D01*
X105433646Y-103518892D01*
X105470559Y-103070302D01*
X105419249Y-102623130D01*
X105281685Y-102194561D01*
X105104154Y-101862423D01*
X104778996Y-101691400D01*
X109562328Y-101691400D01*
X109562328Y-103591400D01*
X109574588Y-103715882D01*
X109610898Y-103835580D01*
X109669863Y-103945894D01*
X109749215Y-104042585D01*
X109845906Y-104121937D01*
X109956220Y-104180902D01*
X110075918Y-104217212D01*
X110200400Y-104229472D01*
X112100400Y-104229472D01*
X112224882Y-104217212D01*
X112344580Y-104180902D01*
X112454894Y-104121937D01*
X112551585Y-104042585D01*
X112630937Y-103945894D01*
X112689902Y-103835580D01*
X112709775Y-103770065D01*
X117284600Y-103770065D01*
X117284600Y-104052735D01*
X117339747Y-104329974D01*
X117447920Y-104591127D01*
X117604963Y-104826159D01*
X117804841Y-105026037D01*
X118039873Y-105183080D01*
X118301026Y-105291253D01*
X118578265Y-105346400D01*
X118860935Y-105346400D01*
X119138174Y-105291253D01*
X119399327Y-105183080D01*
X119634359Y-105026037D01*
X119834237Y-104826159D01*
X119991280Y-104591127D01*
X120099453Y-104329974D01*
X120154600Y-104052735D01*
X120154600Y-103770065D01*
X120099453Y-103492826D01*
X119991280Y-103231673D01*
X119834237Y-102996641D01*
X119634359Y-102796763D01*
X119399327Y-102639720D01*
X119138174Y-102531547D01*
X118860935Y-102476400D01*
X118578265Y-102476400D01*
X118301026Y-102531547D01*
X118039873Y-102639720D01*
X117804841Y-102796763D01*
X117604963Y-102996641D01*
X117447920Y-103231673D01*
X117339747Y-103492826D01*
X117284600Y-103770065D01*
X112709775Y-103770065D01*
X112726212Y-103715882D01*
X112738472Y-103591400D01*
X112738472Y-101691400D01*
X112726212Y-101566918D01*
X112689902Y-101447220D01*
X112630937Y-101336906D01*
X112551585Y-101240215D01*
X112454894Y-101160863D01*
X112396379Y-101129586D01*
X112555009Y-100892179D01*
X112674489Y-100603727D01*
X112735400Y-100297509D01*
X112735400Y-99985291D01*
X112674489Y-99679073D01*
X112555009Y-99390621D01*
X112381550Y-99131021D01*
X112160779Y-98910250D01*
X112132568Y-98891400D01*
X112160404Y-98872800D01*
X123914128Y-98872800D01*
X123914128Y-100872800D01*
X123926388Y-100997282D01*
X123962698Y-101116980D01*
X124021663Y-101227294D01*
X124101015Y-101323985D01*
X124197706Y-101403337D01*
X124308020Y-101462302D01*
X124427718Y-101498612D01*
X124552200Y-101510872D01*
X126552200Y-101510872D01*
X126676682Y-101498612D01*
X126796380Y-101462302D01*
X126906694Y-101403337D01*
X127003385Y-101323985D01*
X127082737Y-101227294D01*
X127141702Y-101116980D01*
X127157237Y-101065767D01*
X127232156Y-101272614D01*
X127521771Y-101413504D01*
X127833308Y-101495184D01*
X128154795Y-101514518D01*
X128473875Y-101470761D01*
X128778288Y-101365595D01*
X128952244Y-101272614D01*
X129048008Y-101008213D01*
X128092200Y-100052405D01*
X128078058Y-100066548D01*
X127898453Y-99886943D01*
X127912595Y-99872800D01*
X128271805Y-99872800D01*
X129227613Y-100828608D01*
X129492014Y-100732844D01*
X129632904Y-100443229D01*
X129714584Y-100131692D01*
X129733918Y-99810205D01*
X129690161Y-99491125D01*
X129584995Y-99186712D01*
X129492014Y-99012756D01*
X129227613Y-98916992D01*
X128271805Y-99872800D01*
X127912595Y-99872800D01*
X127898453Y-99858658D01*
X128078058Y-99679053D01*
X128092200Y-99693195D01*
X129048008Y-98737387D01*
X128952244Y-98472986D01*
X128662629Y-98332096D01*
X128351092Y-98250416D01*
X128029605Y-98231082D01*
X127710525Y-98274839D01*
X127406112Y-98380005D01*
X127232156Y-98472986D01*
X127157237Y-98679833D01*
X127141702Y-98628620D01*
X127082737Y-98518306D01*
X127003385Y-98421615D01*
X126906694Y-98342263D01*
X126796380Y-98283298D01*
X126676682Y-98246988D01*
X126552200Y-98234728D01*
X124552200Y-98234728D01*
X124427718Y-98246988D01*
X124308020Y-98283298D01*
X124197706Y-98342263D01*
X124101015Y-98421615D01*
X124021663Y-98518306D01*
X123962698Y-98628620D01*
X123926388Y-98748318D01*
X123914128Y-98872800D01*
X112160404Y-98872800D01*
X112160779Y-98872550D01*
X112381550Y-98651779D01*
X112555009Y-98392179D01*
X112674489Y-98103727D01*
X112735400Y-97797509D01*
X112735400Y-97485291D01*
X112674489Y-97179073D01*
X112555009Y-96890621D01*
X112381550Y-96631021D01*
X112160779Y-96410250D01*
X111901179Y-96236791D01*
X111691803Y-96150065D01*
X117284600Y-96150065D01*
X117284600Y-96432735D01*
X117339747Y-96709974D01*
X117447920Y-96971127D01*
X117604963Y-97206159D01*
X117804841Y-97406037D01*
X118039873Y-97563080D01*
X118301026Y-97671253D01*
X118578265Y-97726400D01*
X118860935Y-97726400D01*
X119138174Y-97671253D01*
X119399327Y-97563080D01*
X119634359Y-97406037D01*
X119834237Y-97206159D01*
X119991280Y-96971127D01*
X120099453Y-96709974D01*
X120154600Y-96432735D01*
X120154600Y-96150065D01*
X120099453Y-95872826D01*
X119991280Y-95611673D01*
X119834237Y-95376641D01*
X119634359Y-95176763D01*
X119399327Y-95019720D01*
X119138174Y-94911547D01*
X118860935Y-94856400D01*
X118578265Y-94856400D01*
X118301026Y-94911547D01*
X118039873Y-95019720D01*
X117804841Y-95176763D01*
X117604963Y-95376641D01*
X117447920Y-95611673D01*
X117339747Y-95872826D01*
X117284600Y-96150065D01*
X111691803Y-96150065D01*
X111612727Y-96117311D01*
X111306509Y-96056400D01*
X110994291Y-96056400D01*
X110688073Y-96117311D01*
X110399621Y-96236791D01*
X110140021Y-96410250D01*
X109919250Y-96631021D01*
X109745791Y-96890621D01*
X109626311Y-97179073D01*
X109565400Y-97485291D01*
X109565400Y-97797509D01*
X109626311Y-98103727D01*
X109745791Y-98392179D01*
X109919250Y-98651779D01*
X110140021Y-98872550D01*
X110168232Y-98891400D01*
X110140021Y-98910250D01*
X109919250Y-99131021D01*
X109745791Y-99390621D01*
X109626311Y-99679073D01*
X109565400Y-99985291D01*
X109565400Y-100297509D01*
X109626311Y-100603727D01*
X109745791Y-100892179D01*
X109904421Y-101129586D01*
X109845906Y-101160863D01*
X109749215Y-101240215D01*
X109669863Y-101336906D01*
X109610898Y-101447220D01*
X109574588Y-101566918D01*
X109562328Y-101691400D01*
X104778996Y-101691400D01*
X104773235Y-101688370D01*
X103354405Y-103107200D01*
X102995195Y-103107200D01*
X101576365Y-101688370D01*
X101245446Y-101862423D01*
X101039675Y-102262740D01*
X100915954Y-102695508D01*
X100879041Y-103144098D01*
X93192200Y-103144098D01*
X93192200Y-101508765D01*
X101755970Y-101508765D01*
X103174800Y-102927595D01*
X104593630Y-101508765D01*
X104419577Y-101177846D01*
X104019260Y-100972075D01*
X103586492Y-100848354D01*
X103137902Y-100811441D01*
X102690730Y-100862751D01*
X102262161Y-101000315D01*
X101930023Y-101177846D01*
X101755970Y-101508765D01*
X93192200Y-101508765D01*
X93192200Y-94132000D01*
X134087001Y-94132000D01*
X134087000Y-120091600D01*
G37*
%TD.AperFunction*%
%TD*%
M02*
