%TF.GenerationSoftware,KiCad,Pcbnew,(5.1.9)-1*%
%TF.CreationDate,2021-04-24T16:03:23-04:00*%
%TF.ProjectId,PowerStripper,506f7765-7253-4747-9269-707065722e6b,v01*%
%TF.SameCoordinates,Original*%
%TF.FileFunction,Legend,Top*%
%TF.FilePolarity,Positive*%
%FSLAX46Y46*%
G04 Gerber Fmt 4.6, Leading zero omitted, Abs format (unit mm)*
G04 Created by KiCad (PCBNEW (5.1.9)-1) date 2021-04-24 16:03:23*
%MOMM*%
%LPD*%
G01*
G04 APERTURE LIST*
%ADD10C,0.100000*%
%ADD11C,0.120000*%
%ADD12C,0.150000*%
G04 APERTURE END LIST*
D10*
%TO.C,J2*%
X106567000Y-110053000D02*
X105842000Y-110053000D01*
X106567000Y-109103000D02*
X106567000Y-110053000D01*
X106567000Y-96703000D02*
X105767000Y-96703000D01*
X106567000Y-97728000D02*
X106567000Y-96703000D01*
X93237000Y-110053000D02*
X93237000Y-109353000D01*
X93887000Y-110053000D02*
X93237000Y-110053000D01*
X93237000Y-96703000D02*
X93912000Y-96703000D01*
X93237000Y-97678000D02*
X93237000Y-96703000D01*
%TO.C,J1*%
X125786000Y-101943000D02*
X125811000Y-101943000D01*
X125786000Y-102593000D02*
X125786000Y-101943000D01*
X126661000Y-101943000D02*
X125811000Y-101943000D01*
X134186000Y-101943000D02*
X135036000Y-101943000D01*
X135036000Y-101943000D02*
X135036000Y-102568000D01*
X134111000Y-109893000D02*
X135036000Y-109893000D01*
X135036000Y-109893000D02*
X135036000Y-109268000D01*
X126361000Y-109893000D02*
X125786000Y-109893000D01*
X125786000Y-109893000D02*
X125786000Y-109418000D01*
%TO.C,D1*%
X115976600Y-113592600D02*
X115976600Y-113342600D01*
X115976600Y-110892600D02*
X115976600Y-111142600D01*
X116581133Y-114084215D02*
G75*
G02*
X115976600Y-113592600I995467J1841615D01*
G01*
X115969315Y-110886453D02*
G75*
G02*
X116576600Y-110392600I1607285J-1356147D01*
G01*
X119426600Y-113242600D02*
G75*
G02*
X118576600Y-114092600I-1850000J1000000D01*
G01*
X118576600Y-110392600D02*
G75*
G02*
X119426600Y-111242600I-1000000J-1850000D01*
G01*
D11*
%TO.C,R1*%
X117806600Y-107308400D02*
X117476600Y-107308400D01*
X117476600Y-107308400D02*
X117476600Y-100768400D01*
X117476600Y-100768400D02*
X117806600Y-100768400D01*
X119886600Y-107308400D02*
X120216600Y-107308400D01*
X120216600Y-107308400D02*
X120216600Y-100768400D01*
X120216600Y-100768400D02*
X119886600Y-100768400D01*
D10*
%TO.C,S1*%
X116400000Y-108630000D02*
X116400000Y-108130000D01*
X116400000Y-108630000D02*
X115900000Y-108630000D01*
X116400000Y-96730000D02*
X115900000Y-96730000D01*
X116400000Y-96730000D02*
X116400000Y-97230000D01*
X112200000Y-96730000D02*
X112700000Y-96730000D01*
X112200000Y-96730000D02*
X112200000Y-97230000D01*
X112200000Y-108630000D02*
X112700000Y-108630000D01*
X112200000Y-108630000D02*
X112200000Y-108130000D01*
%TO.C,J2*%
D12*
X108009380Y-103636333D02*
X108723666Y-103636333D01*
X108866523Y-103683952D01*
X108961761Y-103779190D01*
X109009380Y-103922047D01*
X109009380Y-104017285D01*
X108104619Y-103207761D02*
X108057000Y-103160142D01*
X108009380Y-103064904D01*
X108009380Y-102826809D01*
X108057000Y-102731571D01*
X108104619Y-102683952D01*
X108199857Y-102636333D01*
X108295095Y-102636333D01*
X108437952Y-102683952D01*
X109009380Y-103255380D01*
X109009380Y-102636333D01*
%TO.C,J1*%
X129427666Y-110695380D02*
X129427666Y-111409666D01*
X129380047Y-111552523D01*
X129284809Y-111647761D01*
X129141952Y-111695380D01*
X129046714Y-111695380D01*
X130427666Y-111695380D02*
X129856238Y-111695380D01*
X130141952Y-111695380D02*
X130141952Y-110695380D01*
X130046714Y-110838238D01*
X129951476Y-110933476D01*
X129856238Y-110981095D01*
%TO.C,D1*%
X113028504Y-112694980D02*
X113028504Y-111694980D01*
X113266600Y-111694980D01*
X113409457Y-111742600D01*
X113504695Y-111837838D01*
X113552314Y-111933076D01*
X113599933Y-112123552D01*
X113599933Y-112266409D01*
X113552314Y-112456885D01*
X113504695Y-112552123D01*
X113409457Y-112647361D01*
X113266600Y-112694980D01*
X113028504Y-112694980D01*
X114552314Y-112694980D02*
X113980885Y-112694980D01*
X114266600Y-112694980D02*
X114266600Y-111694980D01*
X114171361Y-111837838D01*
X114076123Y-111933076D01*
X113980885Y-111980695D01*
%TO.C,R1*%
X118679933Y-98140780D02*
X118346600Y-97664590D01*
X118108504Y-98140780D02*
X118108504Y-97140780D01*
X118489457Y-97140780D01*
X118584695Y-97188400D01*
X118632314Y-97236019D01*
X118679933Y-97331257D01*
X118679933Y-97474114D01*
X118632314Y-97569352D01*
X118584695Y-97616971D01*
X118489457Y-97664590D01*
X118108504Y-97664590D01*
X119632314Y-98140780D02*
X119060885Y-98140780D01*
X119346600Y-98140780D02*
X119346600Y-97140780D01*
X119251361Y-97283638D01*
X119156123Y-97378876D01*
X119060885Y-97426495D01*
%TO.C,S1*%
X113538095Y-95908761D02*
X113680952Y-95956380D01*
X113919047Y-95956380D01*
X114014285Y-95908761D01*
X114061904Y-95861142D01*
X114109523Y-95765904D01*
X114109523Y-95670666D01*
X114061904Y-95575428D01*
X114014285Y-95527809D01*
X113919047Y-95480190D01*
X113728571Y-95432571D01*
X113633333Y-95384952D01*
X113585714Y-95337333D01*
X113538095Y-95242095D01*
X113538095Y-95146857D01*
X113585714Y-95051619D01*
X113633333Y-95004000D01*
X113728571Y-94956380D01*
X113966666Y-94956380D01*
X114109523Y-95004000D01*
X115061904Y-95956380D02*
X114490476Y-95956380D01*
X114776190Y-95956380D02*
X114776190Y-94956380D01*
X114680952Y-95099238D01*
X114585714Y-95194476D01*
X114490476Y-95242095D01*
%TD*%
M02*
