M48
; DRILL file {KiCad (5.1.9)-1} date 04/24/21 16:03:34
; FORMAT={-:-/ absolute / inch / decimal}
; #@! TF.CreationDate,2021-04-24T16:03:34-04:00
; #@! TF.GenerationSoftware,Kicad,Pcbnew,(5.1.9)-1
; #@! TF.FileFunction,Plated,1,4,PTH
FMAT,2
INCH
T1C0.0276
T2C0.0315
T3C0.0354
T4C0.0362
T5C0.0394
T6C0.0906
%
G90
G05
T1
X4.965Y-4.107
X4.965Y-4.17
X4.965Y-4.233
X5.0122Y-4.1385
X5.0122Y-4.2015
T2
X4.679Y-3.946
X4.679Y-4.246
T3
X4.5Y-3.95
X4.5Y-4.0484
X4.5Y-4.1469
T4
X4.1867Y-3.9322
X4.1867Y-4.0306
X4.1867Y-4.1094
X4.1867Y-4.2078
T5
X4.579Y-4.419
X4.679Y-4.419
T6
X4.08Y-3.8113
X4.08Y-4.3287
T1
G00X5.1874Y-4.0263
M15
G01X5.1402Y-4.0263
M16
G05
G00X5.1874Y-4.3137
M15
G01X5.1402Y-4.3137
M16
G05
T0
M30
