M48
; DRILL file {KiCad (5.1.9)-1} date 04/25/21 09:03:49
; FORMAT={-:-/ absolute / inch / decimal}
; #@! TF.CreationDate,2021-04-25T09:03:49-04:00
; #@! TF.GenerationSoftware,Kicad,Pcbnew,(5.1.9)-1
; #@! TF.FileFunction,Plated,1,4,PTH
FMAT,2
INCH
T1C0.0276
T2C0.0315
T3C0.0354
T4C0.0362
T5C0.0394
T6C0.0906
%
G90
G05
T1
X4.947Y-4.355
X4.947Y-4.418
X4.947Y-4.481
X4.9942Y-4.3865
X4.9942Y-4.4495
T2
X4.674Y-3.791
X4.674Y-4.091
T3
X4.376Y-3.8441
X4.376Y-3.9426
X4.376Y-4.041
T4
X4.1687Y-4.1802
X4.1687Y-4.2786
X4.1687Y-4.3574
X4.1687Y-4.4558
T5
X4.943Y-3.932
X5.043Y-3.932
T6
X4.062Y-4.0593
X4.062Y-4.5767
T1
G00X5.1694Y-4.2743
M15
G01X5.1222Y-4.2743
M16
G05
G00X5.1694Y-4.5617
M15
G01X5.1222Y-4.5617
M16
G05
T0
M30
