%TF.GenerationSoftware,KiCad,Pcbnew,(5.1.9)-1*%
%TF.CreationDate,2021-04-10T11:43:18-04:00*%
%TF.ProjectId,PowerStripper,506f7765-7253-4747-9269-707065722e6b,v01*%
%TF.SameCoordinates,Original*%
%TF.FileFunction,Legend,Top*%
%TF.FilePolarity,Positive*%
%FSLAX46Y46*%
G04 Gerber Fmt 4.6, Leading zero omitted, Abs format (unit mm)*
G04 Created by KiCad (PCBNEW (5.1.9)-1) date 2021-04-10 11:43:18*
%MOMM*%
%LPD*%
G01*
G04 APERTURE LIST*
%ADD10C,0.100000*%
%ADD11C,0.120000*%
%ADD12C,0.150000*%
G04 APERTURE END LIST*
D10*
%TO.C,D1*%
X131140000Y-101680000D02*
X131140000Y-101430000D01*
X131140000Y-98980000D02*
X131140000Y-99230000D01*
X128540000Y-102180000D02*
G75*
G02*
X127690000Y-101330000I1000000J1850000D01*
G01*
X127690000Y-99330000D02*
G75*
G02*
X128540000Y-98480000I1850000J-1000000D01*
G01*
X131147285Y-101686147D02*
G75*
G02*
X130540000Y-102180000I-1607285J1356147D01*
G01*
X130535467Y-98488385D02*
G75*
G02*
X131140000Y-98980000I-995467J-1841615D01*
G01*
%TO.C,J1*%
X133025000Y-105245000D02*
X133050000Y-105245000D01*
X133025000Y-105895000D02*
X133025000Y-105245000D01*
X133900000Y-105245000D02*
X133050000Y-105245000D01*
X141425000Y-105245000D02*
X142275000Y-105245000D01*
X142275000Y-105245000D02*
X142275000Y-105870000D01*
X141350000Y-113195000D02*
X142275000Y-113195000D01*
X142275000Y-113195000D02*
X142275000Y-112570000D01*
X133600000Y-113195000D02*
X133025000Y-113195000D01*
X133025000Y-113195000D02*
X133025000Y-112720000D01*
%TO.C,J2*%
X122315000Y-115895000D02*
X121590000Y-115895000D01*
X122315000Y-114945000D02*
X122315000Y-115895000D01*
X122315000Y-102545000D02*
X121515000Y-102545000D01*
X122315000Y-103570000D02*
X122315000Y-102545000D01*
X108985000Y-115895000D02*
X108985000Y-115195000D01*
X109635000Y-115895000D02*
X108985000Y-115895000D01*
X108985000Y-102545000D02*
X109660000Y-102545000D01*
X108985000Y-103520000D02*
X108985000Y-102545000D01*
D11*
%TO.C,R1*%
X126900000Y-112490000D02*
X127230000Y-112490000D01*
X126900000Y-105950000D02*
X126900000Y-112490000D01*
X127230000Y-105950000D02*
X126900000Y-105950000D01*
X129640000Y-112490000D02*
X129310000Y-112490000D01*
X129640000Y-105950000D02*
X129640000Y-112490000D01*
X129310000Y-105950000D02*
X129640000Y-105950000D01*
D10*
%TO.C,S1*%
X127590000Y-120210000D02*
X128090000Y-120210000D01*
X127590000Y-120210000D02*
X127590000Y-119710000D01*
X139490000Y-120210000D02*
X139490000Y-119710000D01*
X139490000Y-120210000D02*
X138990000Y-120210000D01*
X139490000Y-116010000D02*
X139490000Y-116510000D01*
X139490000Y-116010000D02*
X138990000Y-116010000D01*
X127590000Y-116010000D02*
X127590000Y-116510000D01*
X127590000Y-116010000D02*
X128090000Y-116010000D01*
%TO.C,D1*%
D12*
X132611904Y-100782380D02*
X132611904Y-99782380D01*
X132850000Y-99782380D01*
X132992857Y-99830000D01*
X133088095Y-99925238D01*
X133135714Y-100020476D01*
X133183333Y-100210952D01*
X133183333Y-100353809D01*
X133135714Y-100544285D01*
X133088095Y-100639523D01*
X132992857Y-100734761D01*
X132850000Y-100782380D01*
X132611904Y-100782380D01*
X134135714Y-100782380D02*
X133564285Y-100782380D01*
X133850000Y-100782380D02*
X133850000Y-99782380D01*
X133754761Y-99925238D01*
X133659523Y-100020476D01*
X133564285Y-100068095D01*
%TO.C,J1*%
X136666666Y-113997380D02*
X136666666Y-114711666D01*
X136619047Y-114854523D01*
X136523809Y-114949761D01*
X136380952Y-114997380D01*
X136285714Y-114997380D01*
X137666666Y-114997380D02*
X137095238Y-114997380D01*
X137380952Y-114997380D02*
X137380952Y-113997380D01*
X137285714Y-114140238D01*
X137190476Y-114235476D01*
X137095238Y-114283095D01*
%TO.C,J2*%
X123757380Y-109478333D02*
X124471666Y-109478333D01*
X124614523Y-109525952D01*
X124709761Y-109621190D01*
X124757380Y-109764047D01*
X124757380Y-109859285D01*
X123852619Y-109049761D02*
X123805000Y-109002142D01*
X123757380Y-108906904D01*
X123757380Y-108668809D01*
X123805000Y-108573571D01*
X123852619Y-108525952D01*
X123947857Y-108478333D01*
X124043095Y-108478333D01*
X124185952Y-108525952D01*
X124757380Y-109097380D01*
X124757380Y-108478333D01*
%TO.C,R1*%
X131092380Y-109386666D02*
X130616190Y-109720000D01*
X131092380Y-109958095D02*
X130092380Y-109958095D01*
X130092380Y-109577142D01*
X130140000Y-109481904D01*
X130187619Y-109434285D01*
X130282857Y-109386666D01*
X130425714Y-109386666D01*
X130520952Y-109434285D01*
X130568571Y-109481904D01*
X130616190Y-109577142D01*
X130616190Y-109958095D01*
X131092380Y-108434285D02*
X131092380Y-109005714D01*
X131092380Y-108720000D02*
X130092380Y-108720000D01*
X130235238Y-108815238D01*
X130330476Y-108910476D01*
X130378095Y-109005714D01*
%TO.C,S1*%
X132638095Y-121534761D02*
X132780952Y-121582380D01*
X133019047Y-121582380D01*
X133114285Y-121534761D01*
X133161904Y-121487142D01*
X133209523Y-121391904D01*
X133209523Y-121296666D01*
X133161904Y-121201428D01*
X133114285Y-121153809D01*
X133019047Y-121106190D01*
X132828571Y-121058571D01*
X132733333Y-121010952D01*
X132685714Y-120963333D01*
X132638095Y-120868095D01*
X132638095Y-120772857D01*
X132685714Y-120677619D01*
X132733333Y-120630000D01*
X132828571Y-120582380D01*
X133066666Y-120582380D01*
X133209523Y-120630000D01*
X134161904Y-121582380D02*
X133590476Y-121582380D01*
X133876190Y-121582380D02*
X133876190Y-120582380D01*
X133780952Y-120725238D01*
X133685714Y-120820476D01*
X133590476Y-120868095D01*
%TD*%
M02*
