%TF.GenerationSoftware,KiCad,Pcbnew,(5.1.9)-1*%
%TF.CreationDate,2021-04-25T09:03:39-04:00*%
%TF.ProjectId,PowerStripper,506f7765-7253-4747-9269-707065722e6b,v01*%
%TF.SameCoordinates,Original*%
%TF.FileFunction,Copper,L4,Bot*%
%TF.FilePolarity,Positive*%
%FSLAX46Y46*%
G04 Gerber Fmt 4.6, Leading zero omitted, Abs format (unit mm)*
G04 Created by KiCad (PCBNEW (5.1.9)-1) date 2021-04-25 09:03:39*
%MOMM*%
%LPD*%
G01*
G04 APERTURE LIST*
%TA.AperFunction,ComponentPad*%
%ADD10O,1.650000X1.100000*%
%TD*%
%TA.AperFunction,ComponentPad*%
%ADD11O,2.700000X1.700000*%
%TD*%
%TA.AperFunction,ComponentPad*%
%ADD12C,3.300000*%
%TD*%
%TA.AperFunction,ComponentPad*%
%ADD13C,1.900000*%
%TD*%
%TA.AperFunction,ComponentPad*%
%ADD14C,1.800000*%
%TD*%
%TA.AperFunction,ComponentPad*%
%ADD15R,2.000000X2.000000*%
%TD*%
%TA.AperFunction,ComponentPad*%
%ADD16C,2.000000*%
%TD*%
%TA.AperFunction,ComponentPad*%
%ADD17O,1.600000X1.600000*%
%TD*%
%TA.AperFunction,ComponentPad*%
%ADD18C,1.600000*%
%TD*%
%TA.AperFunction,ComponentPad*%
%ADD19R,1.900000X1.900000*%
%TD*%
%TA.AperFunction,Conductor*%
%ADD20C,0.441219*%
%TD*%
G04 APERTURE END LIST*
D10*
%TO.P,J1,3*%
%TO.N,D+*%
X125378800Y-112217200D03*
%TO.P,J1,1*%
%TO.N,Net-(J1-Pad1)*%
X125378800Y-113817200D03*
%TO.P,J1,5*%
%TO.N,GND*%
X125378800Y-110617200D03*
%TO.P,J1,2*%
%TO.N,D-*%
X127128800Y-113017200D03*
%TO.P,J1,4*%
%TO.N,Net-(J1-Pad4)*%
X127128800Y-111417200D03*
D11*
%TO.P,J1,SH*%
%TO.N,GND*%
X130703800Y-115867200D03*
X130703800Y-108567200D03*
%TD*%
D12*
%TO.P,J2,SH*%
%TO.N,GND*%
X103174800Y-103107200D03*
X103174800Y-116247200D03*
D13*
%TO.P,J2,1*%
%TO.N,Net-(J2-Pad1)*%
X105884800Y-106177200D03*
D14*
%TO.P,J2,2*%
%TO.N,D-*%
X105884800Y-108677200D03*
%TO.P,J2,3*%
%TO.N,D+*%
X105884800Y-110677200D03*
D13*
%TO.P,J2,4*%
%TO.N,GND*%
X105884800Y-113177200D03*
%TD*%
D15*
%TO.P,D1,1*%
%TO.N,Net-(D1-Pad1)*%
X125552200Y-99872800D03*
D16*
%TO.P,D1,2*%
%TO.N,GND*%
X128092200Y-99872800D03*
%TD*%
D17*
%TO.P,R1,2*%
%TO.N,Net-(J2-Pad1)*%
X118719600Y-103911400D03*
D18*
%TO.P,R1,1*%
%TO.N,Net-(D1-Pad1)*%
X118719600Y-96291400D03*
%TD*%
D19*
%TO.P,S1,1*%
%TO.N,Net-(J2-Pad1)*%
X111150400Y-102641400D03*
D13*
%TO.P,S1,2*%
%TO.N,Net-(J1-Pad1)*%
X111150400Y-100141400D03*
%TO.P,S1,3*%
%TO.N,Net-(S1-Pad3)*%
X111150400Y-97641400D03*
%TD*%
D20*
%TO.N,D+*%
X113792000Y-112217200D02*
X112252000Y-110677200D01*
X114422134Y-112217200D02*
X113792000Y-112217200D01*
X114613571Y-112260895D02*
X114520314Y-112228263D01*
X114767092Y-112383324D02*
X114697229Y-112313461D01*
X114874415Y-112874162D02*
X114863353Y-112775981D01*
X115029476Y-113120940D02*
X114959613Y-113051077D01*
X115649530Y-113051077D02*
X115579667Y-113120940D01*
X115745791Y-111658419D02*
X115745791Y-112775981D01*
X115995572Y-111260894D02*
X115911914Y-111313460D01*
X116088829Y-111228262D02*
X115995572Y-111260894D01*
X115304572Y-113217200D02*
X115206391Y-113206138D01*
X116187010Y-111217200D02*
X116088829Y-111228262D01*
X116285190Y-111228262D02*
X116187010Y-111217200D01*
X116378447Y-111260894D02*
X116285190Y-111228262D01*
X111146403Y-110677200D02*
X105884800Y-110677200D01*
X116462105Y-111313460D02*
X116378447Y-111260894D01*
X116531968Y-111383323D02*
X116462105Y-111313460D01*
X116584534Y-111466981D02*
X116531968Y-111383323D01*
X116617166Y-111560238D02*
X116584534Y-111466981D01*
X116628229Y-111658419D02*
X116617166Y-111560238D01*
X114520314Y-112228263D02*
X114422134Y-112217200D01*
X116628229Y-112775981D02*
X116628229Y-111658419D01*
X116639291Y-112874162D02*
X116628229Y-112775981D01*
X116671923Y-112967419D02*
X116639291Y-112874162D01*
X115402752Y-113206138D02*
X115304572Y-113217200D01*
X116724489Y-113051077D02*
X116671923Y-112967419D01*
X114907047Y-112967419D02*
X114874415Y-112874162D01*
X116794352Y-113120940D02*
X116724489Y-113051077D01*
X114863353Y-112658419D02*
X114852290Y-112560239D01*
X116878010Y-113173506D02*
X116794352Y-113120940D01*
X116971267Y-113206138D02*
X116878010Y-113173506D01*
X112252000Y-110677200D02*
X111146403Y-110677200D01*
X117069448Y-113217200D02*
X116971267Y-113206138D01*
X117167628Y-113206138D02*
X117069448Y-113217200D01*
X117260885Y-113173506D02*
X117167628Y-113206138D01*
X119109419Y-113120940D02*
X119025761Y-113173506D01*
X119179282Y-113051077D02*
X119109419Y-113120940D01*
X118050066Y-111228262D02*
X117951886Y-111217200D01*
X119231848Y-112967419D02*
X119179282Y-113051077D01*
X119264480Y-112874162D02*
X119231848Y-112967419D01*
X119275543Y-112775981D02*
X119264480Y-112874162D01*
X115734728Y-112874162D02*
X115702096Y-112967419D01*
X119371803Y-111383323D02*
X119319237Y-111466981D01*
X119441666Y-111313460D02*
X119371803Y-111383323D01*
X119618581Y-111228262D02*
X119525324Y-111260894D01*
X115756853Y-111560238D02*
X115745791Y-111658419D01*
X119814942Y-111228262D02*
X119716762Y-111217200D01*
X115745791Y-112775981D02*
X115734728Y-112874162D01*
X119991857Y-111313460D02*
X119908199Y-111260894D01*
X115496009Y-113173506D02*
X115402752Y-113206138D01*
X117344543Y-113120940D02*
X117260885Y-113173506D01*
X119525324Y-111260894D02*
X119441666Y-111313460D01*
X120407762Y-112173505D02*
X120324104Y-112120939D01*
X115579667Y-113120940D02*
X115496009Y-113173506D01*
X120599200Y-112217200D02*
X120501019Y-112206137D01*
X115702096Y-112967419D02*
X115649530Y-113051077D01*
X120501019Y-112206137D02*
X120407762Y-112173505D01*
X119275543Y-111658419D02*
X119275543Y-112775981D01*
X120157981Y-111658419D02*
X120146918Y-111560238D01*
X117676790Y-111313460D02*
X117606927Y-111383323D01*
X117510667Y-112775981D02*
X117499604Y-112874162D01*
X119319237Y-111466981D02*
X119286605Y-111560238D01*
X114863353Y-112775981D02*
X114863353Y-112658419D01*
X120324104Y-112120939D02*
X120254241Y-112051076D01*
X118393105Y-112775981D02*
X118393105Y-111658419D01*
X120146918Y-111560238D02*
X120114286Y-111466981D01*
X115113134Y-113173506D02*
X115029476Y-113120940D01*
X117760448Y-111260894D02*
X117676790Y-111313460D01*
X114852290Y-112560239D02*
X114819658Y-112466982D01*
X120254241Y-112051076D02*
X120201675Y-111967418D01*
X114959613Y-113051077D02*
X114907047Y-112967419D01*
X117466972Y-112967419D02*
X117414406Y-113051077D01*
X114819658Y-112466982D02*
X114767092Y-112383324D01*
X118226981Y-111313460D02*
X118143323Y-111260894D01*
X125653800Y-112217200D02*
X120599200Y-112217200D01*
X114697229Y-112313461D02*
X114613571Y-112260895D01*
X117606927Y-111383323D02*
X117554361Y-111466981D01*
X120201675Y-111967418D02*
X120169043Y-111874161D01*
X115206391Y-113206138D02*
X115113134Y-113173506D01*
X117853705Y-111228262D02*
X117760448Y-111260894D01*
X120169043Y-111874161D02*
X120157981Y-111775981D01*
X120157981Y-111775981D02*
X120157981Y-111658419D01*
X119716762Y-111217200D02*
X119618581Y-111228262D01*
X120114286Y-111466981D02*
X120061720Y-111383323D01*
X117414406Y-113051077D02*
X117344543Y-113120940D01*
X119286605Y-111560238D02*
X119275543Y-111658419D01*
X120061720Y-111383323D02*
X119991857Y-111313460D01*
X119025761Y-113173506D02*
X118932504Y-113206138D01*
X118932504Y-113206138D02*
X118834324Y-113217200D01*
X118834324Y-113217200D02*
X118736143Y-113206138D01*
X118736143Y-113206138D02*
X118642886Y-113173506D01*
X118642886Y-113173506D02*
X118559228Y-113120940D01*
X117951886Y-111217200D02*
X117853705Y-111228262D01*
X118559228Y-113120940D02*
X118489365Y-113051077D01*
X118489365Y-113051077D02*
X118436799Y-112967419D01*
X115842051Y-111383323D02*
X115789485Y-111466981D01*
X118404167Y-112874162D02*
X118393105Y-112775981D01*
X115911914Y-111313460D02*
X115842051Y-111383323D01*
X118393105Y-111658419D02*
X118382042Y-111560238D01*
X115789485Y-111466981D02*
X115756853Y-111560238D01*
X118382042Y-111560238D02*
X118349410Y-111466981D01*
X118349410Y-111466981D02*
X118296844Y-111383323D01*
X118296844Y-111383323D02*
X118226981Y-111313460D01*
X118436799Y-112967419D02*
X118404167Y-112874162D01*
X118143323Y-111260894D02*
X118050066Y-111228262D01*
X117554361Y-111466981D02*
X117521729Y-111560238D01*
X119908199Y-111260894D02*
X119814942Y-111228262D01*
X117521729Y-111560238D02*
X117510667Y-111658419D01*
X117510667Y-111658419D02*
X117510667Y-112775981D01*
X117499604Y-112874162D02*
X117466972Y-112967419D01*
%TO.N,D-*%
X111146403Y-108677200D02*
X105884800Y-108677200D01*
X127397000Y-108677200D02*
X111146403Y-108677200D01*
X127397000Y-108702600D02*
X127397000Y-108677200D01*
X129286000Y-110591600D02*
X127397000Y-108702600D01*
X129286000Y-112166400D02*
X129286000Y-110591600D01*
X128435200Y-113017200D02*
X129286000Y-112166400D01*
X126853800Y-113017200D02*
X128435200Y-113017200D01*
%TD*%
M02*
