M48
; DRILL file {KiCad (5.1.9)-1} date 04/10/21 11:43:21
; FORMAT={-:-/ absolute / inch / decimal}
; #@! TF.CreationDate,2021-04-10T11:43:21-04:00
; #@! TF.GenerationSoftware,Kicad,Pcbnew,(5.1.9)-1
; #@! TF.FileFunction,Plated,1,2,PTH
FMAT,2
INCH
T1C0.0276
T2C0.0315
T3C0.0354
T4C0.0362
T5C0.0394
T6C0.0906
%
G90
G05
T1
X5.25Y-4.237
X5.25Y-4.3
X5.25Y-4.363
X5.2972Y-4.2685
X5.2972Y-4.3315
T2
X5.05Y-4.15
X5.05Y-4.45
T3
X5.1531Y-4.65
X5.2516Y-4.65
X5.35Y-4.65
T4
X4.8067Y-4.1622
X4.8067Y-4.2606
X4.8067Y-4.3394
X4.8067Y-4.4378
T5
X5.05Y-3.95
X5.15Y-3.95
T6
X4.7Y-4.0413
X4.7Y-4.5587
T1
G00X5.4724Y-4.1563
M15
G01X5.4252Y-4.1563
M16
G05
G00X5.4724Y-4.4437
M15
G01X5.4252Y-4.4437
M16
G05
T0
M30
