%TF.GenerationSoftware,KiCad,Pcbnew,(5.1.9)-1*%
%TF.CreationDate,2021-04-24T16:03:23-04:00*%
%TF.ProjectId,PowerStripper,506f7765-7253-4747-9269-707065722e6b,v01*%
%TF.SameCoordinates,Original*%
%TF.FileFunction,Copper,L4,Bot*%
%TF.FilePolarity,Positive*%
%FSLAX46Y46*%
G04 Gerber Fmt 4.6, Leading zero omitted, Abs format (unit mm)*
G04 Created by KiCad (PCBNEW (5.1.9)-1) date 2021-04-24 16:03:23*
%MOMM*%
%LPD*%
G01*
G04 APERTURE LIST*
%TA.AperFunction,ComponentPad*%
%ADD10C,3.300000*%
%TD*%
%TA.AperFunction,ComponentPad*%
%ADD11C,1.900000*%
%TD*%
%TA.AperFunction,ComponentPad*%
%ADD12C,1.800000*%
%TD*%
%TA.AperFunction,ComponentPad*%
%ADD13O,1.650000X1.100000*%
%TD*%
%TA.AperFunction,ComponentPad*%
%ADD14O,2.700000X1.700000*%
%TD*%
%TA.AperFunction,ComponentPad*%
%ADD15R,2.000000X2.000000*%
%TD*%
%TA.AperFunction,ComponentPad*%
%ADD16C,2.000000*%
%TD*%
%TA.AperFunction,ComponentPad*%
%ADD17O,1.600000X1.600000*%
%TD*%
%TA.AperFunction,ComponentPad*%
%ADD18C,1.600000*%
%TD*%
%TA.AperFunction,ComponentPad*%
%ADD19R,1.900000X1.900000*%
%TD*%
%TA.AperFunction,Conductor*%
%ADD20C,1.100000*%
%TD*%
G04 APERTURE END LIST*
D10*
%TO.P,J2,SH*%
%TO.N,GND*%
X103632000Y-96808000D03*
X103632000Y-109948000D03*
D11*
%TO.P,J2,1*%
%TO.N,Net-(J2-Pad1)*%
X106342000Y-99878000D03*
D12*
%TO.P,J2,2*%
%TO.N,D-*%
X106342000Y-102378000D03*
%TO.P,J2,3*%
%TO.N,D+*%
X106342000Y-104378000D03*
D11*
%TO.P,J2,4*%
%TO.N,GND*%
X106342000Y-106878000D03*
%TD*%
D13*
%TO.P,J1,3*%
%TO.N,D+*%
X125836000Y-105918000D03*
%TO.P,J1,1*%
%TO.N,Net-(J1-Pad1)*%
X125836000Y-107518000D03*
%TO.P,J1,5*%
%TO.N,GND*%
X125836000Y-104318000D03*
%TO.P,J1,2*%
%TO.N,D-*%
X127586000Y-106718000D03*
%TO.P,J1,4*%
%TO.N,Net-(J1-Pad4)*%
X127586000Y-105118000D03*
D14*
%TO.P,J1,SH*%
%TO.N,GND*%
X131161000Y-109568000D03*
X131161000Y-102268000D03*
%TD*%
D15*
%TO.P,D1,1*%
%TO.N,Net-(D1-Pad1)*%
X118846600Y-112242600D03*
D16*
%TO.P,D1,2*%
%TO.N,GND*%
X116306600Y-112242600D03*
%TD*%
D17*
%TO.P,R1,2*%
%TO.N,Net-(J2-Pad1)*%
X118846600Y-100228400D03*
D18*
%TO.P,R1,1*%
%TO.N,Net-(D1-Pad1)*%
X118846600Y-107848400D03*
%TD*%
D19*
%TO.P,S1,1*%
%TO.N,Net-(J2-Pad1)*%
X114300000Y-100330000D03*
D11*
%TO.P,S1,2*%
%TO.N,Net-(J1-Pad1)*%
X114300000Y-102830000D03*
%TO.P,S1,3*%
%TO.N,Net-(S1-Pad3)*%
X114300000Y-105330000D03*
%TD*%
D20*
%TO.N,Net-(D1-Pad1)*%
X118846600Y-107848400D02*
X118846600Y-112242600D01*
%TO.N,Net-(J1-Pad1)*%
X116051754Y-102830000D02*
X116087954Y-102793800D01*
X114300000Y-102830000D02*
X116051754Y-102830000D01*
X116087954Y-102793800D02*
X122910600Y-102793800D01*
X122910600Y-102793800D02*
X122961400Y-102844600D01*
X122961400Y-102844600D02*
X122961400Y-107467400D01*
X123012000Y-107518000D02*
X126111000Y-107518000D01*
X122961400Y-107467400D02*
X123012000Y-107518000D01*
%TO.N,Net-(J2-Pad1)*%
X113848000Y-99878000D02*
X114300000Y-100330000D01*
X106342000Y-99878000D02*
X113848000Y-99878000D01*
X118745000Y-100330000D02*
X118846600Y-100228400D01*
X114300000Y-100330000D02*
X118745000Y-100330000D01*
%TD*%
M02*
