%TF.GenerationSoftware,KiCad,Pcbnew,(5.1.9)-1*%
%TF.CreationDate,2021-04-25T09:03:39-04:00*%
%TF.ProjectId,PowerStripper,506f7765-7253-4747-9269-707065722e6b,v01*%
%TF.SameCoordinates,Original*%
%TF.FileFunction,Copper,L1,Top*%
%TF.FilePolarity,Positive*%
%FSLAX46Y46*%
G04 Gerber Fmt 4.6, Leading zero omitted, Abs format (unit mm)*
G04 Created by KiCad (PCBNEW (5.1.9)-1) date 2021-04-25 09:03:39*
%MOMM*%
%LPD*%
G01*
G04 APERTURE LIST*
%TA.AperFunction,ComponentPad*%
%ADD10O,1.650000X1.100000*%
%TD*%
%TA.AperFunction,ComponentPad*%
%ADD11O,2.700000X1.700000*%
%TD*%
%TA.AperFunction,ComponentPad*%
%ADD12C,3.300000*%
%TD*%
%TA.AperFunction,ComponentPad*%
%ADD13C,1.900000*%
%TD*%
%TA.AperFunction,ComponentPad*%
%ADD14C,1.800000*%
%TD*%
%TA.AperFunction,ComponentPad*%
%ADD15R,2.000000X2.000000*%
%TD*%
%TA.AperFunction,ComponentPad*%
%ADD16C,2.000000*%
%TD*%
%TA.AperFunction,ComponentPad*%
%ADD17O,1.600000X1.600000*%
%TD*%
%TA.AperFunction,ComponentPad*%
%ADD18C,1.600000*%
%TD*%
%TA.AperFunction,ComponentPad*%
%ADD19R,1.900000X1.900000*%
%TD*%
%TA.AperFunction,Conductor*%
%ADD20C,0.250000*%
%TD*%
G04 APERTURE END LIST*
D10*
%TO.P,J1,3*%
%TO.N,D+*%
X125378800Y-112217200D03*
%TO.P,J1,1*%
%TO.N,Net-(J1-Pad1)*%
X125378800Y-113817200D03*
%TO.P,J1,5*%
%TO.N,GND*%
X125378800Y-110617200D03*
%TO.P,J1,2*%
%TO.N,D-*%
X127128800Y-113017200D03*
%TO.P,J1,4*%
%TO.N,Net-(J1-Pad4)*%
X127128800Y-111417200D03*
D11*
%TO.P,J1,SH*%
%TO.N,GND*%
X130703800Y-115867200D03*
X130703800Y-108567200D03*
%TD*%
D12*
%TO.P,J2,SH*%
%TO.N,GND*%
X103174800Y-103107200D03*
X103174800Y-116247200D03*
D13*
%TO.P,J2,1*%
%TO.N,Net-(J2-Pad1)*%
X105884800Y-106177200D03*
D14*
%TO.P,J2,2*%
%TO.N,D-*%
X105884800Y-108677200D03*
%TO.P,J2,3*%
%TO.N,D+*%
X105884800Y-110677200D03*
D13*
%TO.P,J2,4*%
%TO.N,GND*%
X105884800Y-113177200D03*
%TD*%
D15*
%TO.P,D1,1*%
%TO.N,Net-(D1-Pad1)*%
X125552200Y-99872800D03*
D16*
%TO.P,D1,2*%
%TO.N,GND*%
X128092200Y-99872800D03*
%TD*%
D17*
%TO.P,R1,2*%
%TO.N,Net-(J2-Pad1)*%
X118719600Y-103911400D03*
D18*
%TO.P,R1,1*%
%TO.N,Net-(D1-Pad1)*%
X118719600Y-96291400D03*
%TD*%
D19*
%TO.P,S1,1*%
%TO.N,Net-(J2-Pad1)*%
X111150400Y-102641400D03*
D13*
%TO.P,S1,2*%
%TO.N,Net-(J1-Pad1)*%
X111150400Y-100141400D03*
%TO.P,S1,3*%
%TO.N,Net-(S1-Pad3)*%
X111150400Y-97641400D03*
%TD*%
D20*
%TO.N,Net-(D1-Pad1)*%
X121970800Y-96291400D02*
X125552200Y-99872800D01*
X118719600Y-96291400D02*
X121970800Y-96291400D01*
%TO.N,Net-(J1-Pad1)*%
X122097600Y-113817200D02*
X125653800Y-113817200D01*
X121513600Y-113233200D02*
X122097600Y-113817200D01*
X121513600Y-103047800D02*
X121513600Y-113233200D01*
X119557199Y-101091399D02*
X121513600Y-103047800D01*
X112100399Y-101091399D02*
X119557199Y-101091399D01*
X111150400Y-100141400D02*
X112100399Y-101091399D01*
%TO.N,Net-(J2-Pad1)*%
X107614600Y-106177200D02*
X111150400Y-102641400D01*
X105884800Y-106177200D02*
X107614600Y-106177200D01*
X117449600Y-102641400D02*
X118719600Y-103911400D01*
X111150400Y-102641400D02*
X117449600Y-102641400D01*
%TD*%
M02*
