%FSLAX45Y45*%
G04 Gerber Fmt 4.5, Leading zero omitted, Abs format (unit mm)*
G04 Created by KiCad (PCBNEW (5.1.9)-1) date 2021-04-25 09:03:52*
%MOMM*%
%LPD*%
G01*
G04 APERTURE LIST*
%TA.AperFunction,Profile*%
%ADD10C,0.050000*%
%TD*%
%ADD11C,0.200000*%
%ADD12C,0.300000*%
G04 APERTURE END LIST*
D10*
X13474700Y-12075160D02*
X9253220Y-12075160D01*
X9253220Y-9347200D02*
X9253220Y-12075160D01*
X13474700Y-9347200D02*
X9253220Y-9347200D01*
X13474700Y-12075160D02*
X13474700Y-9347200D01*
D11*
X12530380Y-11026720D02*
X12600380Y-11096720D01*
X12600380Y-11026720D02*
X12530380Y-11096720D01*
X12530380Y-11186720D02*
X12600380Y-11256720D01*
X12600380Y-11186720D02*
X12530380Y-11256720D01*
X12530380Y-11346720D02*
X12600380Y-11416720D01*
X12600380Y-11346720D02*
X12530380Y-11416720D01*
X12650380Y-11106720D02*
X12720380Y-11176720D01*
X12720380Y-11106720D02*
X12650380Y-11176720D01*
X12650380Y-11266720D02*
X12720380Y-11336720D01*
X12720380Y-11266720D02*
X12650380Y-11336720D01*
X13035380Y-10821720D02*
X13105380Y-10891720D01*
X13105380Y-10821720D02*
X13035380Y-10891720D01*
X13130380Y-10831720D02*
X13010380Y-10831720D01*
X13130380Y-10881720D02*
X13010380Y-10881720D01*
X13010380Y-10831720D02*
G75*
G03*
X13010380Y-10881720I0J-25000D01*
G01*
X13130380Y-10881720D02*
G75*
G03*
X13130380Y-10831720I0J25000D01*
G01*
X13035380Y-11551720D02*
X13105380Y-11621720D01*
X13105380Y-11551720D02*
X13035380Y-11621720D01*
X13130380Y-11561720D02*
X13010380Y-11561720D01*
X13130380Y-11611720D02*
X13010380Y-11611720D01*
X13010380Y-11561720D02*
G75*
G03*
X13010380Y-11611720I0J-25000D01*
G01*
X13130380Y-11611720D02*
G75*
G03*
X13130380Y-11561720I0J25000D01*
G01*
X11911960Y-9629140D02*
G75*
G03*
X11911960Y-9629140I-40000J0D01*
G01*
X11911960Y-10391140D02*
G75*
G03*
X11911960Y-10391140I-40000J0D01*
G01*
X11115040Y-9719140D02*
X11115040Y-9809140D01*
X11070040Y-9764140D02*
X11160040Y-9764140D01*
X11115040Y-9969140D02*
X11115040Y-10059140D01*
X11070040Y-10014140D02*
X11160040Y-10014140D01*
X11115040Y-10219140D02*
X11115040Y-10309140D01*
X11070040Y-10264140D02*
X11160040Y-10264140D01*
X10621007Y-10650247D02*
X10621007Y-10585193D01*
X10555953Y-10585193D01*
X10555953Y-10650247D01*
X10621007Y-10650247D01*
X10621007Y-10900247D02*
X10621007Y-10835193D01*
X10555953Y-10835193D01*
X10555953Y-10900247D01*
X10621007Y-10900247D01*
X10621007Y-11100247D02*
X10621007Y-11035193D01*
X10555953Y-11035193D01*
X10555953Y-11100247D01*
X10621007Y-11100247D01*
X10621007Y-11350247D02*
X10621007Y-11285193D01*
X10555953Y-11285193D01*
X10555953Y-11350247D01*
X10621007Y-11350247D01*
X12555220Y-10037280D02*
X12605220Y-9987280D01*
X12555220Y-9937280D01*
X12505220Y-9987280D01*
X12555220Y-10037280D01*
X12809220Y-10037280D02*
X12859220Y-9987280D01*
X12809220Y-9937280D01*
X12759220Y-9987280D01*
X12809220Y-10037280D01*
X10202480Y-10195720D02*
X10432480Y-10425720D01*
X10432480Y-10195720D02*
X10202480Y-10425720D01*
X10432480Y-10310720D02*
G75*
G03*
X10432480Y-10310720I-115000J0D01*
G01*
X10202480Y-11509720D02*
X10432480Y-11739720D01*
X10432480Y-11509720D02*
X10202480Y-11739720D01*
X10432480Y-11624720D02*
G75*
G03*
X10432480Y-11624720I-115000J0D01*
G01*
D12*
X9537148Y-12543374D02*
X9537148Y-12243374D01*
X9608577Y-12243374D01*
X9651434Y-12257660D01*
X9680006Y-12286231D01*
X9694291Y-12314803D01*
X9708577Y-12371946D01*
X9708577Y-12414803D01*
X9694291Y-12471946D01*
X9680006Y-12500517D01*
X9651434Y-12529089D01*
X9608577Y-12543374D01*
X9537148Y-12543374D01*
X9837148Y-12543374D02*
X9837148Y-12343374D01*
X9837148Y-12400517D02*
X9851434Y-12371946D01*
X9865720Y-12357660D01*
X9894291Y-12343374D01*
X9922863Y-12343374D01*
X10022863Y-12543374D02*
X10022863Y-12343374D01*
X10022863Y-12243374D02*
X10008577Y-12257660D01*
X10022863Y-12271946D01*
X10037148Y-12257660D01*
X10022863Y-12243374D01*
X10022863Y-12271946D01*
X10208577Y-12543374D02*
X10180006Y-12529089D01*
X10165720Y-12500517D01*
X10165720Y-12243374D01*
X10365720Y-12543374D02*
X10337148Y-12529089D01*
X10322863Y-12500517D01*
X10322863Y-12243374D01*
X10708577Y-12543374D02*
X10708577Y-12243374D01*
X10808577Y-12457660D01*
X10908577Y-12243374D01*
X10908577Y-12543374D01*
X11180006Y-12543374D02*
X11180006Y-12386231D01*
X11165720Y-12357660D01*
X11137148Y-12343374D01*
X11080006Y-12343374D01*
X11051434Y-12357660D01*
X11180006Y-12529089D02*
X11151434Y-12543374D01*
X11080006Y-12543374D01*
X11051434Y-12529089D01*
X11037148Y-12500517D01*
X11037148Y-12471946D01*
X11051434Y-12443374D01*
X11080006Y-12429089D01*
X11151434Y-12429089D01*
X11180006Y-12414803D01*
X11322863Y-12343374D02*
X11322863Y-12643374D01*
X11322863Y-12357660D02*
X11351434Y-12343374D01*
X11408577Y-12343374D01*
X11437148Y-12357660D01*
X11451434Y-12371946D01*
X11465720Y-12400517D01*
X11465720Y-12486231D01*
X11451434Y-12514803D01*
X11437148Y-12529089D01*
X11408577Y-12543374D01*
X11351434Y-12543374D01*
X11322863Y-12529089D01*
X11594291Y-12514803D02*
X11608577Y-12529089D01*
X11594291Y-12543374D01*
X11580006Y-12529089D01*
X11594291Y-12514803D01*
X11594291Y-12543374D01*
X11594291Y-12357660D02*
X11608577Y-12371946D01*
X11594291Y-12386231D01*
X11580006Y-12371946D01*
X11594291Y-12357660D01*
X11594291Y-12386231D01*
X9180720Y-13002660D02*
X9250720Y-13072660D01*
X9250720Y-13002660D02*
X9180720Y-13072660D01*
X9594291Y-12873374D02*
X9622863Y-12873374D01*
X9651434Y-12887660D01*
X9665720Y-12901946D01*
X9680006Y-12930517D01*
X9694291Y-12987660D01*
X9694291Y-13059089D01*
X9680006Y-13116231D01*
X9665720Y-13144803D01*
X9651434Y-13159089D01*
X9622863Y-13173374D01*
X9594291Y-13173374D01*
X9565720Y-13159089D01*
X9551434Y-13144803D01*
X9537148Y-13116231D01*
X9522863Y-13059089D01*
X9522863Y-12987660D01*
X9537148Y-12930517D01*
X9551434Y-12901946D01*
X9565720Y-12887660D01*
X9594291Y-12873374D01*
X9822863Y-13144803D02*
X9837148Y-13159089D01*
X9822863Y-13173374D01*
X9808577Y-13159089D01*
X9822863Y-13144803D01*
X9822863Y-13173374D01*
X9937148Y-12873374D02*
X10137148Y-12873374D01*
X10008577Y-13173374D01*
X10308577Y-12873374D02*
X10337148Y-12873374D01*
X10365720Y-12887660D01*
X10380006Y-12901946D01*
X10394291Y-12930517D01*
X10408577Y-12987660D01*
X10408577Y-13059089D01*
X10394291Y-13116231D01*
X10380006Y-13144803D01*
X10365720Y-13159089D01*
X10337148Y-13173374D01*
X10308577Y-13173374D01*
X10280006Y-13159089D01*
X10265720Y-13144803D01*
X10251434Y-13116231D01*
X10237148Y-13059089D01*
X10237148Y-12987660D01*
X10251434Y-12930517D01*
X10265720Y-12901946D01*
X10280006Y-12887660D01*
X10308577Y-12873374D01*
X10537148Y-13173374D02*
X10537148Y-12973374D01*
X10537148Y-13001946D02*
X10551434Y-12987660D01*
X10580006Y-12973374D01*
X10622863Y-12973374D01*
X10651434Y-12987660D01*
X10665720Y-13016231D01*
X10665720Y-13173374D01*
X10665720Y-13016231D02*
X10680006Y-12987660D01*
X10708577Y-12973374D01*
X10751434Y-12973374D01*
X10780006Y-12987660D01*
X10794291Y-13016231D01*
X10794291Y-13173374D01*
X10937148Y-13173374D02*
X10937148Y-12973374D01*
X10937148Y-13001946D02*
X10951434Y-12987660D01*
X10980006Y-12973374D01*
X11022863Y-12973374D01*
X11051434Y-12987660D01*
X11065720Y-13016231D01*
X11065720Y-13173374D01*
X11065720Y-13016231D02*
X11080006Y-12987660D01*
X11108577Y-12973374D01*
X11151434Y-12973374D01*
X11180006Y-12987660D01*
X11194291Y-13016231D01*
X11194291Y-13173374D01*
X11780006Y-12859089D02*
X11522863Y-13244803D01*
X12165720Y-12873374D02*
X12194291Y-12873374D01*
X12222863Y-12887660D01*
X12237148Y-12901946D01*
X12251434Y-12930517D01*
X12265720Y-12987660D01*
X12265720Y-13059089D01*
X12251434Y-13116231D01*
X12237148Y-13144803D01*
X12222863Y-13159089D01*
X12194291Y-13173374D01*
X12165720Y-13173374D01*
X12137148Y-13159089D01*
X12122863Y-13144803D01*
X12108577Y-13116231D01*
X12094291Y-13059089D01*
X12094291Y-12987660D01*
X12108577Y-12930517D01*
X12122863Y-12901946D01*
X12137148Y-12887660D01*
X12165720Y-12873374D01*
X12394291Y-13144803D02*
X12408577Y-13159089D01*
X12394291Y-13173374D01*
X12380006Y-13159089D01*
X12394291Y-13144803D01*
X12394291Y-13173374D01*
X12594291Y-12873374D02*
X12622863Y-12873374D01*
X12651434Y-12887660D01*
X12665720Y-12901946D01*
X12680006Y-12930517D01*
X12694291Y-12987660D01*
X12694291Y-13059089D01*
X12680006Y-13116231D01*
X12665720Y-13144803D01*
X12651434Y-13159089D01*
X12622863Y-13173374D01*
X12594291Y-13173374D01*
X12565720Y-13159089D01*
X12551434Y-13144803D01*
X12537148Y-13116231D01*
X12522863Y-13059089D01*
X12522863Y-12987660D01*
X12537148Y-12930517D01*
X12551434Y-12901946D01*
X12565720Y-12887660D01*
X12594291Y-12873374D01*
X12808577Y-12901946D02*
X12822863Y-12887660D01*
X12851434Y-12873374D01*
X12922863Y-12873374D01*
X12951434Y-12887660D01*
X12965720Y-12901946D01*
X12980006Y-12930517D01*
X12980006Y-12959089D01*
X12965720Y-13001946D01*
X12794291Y-13173374D01*
X12980006Y-13173374D01*
X13151434Y-13001946D02*
X13122863Y-12987660D01*
X13108577Y-12973374D01*
X13094291Y-12944803D01*
X13094291Y-12930517D01*
X13108577Y-12901946D01*
X13122863Y-12887660D01*
X13151434Y-12873374D01*
X13208577Y-12873374D01*
X13237148Y-12887660D01*
X13251434Y-12901946D01*
X13265720Y-12930517D01*
X13265720Y-12944803D01*
X13251434Y-12973374D01*
X13237148Y-12987660D01*
X13208577Y-13001946D01*
X13151434Y-13001946D01*
X13122863Y-13016231D01*
X13108577Y-13030517D01*
X13094291Y-13059089D01*
X13094291Y-13116231D01*
X13108577Y-13144803D01*
X13122863Y-13159089D01*
X13151434Y-13173374D01*
X13208577Y-13173374D01*
X13237148Y-13159089D01*
X13251434Y-13144803D01*
X13265720Y-13116231D01*
X13265720Y-13059089D01*
X13251434Y-13030517D01*
X13237148Y-13016231D01*
X13208577Y-13001946D01*
X13380006Y-12873374D02*
X13380006Y-12930517D01*
X13494291Y-12873374D02*
X13494291Y-12930517D01*
X13937148Y-13287660D02*
X13922863Y-13273374D01*
X13894291Y-13230517D01*
X13880006Y-13201946D01*
X13865720Y-13159089D01*
X13851434Y-13087660D01*
X13851434Y-13030517D01*
X13865720Y-12959089D01*
X13880006Y-12916231D01*
X13894291Y-12887660D01*
X13922863Y-12844803D01*
X13937148Y-12830517D01*
X14194291Y-12873374D02*
X14051434Y-12873374D01*
X14037148Y-13016231D01*
X14051434Y-13001946D01*
X14080006Y-12987660D01*
X14151434Y-12987660D01*
X14180006Y-13001946D01*
X14194291Y-13016231D01*
X14208577Y-13044803D01*
X14208577Y-13116231D01*
X14194291Y-13144803D01*
X14180006Y-13159089D01*
X14151434Y-13173374D01*
X14080006Y-13173374D01*
X14051434Y-13159089D01*
X14037148Y-13144803D01*
X14565720Y-13173374D02*
X14565720Y-12873374D01*
X14694291Y-13173374D02*
X14694291Y-13016231D01*
X14680006Y-12987660D01*
X14651434Y-12973374D01*
X14608577Y-12973374D01*
X14580006Y-12987660D01*
X14565720Y-13001946D01*
X14880006Y-13173374D02*
X14851434Y-13159089D01*
X14837148Y-13144803D01*
X14822863Y-13116231D01*
X14822863Y-13030517D01*
X14837148Y-13001946D01*
X14851434Y-12987660D01*
X14880006Y-12973374D01*
X14922863Y-12973374D01*
X14951434Y-12987660D01*
X14965720Y-13001946D01*
X14980006Y-13030517D01*
X14980006Y-13116231D01*
X14965720Y-13144803D01*
X14951434Y-13159089D01*
X14922863Y-13173374D01*
X14880006Y-13173374D01*
X15151434Y-13173374D02*
X15122863Y-13159089D01*
X15108577Y-13130517D01*
X15108577Y-12873374D01*
X15380006Y-13159089D02*
X15351434Y-13173374D01*
X15294291Y-13173374D01*
X15265720Y-13159089D01*
X15251434Y-13130517D01*
X15251434Y-13016231D01*
X15265720Y-12987660D01*
X15294291Y-12973374D01*
X15351434Y-12973374D01*
X15380006Y-12987660D01*
X15394291Y-13016231D01*
X15394291Y-13044803D01*
X15251434Y-13073374D01*
X15508577Y-13159089D02*
X15537148Y-13173374D01*
X15594291Y-13173374D01*
X15622863Y-13159089D01*
X15637148Y-13130517D01*
X15637148Y-13116231D01*
X15622863Y-13087660D01*
X15594291Y-13073374D01*
X15551434Y-13073374D01*
X15522863Y-13059089D01*
X15508577Y-13030517D01*
X15508577Y-13016231D01*
X15522863Y-12987660D01*
X15551434Y-12973374D01*
X15594291Y-12973374D01*
X15622863Y-12987660D01*
X15994291Y-13059089D02*
X16222863Y-13059089D01*
X16108577Y-13173374D02*
X16108577Y-12944803D01*
X16580006Y-12901946D02*
X16594291Y-12887660D01*
X16622863Y-12873374D01*
X16694291Y-12873374D01*
X16722863Y-12887660D01*
X16737148Y-12901946D01*
X16751434Y-12930517D01*
X16751434Y-12959089D01*
X16737148Y-13001946D01*
X16565720Y-13173374D01*
X16751434Y-13173374D01*
X17094291Y-13159089D02*
X17122863Y-13173374D01*
X17180006Y-13173374D01*
X17208577Y-13159089D01*
X17222863Y-13130517D01*
X17222863Y-13116231D01*
X17208577Y-13087660D01*
X17180006Y-13073374D01*
X17137148Y-13073374D01*
X17108577Y-13059089D01*
X17094291Y-13030517D01*
X17094291Y-13016231D01*
X17108577Y-12987660D01*
X17137148Y-12973374D01*
X17180006Y-12973374D01*
X17208577Y-12987660D01*
X17394291Y-13173374D02*
X17365720Y-13159089D01*
X17351434Y-13130517D01*
X17351434Y-12873374D01*
X17551434Y-13173374D02*
X17522863Y-13159089D01*
X17508577Y-13144803D01*
X17494291Y-13116231D01*
X17494291Y-13030517D01*
X17508577Y-13001946D01*
X17522863Y-12987660D01*
X17551434Y-12973374D01*
X17594291Y-12973374D01*
X17622863Y-12987660D01*
X17637148Y-13001946D01*
X17651434Y-13030517D01*
X17651434Y-13116231D01*
X17637148Y-13144803D01*
X17622863Y-13159089D01*
X17594291Y-13173374D01*
X17551434Y-13173374D01*
X17737148Y-12973374D02*
X17851434Y-12973374D01*
X17780006Y-12873374D02*
X17780006Y-13130517D01*
X17794291Y-13159089D01*
X17822863Y-13173374D01*
X17851434Y-13173374D01*
X17937148Y-13159089D02*
X17965720Y-13173374D01*
X18022863Y-13173374D01*
X18051434Y-13159089D01*
X18065720Y-13130517D01*
X18065720Y-13116231D01*
X18051434Y-13087660D01*
X18022863Y-13073374D01*
X17980006Y-13073374D01*
X17951434Y-13059089D01*
X17937148Y-13030517D01*
X17937148Y-13016231D01*
X17951434Y-12987660D01*
X17980006Y-12973374D01*
X18022863Y-12973374D01*
X18051434Y-12987660D01*
X18165720Y-13287660D02*
X18180006Y-13273374D01*
X18208577Y-13230517D01*
X18222863Y-13201946D01*
X18237148Y-13159089D01*
X18251434Y-13087660D01*
X18251434Y-13030517D01*
X18237148Y-12959089D01*
X18222863Y-12916231D01*
X18208577Y-12887660D01*
X18180006Y-12844803D01*
X18165720Y-12830517D01*
X9250720Y-13433660D02*
G75*
G03*
X9250720Y-13433660I-40000J0D01*
G01*
X9594291Y-13269374D02*
X9622863Y-13269374D01*
X9651434Y-13283660D01*
X9665720Y-13297946D01*
X9680006Y-13326517D01*
X9694291Y-13383660D01*
X9694291Y-13455089D01*
X9680006Y-13512231D01*
X9665720Y-13540803D01*
X9651434Y-13555089D01*
X9622863Y-13569374D01*
X9594291Y-13569374D01*
X9565720Y-13555089D01*
X9551434Y-13540803D01*
X9537148Y-13512231D01*
X9522863Y-13455089D01*
X9522863Y-13383660D01*
X9537148Y-13326517D01*
X9551434Y-13297946D01*
X9565720Y-13283660D01*
X9594291Y-13269374D01*
X9822863Y-13540803D02*
X9837148Y-13555089D01*
X9822863Y-13569374D01*
X9808577Y-13555089D01*
X9822863Y-13540803D01*
X9822863Y-13569374D01*
X10008577Y-13397946D02*
X9980006Y-13383660D01*
X9965720Y-13369374D01*
X9951434Y-13340803D01*
X9951434Y-13326517D01*
X9965720Y-13297946D01*
X9980006Y-13283660D01*
X10008577Y-13269374D01*
X10065720Y-13269374D01*
X10094291Y-13283660D01*
X10108577Y-13297946D01*
X10122863Y-13326517D01*
X10122863Y-13340803D01*
X10108577Y-13369374D01*
X10094291Y-13383660D01*
X10065720Y-13397946D01*
X10008577Y-13397946D01*
X9980006Y-13412231D01*
X9965720Y-13426517D01*
X9951434Y-13455089D01*
X9951434Y-13512231D01*
X9965720Y-13540803D01*
X9980006Y-13555089D01*
X10008577Y-13569374D01*
X10065720Y-13569374D01*
X10094291Y-13555089D01*
X10108577Y-13540803D01*
X10122863Y-13512231D01*
X10122863Y-13455089D01*
X10108577Y-13426517D01*
X10094291Y-13412231D01*
X10065720Y-13397946D01*
X10308577Y-13269374D02*
X10337148Y-13269374D01*
X10365720Y-13283660D01*
X10380006Y-13297946D01*
X10394291Y-13326517D01*
X10408577Y-13383660D01*
X10408577Y-13455089D01*
X10394291Y-13512231D01*
X10380006Y-13540803D01*
X10365720Y-13555089D01*
X10337148Y-13569374D01*
X10308577Y-13569374D01*
X10280006Y-13555089D01*
X10265720Y-13540803D01*
X10251434Y-13512231D01*
X10237148Y-13455089D01*
X10237148Y-13383660D01*
X10251434Y-13326517D01*
X10265720Y-13297946D01*
X10280006Y-13283660D01*
X10308577Y-13269374D01*
X10537148Y-13569374D02*
X10537148Y-13369374D01*
X10537148Y-13397946D02*
X10551434Y-13383660D01*
X10580006Y-13369374D01*
X10622863Y-13369374D01*
X10651434Y-13383660D01*
X10665720Y-13412231D01*
X10665720Y-13569374D01*
X10665720Y-13412231D02*
X10680006Y-13383660D01*
X10708577Y-13369374D01*
X10751434Y-13369374D01*
X10780006Y-13383660D01*
X10794291Y-13412231D01*
X10794291Y-13569374D01*
X10937148Y-13569374D02*
X10937148Y-13369374D01*
X10937148Y-13397946D02*
X10951434Y-13383660D01*
X10980006Y-13369374D01*
X11022863Y-13369374D01*
X11051434Y-13383660D01*
X11065720Y-13412231D01*
X11065720Y-13569374D01*
X11065720Y-13412231D02*
X11080006Y-13383660D01*
X11108577Y-13369374D01*
X11151434Y-13369374D01*
X11180006Y-13383660D01*
X11194291Y-13412231D01*
X11194291Y-13569374D01*
X11780006Y-13255089D02*
X11522863Y-13640803D01*
X12165720Y-13269374D02*
X12194291Y-13269374D01*
X12222863Y-13283660D01*
X12237148Y-13297946D01*
X12251434Y-13326517D01*
X12265720Y-13383660D01*
X12265720Y-13455089D01*
X12251434Y-13512231D01*
X12237148Y-13540803D01*
X12222863Y-13555089D01*
X12194291Y-13569374D01*
X12165720Y-13569374D01*
X12137148Y-13555089D01*
X12122863Y-13540803D01*
X12108577Y-13512231D01*
X12094291Y-13455089D01*
X12094291Y-13383660D01*
X12108577Y-13326517D01*
X12122863Y-13297946D01*
X12137148Y-13283660D01*
X12165720Y-13269374D01*
X12394291Y-13540803D02*
X12408577Y-13555089D01*
X12394291Y-13569374D01*
X12380006Y-13555089D01*
X12394291Y-13540803D01*
X12394291Y-13569374D01*
X12594291Y-13269374D02*
X12622863Y-13269374D01*
X12651434Y-13283660D01*
X12665720Y-13297946D01*
X12680006Y-13326517D01*
X12694291Y-13383660D01*
X12694291Y-13455089D01*
X12680006Y-13512231D01*
X12665720Y-13540803D01*
X12651434Y-13555089D01*
X12622863Y-13569374D01*
X12594291Y-13569374D01*
X12565720Y-13555089D01*
X12551434Y-13540803D01*
X12537148Y-13512231D01*
X12522863Y-13455089D01*
X12522863Y-13383660D01*
X12537148Y-13326517D01*
X12551434Y-13297946D01*
X12565720Y-13283660D01*
X12594291Y-13269374D01*
X12794291Y-13269374D02*
X12980006Y-13269374D01*
X12880006Y-13383660D01*
X12922863Y-13383660D01*
X12951434Y-13397946D01*
X12965720Y-13412231D01*
X12980006Y-13440803D01*
X12980006Y-13512231D01*
X12965720Y-13540803D01*
X12951434Y-13555089D01*
X12922863Y-13569374D01*
X12837148Y-13569374D01*
X12808577Y-13555089D01*
X12794291Y-13540803D01*
X13265720Y-13569374D02*
X13094291Y-13569374D01*
X13180006Y-13569374D02*
X13180006Y-13269374D01*
X13151434Y-13312231D01*
X13122863Y-13340803D01*
X13094291Y-13355089D01*
X13380006Y-13269374D02*
X13380006Y-13326517D01*
X13494291Y-13269374D02*
X13494291Y-13326517D01*
X13937148Y-13683660D02*
X13922863Y-13669374D01*
X13894291Y-13626517D01*
X13880006Y-13597946D01*
X13865720Y-13555089D01*
X13851434Y-13483660D01*
X13851434Y-13426517D01*
X13865720Y-13355089D01*
X13880006Y-13312231D01*
X13894291Y-13283660D01*
X13922863Y-13240803D01*
X13937148Y-13226517D01*
X14037148Y-13297946D02*
X14051434Y-13283660D01*
X14080006Y-13269374D01*
X14151434Y-13269374D01*
X14180006Y-13283660D01*
X14194291Y-13297946D01*
X14208577Y-13326517D01*
X14208577Y-13355089D01*
X14194291Y-13397946D01*
X14022863Y-13569374D01*
X14208577Y-13569374D01*
X14565720Y-13569374D02*
X14565720Y-13269374D01*
X14694291Y-13569374D02*
X14694291Y-13412231D01*
X14680006Y-13383660D01*
X14651434Y-13369374D01*
X14608577Y-13369374D01*
X14580006Y-13383660D01*
X14565720Y-13397946D01*
X14880006Y-13569374D02*
X14851434Y-13555089D01*
X14837148Y-13540803D01*
X14822863Y-13512231D01*
X14822863Y-13426517D01*
X14837148Y-13397946D01*
X14851434Y-13383660D01*
X14880006Y-13369374D01*
X14922863Y-13369374D01*
X14951434Y-13383660D01*
X14965720Y-13397946D01*
X14980006Y-13426517D01*
X14980006Y-13512231D01*
X14965720Y-13540803D01*
X14951434Y-13555089D01*
X14922863Y-13569374D01*
X14880006Y-13569374D01*
X15151434Y-13569374D02*
X15122863Y-13555089D01*
X15108577Y-13526517D01*
X15108577Y-13269374D01*
X15380006Y-13555089D02*
X15351434Y-13569374D01*
X15294291Y-13569374D01*
X15265720Y-13555089D01*
X15251434Y-13526517D01*
X15251434Y-13412231D01*
X15265720Y-13383660D01*
X15294291Y-13369374D01*
X15351434Y-13369374D01*
X15380006Y-13383660D01*
X15394291Y-13412231D01*
X15394291Y-13440803D01*
X15251434Y-13469374D01*
X15508577Y-13555089D02*
X15537148Y-13569374D01*
X15594291Y-13569374D01*
X15622863Y-13555089D01*
X15637148Y-13526517D01*
X15637148Y-13512231D01*
X15622863Y-13483660D01*
X15594291Y-13469374D01*
X15551434Y-13469374D01*
X15522863Y-13455089D01*
X15508577Y-13426517D01*
X15508577Y-13412231D01*
X15522863Y-13383660D01*
X15551434Y-13369374D01*
X15594291Y-13369374D01*
X15622863Y-13383660D01*
X15737148Y-13683660D02*
X15751434Y-13669374D01*
X15780006Y-13626517D01*
X15794291Y-13597946D01*
X15808577Y-13555089D01*
X15822863Y-13483660D01*
X15822863Y-13426517D01*
X15808577Y-13355089D01*
X15794291Y-13312231D01*
X15780006Y-13283660D01*
X15751434Y-13240803D01*
X15737148Y-13226517D01*
X9205720Y-13784660D02*
X9205720Y-13874660D01*
X9160720Y-13829660D02*
X9250720Y-13829660D01*
X9594291Y-13665374D02*
X9622863Y-13665374D01*
X9651434Y-13679660D01*
X9665720Y-13693946D01*
X9680006Y-13722517D01*
X9694291Y-13779660D01*
X9694291Y-13851089D01*
X9680006Y-13908231D01*
X9665720Y-13936803D01*
X9651434Y-13951089D01*
X9622863Y-13965374D01*
X9594291Y-13965374D01*
X9565720Y-13951089D01*
X9551434Y-13936803D01*
X9537148Y-13908231D01*
X9522863Y-13851089D01*
X9522863Y-13779660D01*
X9537148Y-13722517D01*
X9551434Y-13693946D01*
X9565720Y-13679660D01*
X9594291Y-13665374D01*
X9822863Y-13936803D02*
X9837148Y-13951089D01*
X9822863Y-13965374D01*
X9808577Y-13951089D01*
X9822863Y-13936803D01*
X9822863Y-13965374D01*
X9980006Y-13965374D02*
X10037148Y-13965374D01*
X10065720Y-13951089D01*
X10080006Y-13936803D01*
X10108577Y-13893946D01*
X10122863Y-13836803D01*
X10122863Y-13722517D01*
X10108577Y-13693946D01*
X10094291Y-13679660D01*
X10065720Y-13665374D01*
X10008577Y-13665374D01*
X9980006Y-13679660D01*
X9965720Y-13693946D01*
X9951434Y-13722517D01*
X9951434Y-13793946D01*
X9965720Y-13822517D01*
X9980006Y-13836803D01*
X10008577Y-13851089D01*
X10065720Y-13851089D01*
X10094291Y-13836803D01*
X10108577Y-13822517D01*
X10122863Y-13793946D01*
X10308577Y-13665374D02*
X10337148Y-13665374D01*
X10365720Y-13679660D01*
X10380006Y-13693946D01*
X10394291Y-13722517D01*
X10408577Y-13779660D01*
X10408577Y-13851089D01*
X10394291Y-13908231D01*
X10380006Y-13936803D01*
X10365720Y-13951089D01*
X10337148Y-13965374D01*
X10308577Y-13965374D01*
X10280006Y-13951089D01*
X10265720Y-13936803D01*
X10251434Y-13908231D01*
X10237148Y-13851089D01*
X10237148Y-13779660D01*
X10251434Y-13722517D01*
X10265720Y-13693946D01*
X10280006Y-13679660D01*
X10308577Y-13665374D01*
X10537148Y-13965374D02*
X10537148Y-13765374D01*
X10537148Y-13793946D02*
X10551434Y-13779660D01*
X10580006Y-13765374D01*
X10622863Y-13765374D01*
X10651434Y-13779660D01*
X10665720Y-13808231D01*
X10665720Y-13965374D01*
X10665720Y-13808231D02*
X10680006Y-13779660D01*
X10708577Y-13765374D01*
X10751434Y-13765374D01*
X10780006Y-13779660D01*
X10794291Y-13808231D01*
X10794291Y-13965374D01*
X10937148Y-13965374D02*
X10937148Y-13765374D01*
X10937148Y-13793946D02*
X10951434Y-13779660D01*
X10980006Y-13765374D01*
X11022863Y-13765374D01*
X11051434Y-13779660D01*
X11065720Y-13808231D01*
X11065720Y-13965374D01*
X11065720Y-13808231D02*
X11080006Y-13779660D01*
X11108577Y-13765374D01*
X11151434Y-13765374D01*
X11180006Y-13779660D01*
X11194291Y-13808231D01*
X11194291Y-13965374D01*
X11780006Y-13651089D02*
X11522863Y-14036803D01*
X12165720Y-13665374D02*
X12194291Y-13665374D01*
X12222863Y-13679660D01*
X12237148Y-13693946D01*
X12251434Y-13722517D01*
X12265720Y-13779660D01*
X12265720Y-13851089D01*
X12251434Y-13908231D01*
X12237148Y-13936803D01*
X12222863Y-13951089D01*
X12194291Y-13965374D01*
X12165720Y-13965374D01*
X12137148Y-13951089D01*
X12122863Y-13936803D01*
X12108577Y-13908231D01*
X12094291Y-13851089D01*
X12094291Y-13779660D01*
X12108577Y-13722517D01*
X12122863Y-13693946D01*
X12137148Y-13679660D01*
X12165720Y-13665374D01*
X12394291Y-13936803D02*
X12408577Y-13951089D01*
X12394291Y-13965374D01*
X12380006Y-13951089D01*
X12394291Y-13936803D01*
X12394291Y-13965374D01*
X12594291Y-13665374D02*
X12622863Y-13665374D01*
X12651434Y-13679660D01*
X12665720Y-13693946D01*
X12680006Y-13722517D01*
X12694291Y-13779660D01*
X12694291Y-13851089D01*
X12680006Y-13908231D01*
X12665720Y-13936803D01*
X12651434Y-13951089D01*
X12622863Y-13965374D01*
X12594291Y-13965374D01*
X12565720Y-13951089D01*
X12551434Y-13936803D01*
X12537148Y-13908231D01*
X12522863Y-13851089D01*
X12522863Y-13779660D01*
X12537148Y-13722517D01*
X12551434Y-13693946D01*
X12565720Y-13679660D01*
X12594291Y-13665374D01*
X12794291Y-13665374D02*
X12980006Y-13665374D01*
X12880006Y-13779660D01*
X12922863Y-13779660D01*
X12951434Y-13793946D01*
X12965720Y-13808231D01*
X12980006Y-13836803D01*
X12980006Y-13908231D01*
X12965720Y-13936803D01*
X12951434Y-13951089D01*
X12922863Y-13965374D01*
X12837148Y-13965374D01*
X12808577Y-13951089D01*
X12794291Y-13936803D01*
X13251434Y-13665374D02*
X13108577Y-13665374D01*
X13094291Y-13808231D01*
X13108577Y-13793946D01*
X13137148Y-13779660D01*
X13208577Y-13779660D01*
X13237148Y-13793946D01*
X13251434Y-13808231D01*
X13265720Y-13836803D01*
X13265720Y-13908231D01*
X13251434Y-13936803D01*
X13237148Y-13951089D01*
X13208577Y-13965374D01*
X13137148Y-13965374D01*
X13108577Y-13951089D01*
X13094291Y-13936803D01*
X13380006Y-13665374D02*
X13380006Y-13722517D01*
X13494291Y-13665374D02*
X13494291Y-13722517D01*
X13937148Y-14079660D02*
X13922863Y-14065374D01*
X13894291Y-14022517D01*
X13880006Y-13993946D01*
X13865720Y-13951089D01*
X13851434Y-13879660D01*
X13851434Y-13822517D01*
X13865720Y-13751089D01*
X13880006Y-13708231D01*
X13894291Y-13679660D01*
X13922863Y-13636803D01*
X13937148Y-13622517D01*
X14022863Y-13665374D02*
X14208577Y-13665374D01*
X14108577Y-13779660D01*
X14151434Y-13779660D01*
X14180006Y-13793946D01*
X14194291Y-13808231D01*
X14208577Y-13836803D01*
X14208577Y-13908231D01*
X14194291Y-13936803D01*
X14180006Y-13951089D01*
X14151434Y-13965374D01*
X14065720Y-13965374D01*
X14037148Y-13951089D01*
X14022863Y-13936803D01*
X14565720Y-13965374D02*
X14565720Y-13665374D01*
X14694291Y-13965374D02*
X14694291Y-13808231D01*
X14680006Y-13779660D01*
X14651434Y-13765374D01*
X14608577Y-13765374D01*
X14580006Y-13779660D01*
X14565720Y-13793946D01*
X14880006Y-13965374D02*
X14851434Y-13951089D01*
X14837148Y-13936803D01*
X14822863Y-13908231D01*
X14822863Y-13822517D01*
X14837148Y-13793946D01*
X14851434Y-13779660D01*
X14880006Y-13765374D01*
X14922863Y-13765374D01*
X14951434Y-13779660D01*
X14965720Y-13793946D01*
X14980006Y-13822517D01*
X14980006Y-13908231D01*
X14965720Y-13936803D01*
X14951434Y-13951089D01*
X14922863Y-13965374D01*
X14880006Y-13965374D01*
X15151434Y-13965374D02*
X15122863Y-13951089D01*
X15108577Y-13922517D01*
X15108577Y-13665374D01*
X15380006Y-13951089D02*
X15351434Y-13965374D01*
X15294291Y-13965374D01*
X15265720Y-13951089D01*
X15251434Y-13922517D01*
X15251434Y-13808231D01*
X15265720Y-13779660D01*
X15294291Y-13765374D01*
X15351434Y-13765374D01*
X15380006Y-13779660D01*
X15394291Y-13808231D01*
X15394291Y-13836803D01*
X15251434Y-13865374D01*
X15508577Y-13951089D02*
X15537148Y-13965374D01*
X15594291Y-13965374D01*
X15622863Y-13951089D01*
X15637148Y-13922517D01*
X15637148Y-13908231D01*
X15622863Y-13879660D01*
X15594291Y-13865374D01*
X15551434Y-13865374D01*
X15522863Y-13851089D01*
X15508577Y-13822517D01*
X15508577Y-13808231D01*
X15522863Y-13779660D01*
X15551434Y-13765374D01*
X15594291Y-13765374D01*
X15622863Y-13779660D01*
X15737148Y-14079660D02*
X15751434Y-14065374D01*
X15780006Y-14022517D01*
X15794291Y-13993946D01*
X15808577Y-13951089D01*
X15822863Y-13879660D01*
X15822863Y-13822517D01*
X15808577Y-13751089D01*
X15794291Y-13708231D01*
X15780006Y-13679660D01*
X15751434Y-13636803D01*
X15737148Y-13622517D01*
X9237247Y-14258187D02*
X9237247Y-14193133D01*
X9172193Y-14193133D01*
X9172193Y-14258187D01*
X9237247Y-14258187D01*
X9594291Y-14061374D02*
X9622863Y-14061374D01*
X9651434Y-14075660D01*
X9665720Y-14089946D01*
X9680006Y-14118517D01*
X9694291Y-14175660D01*
X9694291Y-14247089D01*
X9680006Y-14304231D01*
X9665720Y-14332803D01*
X9651434Y-14347089D01*
X9622863Y-14361374D01*
X9594291Y-14361374D01*
X9565720Y-14347089D01*
X9551434Y-14332803D01*
X9537148Y-14304231D01*
X9522863Y-14247089D01*
X9522863Y-14175660D01*
X9537148Y-14118517D01*
X9551434Y-14089946D01*
X9565720Y-14075660D01*
X9594291Y-14061374D01*
X9822863Y-14332803D02*
X9837148Y-14347089D01*
X9822863Y-14361374D01*
X9808577Y-14347089D01*
X9822863Y-14332803D01*
X9822863Y-14361374D01*
X9980006Y-14361374D02*
X10037148Y-14361374D01*
X10065720Y-14347089D01*
X10080006Y-14332803D01*
X10108577Y-14289946D01*
X10122863Y-14232803D01*
X10122863Y-14118517D01*
X10108577Y-14089946D01*
X10094291Y-14075660D01*
X10065720Y-14061374D01*
X10008577Y-14061374D01*
X9980006Y-14075660D01*
X9965720Y-14089946D01*
X9951434Y-14118517D01*
X9951434Y-14189946D01*
X9965720Y-14218517D01*
X9980006Y-14232803D01*
X10008577Y-14247089D01*
X10065720Y-14247089D01*
X10094291Y-14232803D01*
X10108577Y-14218517D01*
X10122863Y-14189946D01*
X10237148Y-14089946D02*
X10251434Y-14075660D01*
X10280006Y-14061374D01*
X10351434Y-14061374D01*
X10380006Y-14075660D01*
X10394291Y-14089946D01*
X10408577Y-14118517D01*
X10408577Y-14147089D01*
X10394291Y-14189946D01*
X10222863Y-14361374D01*
X10408577Y-14361374D01*
X10537148Y-14361374D02*
X10537148Y-14161374D01*
X10537148Y-14189946D02*
X10551434Y-14175660D01*
X10580006Y-14161374D01*
X10622863Y-14161374D01*
X10651434Y-14175660D01*
X10665720Y-14204231D01*
X10665720Y-14361374D01*
X10665720Y-14204231D02*
X10680006Y-14175660D01*
X10708577Y-14161374D01*
X10751434Y-14161374D01*
X10780006Y-14175660D01*
X10794291Y-14204231D01*
X10794291Y-14361374D01*
X10937148Y-14361374D02*
X10937148Y-14161374D01*
X10937148Y-14189946D02*
X10951434Y-14175660D01*
X10980006Y-14161374D01*
X11022863Y-14161374D01*
X11051434Y-14175660D01*
X11065720Y-14204231D01*
X11065720Y-14361374D01*
X11065720Y-14204231D02*
X11080006Y-14175660D01*
X11108577Y-14161374D01*
X11151434Y-14161374D01*
X11180006Y-14175660D01*
X11194291Y-14204231D01*
X11194291Y-14361374D01*
X11780006Y-14047089D02*
X11522863Y-14432803D01*
X12165720Y-14061374D02*
X12194291Y-14061374D01*
X12222863Y-14075660D01*
X12237148Y-14089946D01*
X12251434Y-14118517D01*
X12265720Y-14175660D01*
X12265720Y-14247089D01*
X12251434Y-14304231D01*
X12237148Y-14332803D01*
X12222863Y-14347089D01*
X12194291Y-14361374D01*
X12165720Y-14361374D01*
X12137148Y-14347089D01*
X12122863Y-14332803D01*
X12108577Y-14304231D01*
X12094291Y-14247089D01*
X12094291Y-14175660D01*
X12108577Y-14118517D01*
X12122863Y-14089946D01*
X12137148Y-14075660D01*
X12165720Y-14061374D01*
X12394291Y-14332803D02*
X12408577Y-14347089D01*
X12394291Y-14361374D01*
X12380006Y-14347089D01*
X12394291Y-14332803D01*
X12394291Y-14361374D01*
X12594291Y-14061374D02*
X12622863Y-14061374D01*
X12651434Y-14075660D01*
X12665720Y-14089946D01*
X12680006Y-14118517D01*
X12694291Y-14175660D01*
X12694291Y-14247089D01*
X12680006Y-14304231D01*
X12665720Y-14332803D01*
X12651434Y-14347089D01*
X12622863Y-14361374D01*
X12594291Y-14361374D01*
X12565720Y-14347089D01*
X12551434Y-14332803D01*
X12537148Y-14304231D01*
X12522863Y-14247089D01*
X12522863Y-14175660D01*
X12537148Y-14118517D01*
X12551434Y-14089946D01*
X12565720Y-14075660D01*
X12594291Y-14061374D01*
X12794291Y-14061374D02*
X12980006Y-14061374D01*
X12880006Y-14175660D01*
X12922863Y-14175660D01*
X12951434Y-14189946D01*
X12965720Y-14204231D01*
X12980006Y-14232803D01*
X12980006Y-14304231D01*
X12965720Y-14332803D01*
X12951434Y-14347089D01*
X12922863Y-14361374D01*
X12837148Y-14361374D01*
X12808577Y-14347089D01*
X12794291Y-14332803D01*
X13237148Y-14061374D02*
X13180006Y-14061374D01*
X13151434Y-14075660D01*
X13137148Y-14089946D01*
X13108577Y-14132803D01*
X13094291Y-14189946D01*
X13094291Y-14304231D01*
X13108577Y-14332803D01*
X13122863Y-14347089D01*
X13151434Y-14361374D01*
X13208577Y-14361374D01*
X13237148Y-14347089D01*
X13251434Y-14332803D01*
X13265720Y-14304231D01*
X13265720Y-14232803D01*
X13251434Y-14204231D01*
X13237148Y-14189946D01*
X13208577Y-14175660D01*
X13151434Y-14175660D01*
X13122863Y-14189946D01*
X13108577Y-14204231D01*
X13094291Y-14232803D01*
X13380006Y-14061374D02*
X13380006Y-14118517D01*
X13494291Y-14061374D02*
X13494291Y-14118517D01*
X13937148Y-14475660D02*
X13922863Y-14461374D01*
X13894291Y-14418517D01*
X13880006Y-14389946D01*
X13865720Y-14347089D01*
X13851434Y-14275660D01*
X13851434Y-14218517D01*
X13865720Y-14147089D01*
X13880006Y-14104231D01*
X13894291Y-14075660D01*
X13922863Y-14032803D01*
X13937148Y-14018517D01*
X14180006Y-14161374D02*
X14180006Y-14361374D01*
X14108577Y-14047089D02*
X14037148Y-14261374D01*
X14222863Y-14261374D01*
X14565720Y-14361374D02*
X14565720Y-14061374D01*
X14694291Y-14361374D02*
X14694291Y-14204231D01*
X14680006Y-14175660D01*
X14651434Y-14161374D01*
X14608577Y-14161374D01*
X14580006Y-14175660D01*
X14565720Y-14189946D01*
X14880006Y-14361374D02*
X14851434Y-14347089D01*
X14837148Y-14332803D01*
X14822863Y-14304231D01*
X14822863Y-14218517D01*
X14837148Y-14189946D01*
X14851434Y-14175660D01*
X14880006Y-14161374D01*
X14922863Y-14161374D01*
X14951434Y-14175660D01*
X14965720Y-14189946D01*
X14980006Y-14218517D01*
X14980006Y-14304231D01*
X14965720Y-14332803D01*
X14951434Y-14347089D01*
X14922863Y-14361374D01*
X14880006Y-14361374D01*
X15151434Y-14361374D02*
X15122863Y-14347089D01*
X15108577Y-14318517D01*
X15108577Y-14061374D01*
X15380006Y-14347089D02*
X15351434Y-14361374D01*
X15294291Y-14361374D01*
X15265720Y-14347089D01*
X15251434Y-14318517D01*
X15251434Y-14204231D01*
X15265720Y-14175660D01*
X15294291Y-14161374D01*
X15351434Y-14161374D01*
X15380006Y-14175660D01*
X15394291Y-14204231D01*
X15394291Y-14232803D01*
X15251434Y-14261374D01*
X15508577Y-14347089D02*
X15537148Y-14361374D01*
X15594291Y-14361374D01*
X15622863Y-14347089D01*
X15637148Y-14318517D01*
X15637148Y-14304231D01*
X15622863Y-14275660D01*
X15594291Y-14261374D01*
X15551434Y-14261374D01*
X15522863Y-14247089D01*
X15508577Y-14218517D01*
X15508577Y-14204231D01*
X15522863Y-14175660D01*
X15551434Y-14161374D01*
X15594291Y-14161374D01*
X15622863Y-14175660D01*
X15737148Y-14475660D02*
X15751434Y-14461374D01*
X15780006Y-14418517D01*
X15794291Y-14389946D01*
X15808577Y-14347089D01*
X15822863Y-14275660D01*
X15822863Y-14218517D01*
X15808577Y-14147089D01*
X15794291Y-14104231D01*
X15780006Y-14075660D01*
X15751434Y-14032803D01*
X15737148Y-14018517D01*
X9200720Y-14671660D02*
X9250720Y-14621660D01*
X9200720Y-14571660D01*
X9150720Y-14621660D01*
X9200720Y-14671660D01*
X9694291Y-14757374D02*
X9522863Y-14757374D01*
X9608577Y-14757374D02*
X9608577Y-14457374D01*
X9580006Y-14500231D01*
X9551434Y-14528803D01*
X9522863Y-14543089D01*
X9822863Y-14728803D02*
X9837148Y-14743089D01*
X9822863Y-14757374D01*
X9808577Y-14743089D01*
X9822863Y-14728803D01*
X9822863Y-14757374D01*
X10022863Y-14457374D02*
X10051434Y-14457374D01*
X10080006Y-14471660D01*
X10094291Y-14485946D01*
X10108577Y-14514517D01*
X10122863Y-14571660D01*
X10122863Y-14643089D01*
X10108577Y-14700231D01*
X10094291Y-14728803D01*
X10080006Y-14743089D01*
X10051434Y-14757374D01*
X10022863Y-14757374D01*
X9994291Y-14743089D01*
X9980006Y-14728803D01*
X9965720Y-14700231D01*
X9951434Y-14643089D01*
X9951434Y-14571660D01*
X9965720Y-14514517D01*
X9980006Y-14485946D01*
X9994291Y-14471660D01*
X10022863Y-14457374D01*
X10308577Y-14457374D02*
X10337148Y-14457374D01*
X10365720Y-14471660D01*
X10380006Y-14485946D01*
X10394291Y-14514517D01*
X10408577Y-14571660D01*
X10408577Y-14643089D01*
X10394291Y-14700231D01*
X10380006Y-14728803D01*
X10365720Y-14743089D01*
X10337148Y-14757374D01*
X10308577Y-14757374D01*
X10280006Y-14743089D01*
X10265720Y-14728803D01*
X10251434Y-14700231D01*
X10237148Y-14643089D01*
X10237148Y-14571660D01*
X10251434Y-14514517D01*
X10265720Y-14485946D01*
X10280006Y-14471660D01*
X10308577Y-14457374D01*
X10537148Y-14757374D02*
X10537148Y-14557374D01*
X10537148Y-14585946D02*
X10551434Y-14571660D01*
X10580006Y-14557374D01*
X10622863Y-14557374D01*
X10651434Y-14571660D01*
X10665720Y-14600231D01*
X10665720Y-14757374D01*
X10665720Y-14600231D02*
X10680006Y-14571660D01*
X10708577Y-14557374D01*
X10751434Y-14557374D01*
X10780006Y-14571660D01*
X10794291Y-14600231D01*
X10794291Y-14757374D01*
X10937148Y-14757374D02*
X10937148Y-14557374D01*
X10937148Y-14585946D02*
X10951434Y-14571660D01*
X10980006Y-14557374D01*
X11022863Y-14557374D01*
X11051434Y-14571660D01*
X11065720Y-14600231D01*
X11065720Y-14757374D01*
X11065720Y-14600231D02*
X11080006Y-14571660D01*
X11108577Y-14557374D01*
X11151434Y-14557374D01*
X11180006Y-14571660D01*
X11194291Y-14600231D01*
X11194291Y-14757374D01*
X11780006Y-14443089D02*
X11522863Y-14828803D01*
X12165720Y-14457374D02*
X12194291Y-14457374D01*
X12222863Y-14471660D01*
X12237148Y-14485946D01*
X12251434Y-14514517D01*
X12265720Y-14571660D01*
X12265720Y-14643089D01*
X12251434Y-14700231D01*
X12237148Y-14728803D01*
X12222863Y-14743089D01*
X12194291Y-14757374D01*
X12165720Y-14757374D01*
X12137148Y-14743089D01*
X12122863Y-14728803D01*
X12108577Y-14700231D01*
X12094291Y-14643089D01*
X12094291Y-14571660D01*
X12108577Y-14514517D01*
X12122863Y-14485946D01*
X12137148Y-14471660D01*
X12165720Y-14457374D01*
X12394291Y-14728803D02*
X12408577Y-14743089D01*
X12394291Y-14757374D01*
X12380006Y-14743089D01*
X12394291Y-14728803D01*
X12394291Y-14757374D01*
X12594291Y-14457374D02*
X12622863Y-14457374D01*
X12651434Y-14471660D01*
X12665720Y-14485946D01*
X12680006Y-14514517D01*
X12694291Y-14571660D01*
X12694291Y-14643089D01*
X12680006Y-14700231D01*
X12665720Y-14728803D01*
X12651434Y-14743089D01*
X12622863Y-14757374D01*
X12594291Y-14757374D01*
X12565720Y-14743089D01*
X12551434Y-14728803D01*
X12537148Y-14700231D01*
X12522863Y-14643089D01*
X12522863Y-14571660D01*
X12537148Y-14514517D01*
X12551434Y-14485946D01*
X12565720Y-14471660D01*
X12594291Y-14457374D01*
X12794291Y-14457374D02*
X12980006Y-14457374D01*
X12880006Y-14571660D01*
X12922863Y-14571660D01*
X12951434Y-14585946D01*
X12965720Y-14600231D01*
X12980006Y-14628803D01*
X12980006Y-14700231D01*
X12965720Y-14728803D01*
X12951434Y-14743089D01*
X12922863Y-14757374D01*
X12837148Y-14757374D01*
X12808577Y-14743089D01*
X12794291Y-14728803D01*
X13122863Y-14757374D02*
X13180006Y-14757374D01*
X13208577Y-14743089D01*
X13222863Y-14728803D01*
X13251434Y-14685946D01*
X13265720Y-14628803D01*
X13265720Y-14514517D01*
X13251434Y-14485946D01*
X13237148Y-14471660D01*
X13208577Y-14457374D01*
X13151434Y-14457374D01*
X13122863Y-14471660D01*
X13108577Y-14485946D01*
X13094291Y-14514517D01*
X13094291Y-14585946D01*
X13108577Y-14614517D01*
X13122863Y-14628803D01*
X13151434Y-14643089D01*
X13208577Y-14643089D01*
X13237148Y-14628803D01*
X13251434Y-14614517D01*
X13265720Y-14585946D01*
X13380006Y-14457374D02*
X13380006Y-14514517D01*
X13494291Y-14457374D02*
X13494291Y-14514517D01*
X13937148Y-14871660D02*
X13922863Y-14857374D01*
X13894291Y-14814517D01*
X13880006Y-14785946D01*
X13865720Y-14743089D01*
X13851434Y-14671660D01*
X13851434Y-14614517D01*
X13865720Y-14543089D01*
X13880006Y-14500231D01*
X13894291Y-14471660D01*
X13922863Y-14428803D01*
X13937148Y-14414517D01*
X14037148Y-14485946D02*
X14051434Y-14471660D01*
X14080006Y-14457374D01*
X14151434Y-14457374D01*
X14180006Y-14471660D01*
X14194291Y-14485946D01*
X14208577Y-14514517D01*
X14208577Y-14543089D01*
X14194291Y-14585946D01*
X14022863Y-14757374D01*
X14208577Y-14757374D01*
X14565720Y-14757374D02*
X14565720Y-14457374D01*
X14694291Y-14757374D02*
X14694291Y-14600231D01*
X14680006Y-14571660D01*
X14651434Y-14557374D01*
X14608577Y-14557374D01*
X14580006Y-14571660D01*
X14565720Y-14585946D01*
X14880006Y-14757374D02*
X14851434Y-14743089D01*
X14837148Y-14728803D01*
X14822863Y-14700231D01*
X14822863Y-14614517D01*
X14837148Y-14585946D01*
X14851434Y-14571660D01*
X14880006Y-14557374D01*
X14922863Y-14557374D01*
X14951434Y-14571660D01*
X14965720Y-14585946D01*
X14980006Y-14614517D01*
X14980006Y-14700231D01*
X14965720Y-14728803D01*
X14951434Y-14743089D01*
X14922863Y-14757374D01*
X14880006Y-14757374D01*
X15151434Y-14757374D02*
X15122863Y-14743089D01*
X15108577Y-14714517D01*
X15108577Y-14457374D01*
X15380006Y-14743089D02*
X15351434Y-14757374D01*
X15294291Y-14757374D01*
X15265720Y-14743089D01*
X15251434Y-14714517D01*
X15251434Y-14600231D01*
X15265720Y-14571660D01*
X15294291Y-14557374D01*
X15351434Y-14557374D01*
X15380006Y-14571660D01*
X15394291Y-14600231D01*
X15394291Y-14628803D01*
X15251434Y-14657374D01*
X15508577Y-14743089D02*
X15537148Y-14757374D01*
X15594291Y-14757374D01*
X15622863Y-14743089D01*
X15637148Y-14714517D01*
X15637148Y-14700231D01*
X15622863Y-14671660D01*
X15594291Y-14657374D01*
X15551434Y-14657374D01*
X15522863Y-14643089D01*
X15508577Y-14614517D01*
X15508577Y-14600231D01*
X15522863Y-14571660D01*
X15551434Y-14557374D01*
X15594291Y-14557374D01*
X15622863Y-14571660D01*
X15737148Y-14871660D02*
X15751434Y-14857374D01*
X15780006Y-14814517D01*
X15794291Y-14785946D01*
X15808577Y-14743089D01*
X15822863Y-14671660D01*
X15822863Y-14614517D01*
X15808577Y-14543089D01*
X15794291Y-14500231D01*
X15780006Y-14471660D01*
X15751434Y-14428803D01*
X15737148Y-14414517D01*
X9020720Y-14902660D02*
X9250720Y-15132660D01*
X9250720Y-14902660D02*
X9020720Y-15132660D01*
X9250720Y-15017660D02*
G75*
G03*
X9250720Y-15017660I-115000J0D01*
G01*
X9522863Y-14881946D02*
X9537148Y-14867660D01*
X9565720Y-14853374D01*
X9637148Y-14853374D01*
X9665720Y-14867660D01*
X9680006Y-14881946D01*
X9694291Y-14910517D01*
X9694291Y-14939089D01*
X9680006Y-14981946D01*
X9508577Y-15153374D01*
X9694291Y-15153374D01*
X9822863Y-15124803D02*
X9837148Y-15139089D01*
X9822863Y-15153374D01*
X9808577Y-15139089D01*
X9822863Y-15124803D01*
X9822863Y-15153374D01*
X9937148Y-14853374D02*
X10122863Y-14853374D01*
X10022863Y-14967660D01*
X10065720Y-14967660D01*
X10094291Y-14981946D01*
X10108577Y-14996231D01*
X10122863Y-15024803D01*
X10122863Y-15096231D01*
X10108577Y-15124803D01*
X10094291Y-15139089D01*
X10065720Y-15153374D01*
X9980006Y-15153374D01*
X9951434Y-15139089D01*
X9937148Y-15124803D01*
X10308577Y-14853374D02*
X10337148Y-14853374D01*
X10365720Y-14867660D01*
X10380006Y-14881946D01*
X10394291Y-14910517D01*
X10408577Y-14967660D01*
X10408577Y-15039089D01*
X10394291Y-15096231D01*
X10380006Y-15124803D01*
X10365720Y-15139089D01*
X10337148Y-15153374D01*
X10308577Y-15153374D01*
X10280006Y-15139089D01*
X10265720Y-15124803D01*
X10251434Y-15096231D01*
X10237148Y-15039089D01*
X10237148Y-14967660D01*
X10251434Y-14910517D01*
X10265720Y-14881946D01*
X10280006Y-14867660D01*
X10308577Y-14853374D01*
X10537148Y-15153374D02*
X10537148Y-14953374D01*
X10537148Y-14981946D02*
X10551434Y-14967660D01*
X10580006Y-14953374D01*
X10622863Y-14953374D01*
X10651434Y-14967660D01*
X10665720Y-14996231D01*
X10665720Y-15153374D01*
X10665720Y-14996231D02*
X10680006Y-14967660D01*
X10708577Y-14953374D01*
X10751434Y-14953374D01*
X10780006Y-14967660D01*
X10794291Y-14996231D01*
X10794291Y-15153374D01*
X10937148Y-15153374D02*
X10937148Y-14953374D01*
X10937148Y-14981946D02*
X10951434Y-14967660D01*
X10980006Y-14953374D01*
X11022863Y-14953374D01*
X11051434Y-14967660D01*
X11065720Y-14996231D01*
X11065720Y-15153374D01*
X11065720Y-14996231D02*
X11080006Y-14967660D01*
X11108577Y-14953374D01*
X11151434Y-14953374D01*
X11180006Y-14967660D01*
X11194291Y-14996231D01*
X11194291Y-15153374D01*
X11780006Y-14839089D02*
X11522863Y-15224803D01*
X12165720Y-14853374D02*
X12194291Y-14853374D01*
X12222863Y-14867660D01*
X12237148Y-14881946D01*
X12251434Y-14910517D01*
X12265720Y-14967660D01*
X12265720Y-15039089D01*
X12251434Y-15096231D01*
X12237148Y-15124803D01*
X12222863Y-15139089D01*
X12194291Y-15153374D01*
X12165720Y-15153374D01*
X12137148Y-15139089D01*
X12122863Y-15124803D01*
X12108577Y-15096231D01*
X12094291Y-15039089D01*
X12094291Y-14967660D01*
X12108577Y-14910517D01*
X12122863Y-14881946D01*
X12137148Y-14867660D01*
X12165720Y-14853374D01*
X12394291Y-15124803D02*
X12408577Y-15139089D01*
X12394291Y-15153374D01*
X12380006Y-15139089D01*
X12394291Y-15124803D01*
X12394291Y-15153374D01*
X12594291Y-14853374D02*
X12622863Y-14853374D01*
X12651434Y-14867660D01*
X12665720Y-14881946D01*
X12680006Y-14910517D01*
X12694291Y-14967660D01*
X12694291Y-15039089D01*
X12680006Y-15096231D01*
X12665720Y-15124803D01*
X12651434Y-15139089D01*
X12622863Y-15153374D01*
X12594291Y-15153374D01*
X12565720Y-15139089D01*
X12551434Y-15124803D01*
X12537148Y-15096231D01*
X12522863Y-15039089D01*
X12522863Y-14967660D01*
X12537148Y-14910517D01*
X12551434Y-14881946D01*
X12565720Y-14867660D01*
X12594291Y-14853374D01*
X12837148Y-15153374D02*
X12894291Y-15153374D01*
X12922863Y-15139089D01*
X12937148Y-15124803D01*
X12965720Y-15081946D01*
X12980006Y-15024803D01*
X12980006Y-14910517D01*
X12965720Y-14881946D01*
X12951434Y-14867660D01*
X12922863Y-14853374D01*
X12865720Y-14853374D01*
X12837148Y-14867660D01*
X12822863Y-14881946D01*
X12808577Y-14910517D01*
X12808577Y-14981946D01*
X12822863Y-15010517D01*
X12837148Y-15024803D01*
X12865720Y-15039089D01*
X12922863Y-15039089D01*
X12951434Y-15024803D01*
X12965720Y-15010517D01*
X12980006Y-14981946D01*
X13265720Y-15153374D02*
X13094291Y-15153374D01*
X13180006Y-15153374D02*
X13180006Y-14853374D01*
X13151434Y-14896231D01*
X13122863Y-14924803D01*
X13094291Y-14939089D01*
X13380006Y-14853374D02*
X13380006Y-14910517D01*
X13494291Y-14853374D02*
X13494291Y-14910517D01*
X13937148Y-15267660D02*
X13922863Y-15253374D01*
X13894291Y-15210517D01*
X13880006Y-15181946D01*
X13865720Y-15139089D01*
X13851434Y-15067660D01*
X13851434Y-15010517D01*
X13865720Y-14939089D01*
X13880006Y-14896231D01*
X13894291Y-14867660D01*
X13922863Y-14824803D01*
X13937148Y-14810517D01*
X14037148Y-14881946D02*
X14051434Y-14867660D01*
X14080006Y-14853374D01*
X14151434Y-14853374D01*
X14180006Y-14867660D01*
X14194291Y-14881946D01*
X14208577Y-14910517D01*
X14208577Y-14939089D01*
X14194291Y-14981946D01*
X14022863Y-15153374D01*
X14208577Y-15153374D01*
X14565720Y-15153374D02*
X14565720Y-14853374D01*
X14694291Y-15153374D02*
X14694291Y-14996231D01*
X14680006Y-14967660D01*
X14651434Y-14953374D01*
X14608577Y-14953374D01*
X14580006Y-14967660D01*
X14565720Y-14981946D01*
X14880006Y-15153374D02*
X14851434Y-15139089D01*
X14837148Y-15124803D01*
X14822863Y-15096231D01*
X14822863Y-15010517D01*
X14837148Y-14981946D01*
X14851434Y-14967660D01*
X14880006Y-14953374D01*
X14922863Y-14953374D01*
X14951434Y-14967660D01*
X14965720Y-14981946D01*
X14980006Y-15010517D01*
X14980006Y-15096231D01*
X14965720Y-15124803D01*
X14951434Y-15139089D01*
X14922863Y-15153374D01*
X14880006Y-15153374D01*
X15151434Y-15153374D02*
X15122863Y-15139089D01*
X15108577Y-15110517D01*
X15108577Y-14853374D01*
X15380006Y-15139089D02*
X15351434Y-15153374D01*
X15294291Y-15153374D01*
X15265720Y-15139089D01*
X15251434Y-15110517D01*
X15251434Y-14996231D01*
X15265720Y-14967660D01*
X15294291Y-14953374D01*
X15351434Y-14953374D01*
X15380006Y-14967660D01*
X15394291Y-14996231D01*
X15394291Y-15024803D01*
X15251434Y-15053374D01*
X15508577Y-15139089D02*
X15537148Y-15153374D01*
X15594291Y-15153374D01*
X15622863Y-15139089D01*
X15637148Y-15110517D01*
X15637148Y-15096231D01*
X15622863Y-15067660D01*
X15594291Y-15053374D01*
X15551434Y-15053374D01*
X15522863Y-15039089D01*
X15508577Y-15010517D01*
X15508577Y-14996231D01*
X15522863Y-14967660D01*
X15551434Y-14953374D01*
X15594291Y-14953374D01*
X15622863Y-14967660D01*
X15737148Y-15267660D02*
X15751434Y-15253374D01*
X15780006Y-15210517D01*
X15794291Y-15181946D01*
X15808577Y-15139089D01*
X15822863Y-15067660D01*
X15822863Y-15010517D01*
X15808577Y-14939089D01*
X15794291Y-14896231D01*
X15780006Y-14867660D01*
X15751434Y-14824803D01*
X15737148Y-14810517D01*
M02*
