%TF.GenerationSoftware,KiCad,Pcbnew,(5.1.9)-1*%
%TF.CreationDate,2021-04-25T21:03:41-04:00*%
%TF.ProjectId,PowerStripper,506f7765-7253-4747-9269-707065722e6b,v01*%
%TF.SameCoordinates,Original*%
%TF.FileFunction,Legend,Top*%
%TF.FilePolarity,Positive*%
%FSLAX46Y46*%
G04 Gerber Fmt 4.6, Leading zero omitted, Abs format (unit mm)*
G04 Created by KiCad (PCBNEW (5.1.9)-1) date 2021-04-25 21:03:41*
%MOMM*%
%LPD*%
G01*
G04 APERTURE LIST*
%ADD10C,0.100000*%
%ADD11C,0.120000*%
%ADD12C,0.150000*%
G04 APERTURE END LIST*
D10*
%TO.C,J1*%
X125328800Y-108242200D02*
X125353800Y-108242200D01*
X125328800Y-108892200D02*
X125328800Y-108242200D01*
X126203800Y-108242200D02*
X125353800Y-108242200D01*
X133728800Y-108242200D02*
X134578800Y-108242200D01*
X134578800Y-108242200D02*
X134578800Y-108867200D01*
X133653800Y-116192200D02*
X134578800Y-116192200D01*
X134578800Y-116192200D02*
X134578800Y-115567200D01*
X125903800Y-116192200D02*
X125328800Y-116192200D01*
X125328800Y-116192200D02*
X125328800Y-115717200D01*
%TO.C,J2*%
X106109800Y-116352200D02*
X105384800Y-116352200D01*
X106109800Y-115402200D02*
X106109800Y-116352200D01*
X106109800Y-103002200D02*
X105309800Y-103002200D01*
X106109800Y-104027200D02*
X106109800Y-103002200D01*
X92779800Y-116352200D02*
X92779800Y-115652200D01*
X93429800Y-116352200D02*
X92779800Y-116352200D01*
X92779800Y-103002200D02*
X93454800Y-103002200D01*
X92779800Y-103977200D02*
X92779800Y-103002200D01*
%TO.C,D1*%
X128422200Y-98522800D02*
X128422200Y-98772800D01*
X128422200Y-101222800D02*
X128422200Y-100972800D01*
X127817667Y-98031185D02*
G75*
G02*
X128422200Y-98522800I-995467J-1841615D01*
G01*
X128429485Y-101228947D02*
G75*
G02*
X127822200Y-101722800I-1607285J1356147D01*
G01*
X124972200Y-98872800D02*
G75*
G02*
X125822200Y-98022800I1850000J-1000000D01*
G01*
X125822200Y-101722800D02*
G75*
G02*
X124972200Y-100872800I1000000J1850000D01*
G01*
D11*
%TO.C,R1*%
X119759600Y-96831400D02*
X120089600Y-96831400D01*
X120089600Y-96831400D02*
X120089600Y-103371400D01*
X120089600Y-103371400D02*
X119759600Y-103371400D01*
X117679600Y-96831400D02*
X117349600Y-96831400D01*
X117349600Y-96831400D02*
X117349600Y-103371400D01*
X117349600Y-103371400D02*
X117679600Y-103371400D01*
D10*
%TO.C,S1*%
X109050400Y-94341400D02*
X109050400Y-94841400D01*
X109050400Y-94341400D02*
X109550400Y-94341400D01*
X109050400Y-106241400D02*
X109550400Y-106241400D01*
X109050400Y-106241400D02*
X109050400Y-105741400D01*
X113250400Y-106241400D02*
X112750400Y-106241400D01*
X113250400Y-106241400D02*
X113250400Y-105741400D01*
X113250400Y-94341400D02*
X112750400Y-94341400D01*
X113250400Y-94341400D02*
X113250400Y-94841400D01*
%TO.C,J1*%
D12*
X128970466Y-116994580D02*
X128970466Y-117708866D01*
X128922847Y-117851723D01*
X128827609Y-117946961D01*
X128684752Y-117994580D01*
X128589514Y-117994580D01*
X129970466Y-117994580D02*
X129399038Y-117994580D01*
X129684752Y-117994580D02*
X129684752Y-116994580D01*
X129589514Y-117137438D01*
X129494276Y-117232676D01*
X129399038Y-117280295D01*
%TO.C,J2*%
X107552180Y-109935533D02*
X108266466Y-109935533D01*
X108409323Y-109983152D01*
X108504561Y-110078390D01*
X108552180Y-110221247D01*
X108552180Y-110316485D01*
X107647419Y-109506961D02*
X107599800Y-109459342D01*
X107552180Y-109364104D01*
X107552180Y-109126009D01*
X107599800Y-109030771D01*
X107647419Y-108983152D01*
X107742657Y-108935533D01*
X107837895Y-108935533D01*
X107980752Y-108983152D01*
X108552180Y-109554580D01*
X108552180Y-108935533D01*
%TO.C,D1*%
X129894104Y-100325180D02*
X129894104Y-99325180D01*
X130132200Y-99325180D01*
X130275057Y-99372800D01*
X130370295Y-99468038D01*
X130417914Y-99563276D01*
X130465533Y-99753752D01*
X130465533Y-99896609D01*
X130417914Y-100087085D01*
X130370295Y-100182323D01*
X130275057Y-100277561D01*
X130132200Y-100325180D01*
X129894104Y-100325180D01*
X131417914Y-100325180D02*
X130846485Y-100325180D01*
X131132200Y-100325180D02*
X131132200Y-99325180D01*
X131036961Y-99468038D01*
X130941723Y-99563276D01*
X130846485Y-99610895D01*
%TO.C,R1*%
X118552933Y-106903780D02*
X118219600Y-106427590D01*
X117981504Y-106903780D02*
X117981504Y-105903780D01*
X118362457Y-105903780D01*
X118457695Y-105951400D01*
X118505314Y-105999019D01*
X118552933Y-106094257D01*
X118552933Y-106237114D01*
X118505314Y-106332352D01*
X118457695Y-106379971D01*
X118362457Y-106427590D01*
X117981504Y-106427590D01*
X119505314Y-106903780D02*
X118933885Y-106903780D01*
X119219600Y-106903780D02*
X119219600Y-105903780D01*
X119124361Y-106046638D01*
X119029123Y-106141876D01*
X118933885Y-106189495D01*
%TO.C,S1*%
X110388495Y-107872161D02*
X110531352Y-107919780D01*
X110769447Y-107919780D01*
X110864685Y-107872161D01*
X110912304Y-107824542D01*
X110959923Y-107729304D01*
X110959923Y-107634066D01*
X110912304Y-107538828D01*
X110864685Y-107491209D01*
X110769447Y-107443590D01*
X110578971Y-107395971D01*
X110483733Y-107348352D01*
X110436114Y-107300733D01*
X110388495Y-107205495D01*
X110388495Y-107110257D01*
X110436114Y-107015019D01*
X110483733Y-106967400D01*
X110578971Y-106919780D01*
X110817066Y-106919780D01*
X110959923Y-106967400D01*
X111912304Y-107919780D02*
X111340876Y-107919780D01*
X111626590Y-107919780D02*
X111626590Y-106919780D01*
X111531352Y-107062638D01*
X111436114Y-107157876D01*
X111340876Y-107205495D01*
%TD*%
M02*
